<?xml version="1.0" standalone="no"?>
<!DOCTYPE svg PUBLIC "-//W3C//DTD SVG 1.1//EN" "http://www.w3.org/Graphics/SVG/1.1/DTD/svg11.dtd" >
<svg>
<metadata>
Created by FontForge 20090622 at Wed Aug 16 07:57:01 2017
 By deploy user
Copyright 2008 Monotype Imaging Inc. All rights reserved.
</metadata>
<defs>
<font id="TanseekModernProArabic-Bold" horiz-adv-x="0" >
  <font-face 
    font-family="TanseekModernProArabic-Bold"
    font-weight="400"
    font-stretch="normal"
    units-per-em="2048"
    panose-1="2 11 8 4 3 2 2 2 3 3"
    ascent="1600"
    descent="-448"
    x-height="680"
    cap-height="956"
    bbox="-182 -659 2077 1837"
    underline-thickness="156"
    underline-position="33"
    unicode-range="U+0020-U+FEFC"
  />
<missing-glyph horiz-adv-x="2048" 
d="M1749 0h-1536v1536h1536v-1536zM1620 129v1278h-1278v-1278h1278z" />
    <glyph glyph-name="IJ" unicode="IJ" horiz-adv-x="965" 
d="M98 0v956h213v-956h-213zM424 178q29 -8 64 -14t61 -6q54 0 82.5 23.5t28.5 92.5v504h-178l30 178h361v-657q0 -90 -21.5 -150t-59.5 -96.5t-89.5 -51.5t-110.5 -15q-11 0 -29.5 1t-39.5 3t-40.5 4.5t-31.5 5.5z" />
    <glyph glyph-name="ij" unicode="ij" horiz-adv-x="772" 
d="M379 16q-34 -17 -76 -23.5t-82 -6.5q-15 0 -38 4t-44 17.5t-36 38.5t-15 67v567h191v-524q0 -35 38 -35q15 0 39 6zM295 874q0 -23 -9 -43.5t-25 -35.5t-36.5 -24t-42.5 -9q-21 0 -41.5 9t-36 24t-25 35.5t-9.5 43.5t9.5 43.5t25 36t36 24.5t41.5 9q22 0 42.5 -9
t36.5 -24.5t25 -36t9 -43.5zM495 680h193v-713q0 -45 -9.5 -88.5t-35 -78t-70 -55.5t-114.5 -21q-42 0 -81.5 5t-84.5 17l30 139q19 -6 46 -11t49 -5q21 0 36 3t24 12t13 24.5t4 40.5v731zM704 874q0 -23 -9 -43.5t-24.5 -35.5t-36 -24t-42.5 -9q-23 0 -43 9t-36 24
t-25 35.5t-9 43.5t9 43.5t25 36t36 24.5t43 9q22 0 42.5 -9t36 -24.5t24.5 -36t9 -43.5z" />
    <glyph glyph-name="napostrophe" unicode="&#x27;n" horiz-adv-x="963" 
d="M955 16q-32 -17 -73 -23.5t-83 -6.5q-15 0 -38 4t-44.5 17.5t-37 38.5t-15.5 67v311q0 34 -2.5 54.5t-10 31.5t-20.5 14.5t-35 3.5q-16 0 -38 -7.5t-45.5 -19t-46.5 -25.5t-40 -27v-449h-192v680h192v-76q21 15 45.5 30.5t52.5 28t58.5 20t63.5 7.5q49 0 88 -7.5
t66.5 -30t42 -65t14.5 -112.5v-319q0 -35 34 -35q8 0 18.5 0.5t24.5 5.5zM-40 711q12 7 27 18.5t28.5 26t23 30.5t9.5 33q0 16 -10.5 29.5t-22.5 27.5t-22.5 30.5t-10.5 37.5q0 43 28.5 66.5t76.5 23.5q19 0 38 -8t34 -23.5t24.5 -38.5t9.5 -53q0 -94 -51 -162t-145 -110z
" />
    <glyph glyph-name="alefmaddaabovearabic" unicode="&#x627;&#x653;" horiz-adv-x="387" 
d="M96 -102v1058h195v-956zM313 1085q-11 -11 -24 -17.5t-29 -6.5q-18 0 -35 8t-32 17.5l-28 17.5t-22 8q-8 0 -13.5 -4.5t-10.5 -9.5l-39 -37l-60 59l43 43q16 16 32 27.5t36 11.5q17 0 34 -8.5t32.5 -18l29 -18t23.5 -8.5t24 14l39 39l58 -57z" />
    <glyph glyph-name="alefhamzaabovearabic" unicode="&#x627;&#x654;" horiz-adv-x="387" 
d="M96 -102v1058h195v-956zM57 1061v84h54q-4 11 -6.5 23t-2.5 24q0 57 37.5 92t102.5 35h47v-84h-49q-22 0 -39 -9.5t-17 -35.5q0 -45 58 -45h86v-84h-271z" />
    <glyph glyph-name="wawhamzaabovearabic" unicode="&#x648;&#x654;" horiz-adv-x="745" 
d="M455 483h-101q-31 0 -46 -18.5t-15 -44.5v-156q0 -28 14.5 -47.5t48.5 -19.5h99v286zM145 -184q64 -2 120.5 7.5t98.5 30t66.5 53.5t24.5 79v14h-95q-63 0 -112 21t-82.5 57t-51.5 83t-18 99v158q0 54 18 101.5t51.5 83t82.5 56.5t112 21h289v-686q0 -72 -17 -134.5
t-59.5 -109.5t-116 -75.5t-186.5 -32.5zM236 782v84h53q-3 11 -5.5 23t-2.5 24q0 57 37 92t102 35h47v-84h-49q-22 0 -39 -9.5t-17 -35.5q0 -45 58 -45h86v-84h-270z" />
    <glyph glyph-name="alefhamzabelowarabic" unicode="&#x627;&#x655;" horiz-adv-x="387" 
d="M96 0v956h195v-956h-195zM57 -358v84h54q-4 11 -6.5 22.5t-2.5 24.5q0 57 37.5 92t102.5 35h47v-84h-49q-22 0 -39 -9.5t-17 -35.5q0 -45 58 -45h86v-84h-271z" />
    <glyph glyph-name="yehhamzaabovearabic" unicode="&#x64a;&#x654;" horiz-adv-x="1104" 
d="M1008 -18q0 -74 -34.5 -137.5t-95.5 -110t-144.5 -73t-180.5 -26.5q-79 0 -160.5 20.5t-147.5 65t-107.5 115.5t-41.5 172v297l195 129v-393q0 -59 24.5 -99t62.5 -64t84 -34t89 -10q40 0 82.5 9t79.5 28.5t63 51.5t33 77h-88q-61 0 -110.5 19t-84.5 53.5t-54 82
t-19 105.5v158q0 57 18 105t52 83t83 54.5t111 19.5h291v-197h-297q-26 0 -44 -19t-18 -48v-156q0 -11 3 -22t10 -20t19 -15t30 -6h297v-215zM57 555v84h54q-4 11 -6.5 23t-2.5 24q0 57 37.5 92t102.5 35h47v-84h-49q-22 0 -39 -9.5t-17 -35.5q0 -45 58 -45h86v-84h-271z
" />
    <glyph glyph-name="f_f" unicode="ff" horiz-adv-x="1040" 
d="M121 0v547h-107l29 133h78v59q0 45 9.5 88.5t35 78t70 56t114.5 21.5q42 0 82.5 -5t83.5 -17l-31 -140q-15 6 -42.5 11.5t-49.5 5.5q-45 0 -63.5 -16.5t-18.5 -65.5v-76h152v-133h-152v-547h-190zM653 0v547h-107l29 133h78v59q0 45 9.5 88.5t35 78t70 56t114.5 21.5
q42 0 82.5 -5t83.5 -17l-31 -140q-15 6 -42.5 11.5t-49.5 5.5q-45 0 -63.5 -16.5t-18.5 -65.5v-76h152v-133h-152v-547h-190z" />
    <glyph glyph-name="fi" unicode="fi" horiz-adv-x="899" 
d="M121 0v547h-107l29 133h78v59q0 45 9.5 88.5t35 78t70 56t114.5 21.5q42 0 82.5 -5t83.5 -17l-31 -140q-15 6 -42.5 11.5t-49.5 5.5q-45 0 -63.5 -16.5t-18.5 -65.5v-76h152v-133h-152v-547h-190zM887 16q-34 -17 -76 -23.5t-82 -6.5q-15 0 -38 4t-44.5 17.5t-37 38.5
t-15.5 67v567h192v-524q0 -35 39 -35q15 0 39 6zM803 874q0 -23 -9 -43.5t-25 -35.5t-36.5 -24t-42.5 -9q-21 0 -41.5 9t-36 24t-25 35.5t-9.5 43.5t9.5 43.5t25 36t36 24.5t41.5 9q22 0 42.5 -9t36.5 -24.5t25 -36t9 -43.5z" />
    <glyph glyph-name="fl" unicode="fl" horiz-adv-x="897" 
d="M121 0v547h-107l29 133h78v59q0 45 9.5 88.5t35 78t70 56t114.5 21.5q42 0 82.5 -5t83.5 -17l-31 -140q-15 6 -42.5 11.5t-49.5 5.5q-45 0 -63.5 -16.5t-18.5 -65.5v-76h152v-133h-152v-547h-190zM889 16q-34 -17 -76 -23.5t-82 -6.5q-15 0 -38 4t-44.5 17.5t-37 38.5
t-15.5 67v843h192v-800q0 -35 39 -35q15 0 39 6z" />
    <glyph glyph-name="f_f_i" unicode="ffi" horiz-adv-x="1432" 
d="M121 0v547h-107l29 133h78v59q0 45 9.5 88.5t35 78t70 56t114.5 21.5q42 0 82.5 -5t83.5 -17l-31 -140q-15 6 -42.5 11.5t-49.5 5.5q-45 0 -63.5 -16.5t-18.5 -65.5v-76h152v-133h-152v-547h-190zM653 0v547h-107l29 133h78v59q0 45 9.5 88.5t35 78t70 56t114.5 21.5
q42 0 82.5 -5t83.5 -17l-31 -140q-15 6 -42.5 11.5t-49.5 5.5q-45 0 -63.5 -16.5t-18.5 -65.5v-76h152v-133h-152v-547h-190zM1419 16q-34 -17 -76 -23.5t-82 -6.5q-15 0 -38 4t-44 17.5t-36 38.5t-15 67v567h191v-524q0 -35 38 -35q15 0 39 6zM1335 874q0 -23 -9 -43.5
t-25 -35.5t-36.5 -24t-42.5 -9q-21 0 -41.5 9t-36 24t-25 35.5t-9.5 43.5t9.5 43.5t25 36t36 24.5t41.5 9q22 0 42.5 -9t36.5 -24.5t25 -36t9 -43.5z" />
    <glyph glyph-name="f_f_l" unicode="ffl" horiz-adv-x="1427" 
d="M121 0v547h-107l29 133h78v59q0 45 9.5 88.5t35 78t70 56t114.5 21.5q42 0 82.5 -5t83.5 -17l-31 -140q-15 6 -42.5 11.5t-49.5 5.5q-45 0 -63.5 -16.5t-18.5 -65.5v-76h152v-133h-152v-547h-190zM653 0v547h-107l29 133h78v59q0 45 9.5 88.5t35 78t70 56t114.5 21.5
q42 0 82.5 -5t83.5 -17l-31 -140q-15 6 -42.5 11.5t-49.5 5.5q-45 0 -63.5 -16.5t-18.5 -65.5v-76h152v-133h-152v-547h-190zM1419 16q-32 -17 -74 -23.5t-84 -6.5q-15 0 -37.5 4t-43.5 17.5t-36.5 38.5t-15.5 67v843h193v-800q0 -35 38 -35q15 0 39 6z" />
    <glyph glyph-name="allah" unicode="&#xfedf;&#xfee0;&#xfeea;" horiz-adv-x="1591" arabic-form="isolated" 
d="M455 483h-101q-24 0 -42.5 -17t-18.5 -52v-154q0 -26 15 -44.5t46 -18.5h101v286zM455 0v121l-95 -121q-61 0 -110 20t-83 55.5t-52.5 83.5t-18.5 105v154q0 57 19 105.5t53 83t82 54t106 19.5h293v-483h228v759h196v-759h162q29 0 46 17.5t17 49.5v692h197v-696
q0 -50 -16.5 -97t-49.5 -83t-82.5 -58t-115.5 -22h-776zM936 1448v317h84v-317h-84zM868 1061q-27 0 -45 7.5t-28.5 19.5t-14.5 27t-4 30v172h82v-154q0 -9 4.5 -13.5t18.5 -4.5h55v172h84v-172h53q13 0 19 2t6 16v154h84v-172q0 -37 -22.5 -60.5t-72.5 -23.5h-219z" />
    <glyph glyph-name="lamalefmaddaaboveisolatedarabic" unicode="&#xfedf;&#xfe82;" horiz-adv-x="915" arabic-form="isolated" 
d="M96 0v197h211l-190 483h196l195 -483h53q64 0 64 69v690h194v-696q0 -55 -18 -102.5t-52 -82.5t-82.5 -55t-109.5 -20h-461zM332 807q-11 -11 -24.5 -18t-28.5 -7q-18 0 -35 8t-32.5 18l-28 18t-21.5 8q-8 0 -14 -5t-11 -10l-39 -37l-59 60l43 43q15 15 31.5 27t36.5 12
q17 0 34 -8.5t32.5 -18.5l28.5 -18.5t23 -8.5q11 0 25 15l39 39l57 -58z" />
    <glyph glyph-name="lamalefmaddaabovefinalarabic" unicode="&#xfee0;&#xfe82;" horiz-adv-x="891" arabic-form="final" 
d="M96 0v197h211l-190 483h196l195 -483h117v759h194v-759h82v-197h-805zM332 807q-11 -11 -24.5 -18t-28.5 -7q-18 0 -35 8t-32.5 18l-28 18t-21.5 8q-8 0 -14 -5t-11 -10l-39 -37l-59 60l43 43q15 15 31.5 27t36.5 12q17 0 34 -8.5t32.5 -18.5l28.5 -18.5t23 -8.5
q11 0 25 15l39 39l57 -58z" />
    <glyph glyph-name="lamalefhamzaaboveisolatedarabic" unicode="&#xfedf;&#xfe84;" horiz-adv-x="915" arabic-form="isolated" 
d="M96 0v197h211l-190 483h196l195 -483h53q64 0 64 69v690h194v-696q0 -55 -18 -102.5t-52 -82.5t-82.5 -55t-109.5 -20h-461zM78 782v84h53q-3 11 -5.5 23t-2.5 24q0 57 37 92t102 35h47v-84h-49q-22 0 -38.5 -9.5t-16.5 -35.5q0 -45 57 -45h86v-84h-270z" />
    <glyph glyph-name="lamalefhamzaabovefinalarabic" unicode="&#xfee0;&#xfe84;" horiz-adv-x="891" arabic-form="final" 
d="M96 0v197h211l-190 483h196l195 -483h117v759h194v-759h82v-197h-805zM78 782v84h53q-3 11 -5.5 23t-2.5 24q0 57 37 92t102 35h47v-84h-49q-22 0 -38.5 -9.5t-16.5 -35.5q0 -45 57 -45h86v-84h-270z" />
    <glyph glyph-name="lamalefhamzabelowisolatedarabic" unicode="&#xfedf;&#xfe88;" horiz-adv-x="915" arabic-form="isolated" 
d="M96 0v197h211l-190 483h196l195 -483h53q64 0 64 69v690h194v-696q0 -55 -18 -102.5t-52 -82.5t-82.5 -55t-109.5 -20h-461zM94 -358v84h53q-3 11 -5.5 22.5t-2.5 24.5q0 57 37.5 92t102.5 35h47v-84h-50q-21 0 -38 -9.5t-17 -35.5q0 -45 58 -45h86v-84h-271z" />
    <glyph glyph-name="lamalefhamzabelowfinalarabic" unicode="&#xfee0;&#xfe88;" horiz-adv-x="891" arabic-form="final" 
d="M96 0v197h211l-190 483h196l195 -483h117v759h194v-759h82v-197h-805zM94 -358v84h53q-3 11 -5.5 22.5t-2.5 24.5q0 57 37.5 92t102.5 35h47v-84h-50q-21 0 -38 -9.5t-17 -35.5q0 -45 58 -45h86v-84h-271z" />
    <glyph glyph-name="lamalefisolatedarabic" unicode="&#xfedf;&#xfe8e;" horiz-adv-x="915" arabic-form="isolated" 
d="M96 0v197h211l-190 483h196l195 -483h53q64 0 64 69v690h194v-696q0 -55 -18 -102.5t-52 -82.5t-82.5 -55t-109.5 -20h-461z" />
    <glyph glyph-name="lamaleffinalarabic" unicode="&#xfee0;&#xfe8e;" horiz-adv-x="891" arabic-form="final" 
d="M96 0v197h211l-192 483h198l193 -483h117v759h196v-759h82v-197h-805z" />
    <glyph glyph-name="hamzaarabic" unicode="&#x621;" horiz-adv-x="852" arabic-form="isolated" 
d="M758 68q-78 -23 -149.5 -55t-138.5 -70.5t-131 -82l-126 -89.5l-104 170q46 35 94.5 64.5t99.5 55.5q-45 23 -83 54t-65.5 69.5t-43 84.5t-15.5 100q0 66 26 124.5t75 102t118 69t156 25.5q37 0 76.5 -3t75.5 -9v-195q-32 10 -65.5 13.5t-68.5 3.5q-32 0 -65.5 -7.5
t-60.5 -24t-44.5 -43t-17.5 -63.5q0 -38 17.5 -66.5t47 -48.5t67 -30t77.5 -10q66 0 129 21.5t119 56.5v-217z" />
    <glyph glyph-name="alefarabic" unicode="&#x627;" horiz-adv-x="387" arabic-form="isolated" 
d="M96 -102v1058h195v-956z" />
    <glyph glyph-name="beharabic" unicode="&#x628;" horiz-adv-x="1329" arabic-form="isolated" 
d="M762 -260q0 -20 -8 -37.5t-21.5 -31t-31.5 -21.5t-39 -8q-20 0 -38.5 8t-32.5 21.5t-22 31t-8 37.5t8 38t22 32t32.5 22t38.5 8t38 -8t32 -21.5t22 -31.5t8 -39zM362 0q-59 0 -108 18t-84 51.5t-54.5 81.5t-19.5 109v168l195 127v-285q0 -29 12.5 -51t52.5 -22h617
q29 0 46 16.5t17 56.5v410h197v-420q0 -58 -18.5 -105.5t-52.5 -82t-82 -53.5t-107 -19h-611z" />
    <glyph glyph-name="tehmarbutaarabic" unicode="&#x629;" horiz-adv-x="745" arabic-form="isolated" 
d="M455 483h-101q-28 0 -45.5 -18t-17.5 -47v-156q0 -38 23.5 -53.5t58.5 -15.5q37 0 59.5 17t22.5 52v221zM649 268q0 -71 -23 -122t-61.5 -84t-88 -48.5t-103.5 -15.5q-63 0 -114 18.5t-87.5 53t-56 84.5t-19.5 114v150q0 56 18.5 104t52.5 83t82 55t107 20h293v-412z
M356 883q0 -21 -8 -39.5t-21.5 -32t-31.5 -21.5t-39 -8q-20 0 -37.5 8t-31 21.5t-21.5 32t-8 39.5q0 20 8 37.5t21.5 31t31 21.5t37.5 8q21 0 39 -8t31.5 -21.5t21.5 -31t8 -37.5zM586 883q0 -21 -8 -39.5t-21.5 -32t-32 -21.5t-39.5 -8q-20 0 -37.5 8t-31 21.5t-21.5 32
t-8 39.5q0 20 8 37.5t21.5 31t31 21.5t37.5 8q21 0 39.5 -8t32 -21.5t21.5 -31t8 -37.5z" />
    <glyph glyph-name="teharabic" unicode="&#x62a;" horiz-adv-x="1329" arabic-form="isolated" 
d="M551 782q-21 0 -39 8t-31.5 21.5t-21.5 32t-8 39.5q0 20 8 37.5t21.5 31t31.5 21.5t39 8q20 0 37.5 -8t31 -21.5t21.5 -31t8 -37.5q0 -21 -8 -39.5t-21.5 -32t-31 -21.5t-37.5 -8zM780 782q-21 0 -39 8t-31.5 21.5t-21.5 32t-8 39.5q0 20 8 37.5t21.5 31t31.5 21.5t39 8
q20 0 38 -8t31.5 -21.5t21.5 -31t8 -37.5q0 -21 -8 -39.5t-21.5 -32t-31.5 -21.5t-38 -8zM362 0q-59 0 -108 18t-84 51.5t-54.5 81.5t-19.5 109v168l195 127v-285q0 -29 12.5 -51t52.5 -22h617q29 0 46 16.5t17 56.5v410h197v-420q0 -58 -18.5 -105.5t-52.5 -82t-82 -53.5
t-107 -19h-611z" />
    <glyph glyph-name="theharabic" unicode="&#x62b;" horiz-adv-x="1329" arabic-form="isolated" 
d="M551 782q-21 0 -39 8t-31.5 21.5t-21.5 32t-8 39.5q0 20 8 37.5t21.5 31t31.5 21.5t39 8q20 0 37.5 -8t31 -21.5t21.5 -31t8 -37.5q0 -21 -8 -39.5t-21.5 -32t-31 -21.5t-37.5 -8zM780 782q-21 0 -39 8t-31.5 21.5t-21.5 32t-8 39.5q0 20 8 37.5t21.5 31t31.5 21.5t39 8
q20 0 38 -8t31.5 -21.5t21.5 -31t8 -37.5q0 -21 -8 -39.5t-21.5 -32t-31.5 -21.5t-38 -8zM666 999q-16 0 -30.5 6t-25 16.5t-16.5 24.5t-6 29q0 32 23 55t55 23q31 0 53 -22.5t22 -53.5q0 -32 -22 -55t-53 -23zM362 0q-59 0 -108 18t-84 51.5t-54.5 81.5t-19.5 109v168
l195 127v-285q0 -29 12.5 -51t52.5 -22h617q29 0 46 16.5t17 56.5v410h197v-420q0 -58 -18.5 -105.5t-52.5 -82t-82 -53.5t-107 -19h-611z" />
    <glyph glyph-name="jeemarabic" unicode="&#x62c;" horiz-adv-x="885" arabic-form="isolated" 
d="M373 -358q-57 0 -107.5 23t-88 61.5t-59.5 89.5t-22 108q0 61 21 111t60 86t93.5 56t122.5 20h137q26 0 45 16t19 51v154q0 31 -19 48t-45 17h-294v197h292q58 0 106 -20t82.5 -55t53 -83t18.5 -104v-158q0 -57 -18.5 -104.5t-53 -82t-84 -54t-110.5 -19.5h-143
q-16 0 -31.5 -5t-27.5 -15t-19.5 -25t-7.5 -35q0 -21 8 -36.5t21 -25.5t29.5 -15t33.5 -5h133l-129 -196h-16zM791 -260q0 -20 -8.5 -37.5t-22.5 -31t-32 -21.5t-38 -8t-38 8t-32 21.5t-22 31t-8 37.5q0 21 8 39t22 31.5t32 21.5t38 8t38 -8t32 -21.5t22.5 -31.5t8.5 -39z
" />
    <glyph glyph-name="haharabic" unicode="&#x62d;" horiz-adv-x="885" arabic-form="isolated" 
d="M373 -358q-57 0 -107.5 23t-88 61.5t-59.5 89.5t-22 108q0 61 21 111t60 86t93.5 56t122.5 20h137q26 0 45 16t19 51v154q0 31 -19 48t-45 17h-294v197h292q58 0 106 -20t82.5 -55t53 -83t18.5 -104v-158q0 -57 -18.5 -104.5t-53 -82t-84 -54t-110.5 -19.5h-143
q-16 0 -31.5 -5t-27.5 -15t-19.5 -25t-7.5 -35q0 -21 8 -36.5t21 -25.5t29.5 -15t33.5 -5h385l-129 -196h-268z" />
    <glyph glyph-name="khaharabic" unicode="&#x62e;" horiz-adv-x="885" arabic-form="isolated" 
d="M461 782q-20 0 -38 8t-32 21.5t-22.5 32t-8.5 39.5q0 19 8.5 37t22.5 31.5t32 21.5t38 8t37.5 -8t31 -21.5t21.5 -31t8 -37.5q0 -21 -8 -39.5t-21.5 -32t-31 -21.5t-37.5 -8zM373 -358q-57 0 -107.5 23t-88 61.5t-59.5 89.5t-22 108q0 61 21 111t60 86t93.5 56t122.5 20
h137q26 0 45 16t19 51v154q0 31 -19 48t-45 17h-294v197h292q58 0 106 -20t82.5 -55t53 -83t18.5 -104v-158q0 -57 -18.5 -104.5t-53 -82t-84 -54t-110.5 -19.5h-143q-16 0 -31.5 -5t-27.5 -15t-19.5 -25t-7.5 -35q0 -21 8 -36.5t21 -25.5t29.5 -15t33.5 -5h385l-129 -196
h-268z" />
    <glyph glyph-name="dalarabic" unicode="&#x62f;" horiz-adv-x="780" arabic-form="isolated" 
d="M96 0v197h303q28 0 45 8t26 22.5t12 34t3 43.5q0 36 -10 68.5t-31 56.5t-54 38.5t-79 14.5h-98v197h115q100 0 168.5 -33t110.5 -87.5t60.5 -123.5t18.5 -141q0 -66 -17.5 -120.5t-51.5 -93t-84.5 -60t-116.5 -21.5h-320z" />
    <glyph glyph-name="thalarabic" unicode="&#x630;" horiz-adv-x="780" arabic-form="isolated" 
d="M412 883q0 -21 -8 -39.5t-22 -32t-32.5 -21.5t-38.5 -8t-37.5 8t-31 21.5t-21.5 32t-8 39.5q0 19 8 37t21.5 31.5t31 21.5t37.5 8t38.5 -8t32.5 -21.5t22 -31t8 -37.5zM96 0v197h303q28 0 45 8t26 22.5t12 34t3 43.5q0 36 -10 68.5t-31 56.5t-54 38.5t-79 14.5h-98v197
h115q100 0 168.5 -33t110.5 -87.5t60.5 -123.5t18.5 -141q0 -66 -17.5 -120.5t-51.5 -93t-84.5 -60t-116.5 -21.5h-320z" />
    <glyph glyph-name="reharabic" unicode="&#x631;" horiz-adv-x="506" arabic-form="isolated" 
d="M35 -180q54 13 88.5 32.5t54.5 44t27.5 53.5t7.5 62v668h197v-715q0 -57 -12.5 -102.5t-41 -84t-74 -72t-112.5 -64.5z" />
    <glyph glyph-name="zainarabic" unicode="&#x632;" horiz-adv-x="506" arabic-form="isolated" 
d="M313 782q-21 0 -39 8t-31.5 21.5t-21.5 32t-8 39.5q0 20 8 37.5t21.5 31t31.5 21.5t39 8q19 0 37 -8t32 -21.5t22 -31t8 -37.5q0 -21 -8 -39.5t-21.5 -32t-31.5 -21.5t-38 -8zM35 -180q54 13 88.5 32.5t54.5 44t27.5 53.5t7.5 62v668h197v-715q0 -57 -12.5 -102.5
t-41 -84t-74 -72t-112.5 -64.5z" />
    <glyph glyph-name="seenarabic" unicode="&#x633;" horiz-adv-x="1823" arabic-form="isolated" 
d="M1008 0q0 -64 -19 -116t-52.5 -92.5t-78 -70t-95 -48.5t-104.5 -28.5t-106 -9.5q-84 0 -165.5 21.5t-146.5 66.5t-105 115t-40 168v299l195 129v-393q0 -59 24 -98.5t62 -63.5t84 -34.5t90 -10.5q45 0 91.5 10.5t84.5 35t62 64t24 97.5v639h195v-483h163v483h197v-483
h100q23 0 42.5 15t19.5 52v416h196v-420q0 -54 -17.5 -101.5t-51.5 -83t-83.5 -55.5t-113.5 -20h-452z" />
    <glyph glyph-name="sheenarabic" unicode="&#x634;" horiz-adv-x="1823" arabic-form="isolated" 
d="M1257 883q0 -21 -8 -39.5t-22 -32t-32 -21.5t-38 -8t-37.5 8t-31 21.5t-21.5 32t-8 39.5q0 20 8 37.5t21.5 31t31 21.5t37.5 8t38 -8t32 -21.5t22 -31t8 -37.5zM1386 782q-20 0 -37.5 8t-31 21.5t-21.5 32t-8 39.5q0 20 8 37.5t21.5 31t31 21.5t37.5 8t38 -8t31.5 -21.5
t21.5 -31t8 -37.5q0 -21 -8 -39.5t-21.5 -32t-31.5 -21.5t-38 -8zM1350 1077q0 -16 -6.5 -30.5t-17 -25t-25 -16.5t-29.5 -6q-31 0 -54.5 22.5t-23.5 53.5q0 16 6.5 30.5t17 25t25 16.5t29.5 6q31 0 54.5 -22.5t23.5 -53.5zM1008 0q0 -64 -19 -116t-52.5 -92.5t-78 -70
t-95 -48.5t-104.5 -28.5t-106 -9.5q-84 0 -165.5 21.5t-146.5 66.5t-105 115t-40 168v299l195 129v-393q0 -59 24 -98.5t62 -63.5t84 -34.5t90 -10.5q45 0 91.5 10.5t84.5 35t62 64t24 97.5v639h195v-483h163v483h197v-483h100q23 0 42.5 15t19.5 52v416h196v-420
q0 -54 -17.5 -101.5t-51.5 -83t-83.5 -55.5t-113.5 -20h-452z" />
    <glyph glyph-name="sadarabic" unicode="&#x635;" horiz-adv-x="1706" arabic-form="isolated" 
d="M1008 0q0 -64 -19 -116t-52.5 -92.5t-78 -70t-95 -48.5t-104.5 -28.5t-106 -9.5q-84 0 -165.5 21.5t-146.5 66.5t-105 115t-40 168v299l195 129v-393q0 -59 24 -98.5t62 -63.5t84 -34.5t90 -10.5q45 0 91.5 10.5t84.5 35t62 64t24 97.5v639h195v-105l268 97q23 8 47 12
t47 4q51 0 95.5 -18.5t77 -50.5t51 -75.5t18.5 -94.5v-189q0 -52 -17.5 -99t-51 -83t-82.5 -57t-113 -21h-340zM1415 428q0 28 -14 44.5t-37 16.5q-12 0 -24.5 -3.5t-26.5 -8.5l-250 -88q-31 -11 -43 -25.5t-12 -48.5v-118h342q37 0 51 19.5t14 47.5v164z" />
    <glyph glyph-name="dadarabic" unicode="&#x636;" horiz-adv-x="1706" arabic-form="isolated" 
d="M1223 782q-21 0 -39.5 8t-32 21.5t-21.5 32t-8 39.5q0 20 8 37.5t21.5 31t32 21.5t39.5 8t38.5 -8t31 -21.5t21 -31t7.5 -37.5q0 -21 -7.5 -39.5t-21 -32t-31 -21.5t-38.5 -8zM1008 0q0 -64 -19 -116t-52.5 -92.5t-78 -70t-95 -48.5t-104.5 -28.5t-106 -9.5
q-84 0 -165.5 21.5t-146.5 66.5t-105 115t-40 168v299l195 129v-393q0 -59 24 -98.5t62 -63.5t84 -34.5t90 -10.5q45 0 91.5 10.5t84.5 35t62 64t24 97.5v639h195v-105l268 99q23 8 47 12t47 4q51 0 95.5 -18.5t77 -50.5t51 -75.5t18.5 -94.5v-191q0 -52 -17.5 -99t-51 -83
t-82.5 -57t-113 -21h-340zM1415 430q0 28 -14 45t-37 17q-12 0 -24.5 -4t-26.5 -9l-250 -88q-31 -11 -43 -25.5t-12 -48.5v-120h342q37 0 51 19.5t14 47.5v166z" />
    <glyph glyph-name="taharabic" unicode="&#x637;" horiz-adv-x="1221" arabic-form="isolated" 
d="M522 0v-57l-196 -103v160h-230l88 197h142v759h196v-378l269 96q21 8 45 12t49 4q51 0 95 -18.5t76 -50.5t50 -75.5t18 -94.5v-191q0 -52 -17 -99t-50 -83t-82 -57t-113 -21h-340zM930 430q0 28 -14 45t-37 17q-13 0 -26 -4t-26 -9l-249 -88q-31 -11 -43.5 -25.5
t-12.5 -48.5v-120h342q37 0 51.5 19.5t14.5 47.5v166z" />
    <glyph glyph-name="zaharabic" unicode="&#x638;" horiz-adv-x="1221" arabic-form="isolated" 
d="M737 784q-21 0 -39 8t-31.5 21.5t-21.5 32t-8 39.5q0 20 8 37.5t21.5 31t31.5 21.5t39 8q20 0 38 -8t31.5 -21.5t21.5 -31t8 -37.5q0 -21 -8 -39.5t-21.5 -32t-31.5 -21.5t-38 -8zM522 0v-57l-196 -103v160h-230l88 197h142v759h196v-378l269 96q21 8 45 12t49 4
q51 0 95 -18.5t76 -50.5t50 -75.5t18 -94.5v-191q0 -52 -17 -99t-50 -83t-82 -57t-113 -21h-340zM930 430q0 28 -14 45t-37 17q-13 0 -26 -4t-26 -9l-249 -88q-31 -11 -43.5 -25.5t-12.5 -48.5v-120h342q37 0 51.5 19.5t14.5 47.5v166z" />
    <glyph glyph-name="ainarabic" unicode="&#x639;" horiz-adv-x="889" arabic-form="isolated" 
d="M375 -358q-58 0 -108.5 22.5t-88.5 61t-60 90t-22 110.5q0 56 22 108t62 89q-26 31 -31.5 65.5t-5.5 71.5v158q0 57 19 105.5t53.5 83t82.5 54t105 19.5h295v-197h-297q-27 0 -44 -17.5t-17 -51.5v-150q0 -35 18.5 -51t44.5 -16h392v-197h-410q-40 0 -66 -21.5t-26 -58.5
q0 -35 26 -58.5t66 -23.5h403l-131 -196h-282z" />
    <glyph glyph-name="ghainarabic" unicode="&#x63a;" horiz-adv-x="889" arabic-form="isolated" 
d="M473 782q-21 0 -39 8t-31.5 21.5t-21.5 32t-8 39.5q0 20 8 37.5t21.5 31t31.5 21.5t39 8q20 0 37.5 -8t31 -21.5t21.5 -31.5t8 -37q0 -21 -8 -39.5t-21.5 -32t-31 -21.5t-37.5 -8zM375 -358q-58 0 -108.5 22.5t-88.5 61t-60 90t-22 110.5q0 56 22 108t62 89
q-26 31 -31.5 65.5t-5.5 71.5v158q0 57 19 105.5t53.5 83t82.5 54t105 19.5h295v-197h-297q-27 0 -44 -17.5t-17 -51.5v-150q0 -35 18.5 -51t44.5 -16h392v-197h-410q-40 0 -66 -21.5t-26 -58.5q0 -35 26 -58.5t66 -23.5h403l-131 -196h-282z" />
    <glyph glyph-name="feharabic" unicode="&#x641;" horiz-adv-x="1329" arabic-form="isolated" 
d="M954 782q-20 0 -37.5 8t-31 21.5t-21.5 32t-8 39.5q0 20 8 37.5t21.5 31t31 21.5t37.5 8q21 0 39 -8t31.5 -21.5t21 -31t7.5 -37.5q0 -21 -7.5 -39.5t-21 -32t-31.5 -21.5t-39 -8zM362 0q-59 0 -108 18t-84 51.5t-54.5 81.5t-19.5 109v168l195 127v-285q0 -29 12.5 -51
t52.5 -22h322v221q0 47 15.5 93.5t48 84t82.5 61t120 23.5h289v-420q0 -58 -18.5 -105.5t-52.5 -82t-82 -53.5t-107 -19h-611zM1036 483h-100q-32 0 -47 -20.5t-15 -48.5v-217h99q29 0 46 16.5t17 56.5v213z" />
    <glyph glyph-name="qafarabic" unicode="&#x642;" horiz-adv-x="1104" arabic-form="isolated" 
d="M715 883q0 -21 -8 -39.5t-21.5 -32t-32 -21.5t-39.5 -8q-20 0 -37.5 8t-31 21.5t-21.5 32t-8 39.5q0 20 8 37.5t21.5 31t31 21.5t37.5 8q21 0 39.5 -8t32 -21.5t21.5 -31t8 -37.5zM944 883q0 -21 -8 -39.5t-21.5 -32t-31.5 -21.5t-39 -8q-20 0 -38 8t-31.5 21.5t-21.5 32
t-8 39.5q0 20 8 37.5t21.5 31t31.5 21.5t38 8q21 0 39 -8t31.5 -21.5t21.5 -31t8 -37.5zM811 483h-100q-26 0 -44 -19t-18 -48v-156q0 -11 3 -22t10 -20t19 -15t30 -6h100v286zM721 0q-61 0 -110.5 19t-84.5 53.5t-54 82t-19 105.5v158q0 57 18 105t52 83t83 54.5t111 19.5
h291v-698q0 -74 -34.5 -137.5t-95.5 -110t-144.5 -73t-180.5 -26.5q-79 0 -160.5 20.5t-147.5 65t-107.5 115.5t-41.5 172v297l195 129v-393q0 -59 24.5 -99t62.5 -64t84 -34t89 -10q40 0 82.5 9t79.5 28.5t63 51.5t33 77h-88z" />
    <glyph glyph-name="kafarabic" unicode="&#x643;" horiz-adv-x="1329" arabic-form="isolated" 
d="M362 0q-59 0 -108 18t-84 51.5t-54.5 81.5t-19.5 109v168l195 127v-285q0 -29 12.5 -51t52.5 -22h617q29 0 46 16.5t17 56.5v686h197v-696q0 -58 -18.5 -105.5t-52.5 -82t-82 -53.5t-107 -19h-611zM526 471v84h54q-4 11 -6.5 23t-2.5 24q0 57 37.5 92t102.5 35h47v-84
h-49q-22 0 -39 -9.5t-17 -35.5q0 -45 58 -45h86v-84h-271z" />
    <glyph glyph-name="lamarabic" unicode="&#x644;" horiz-adv-x="1104" arabic-form="isolated" 
d="M813 956h195v-956q0 -64 -19 -116t-52.5 -92.5t-78 -70t-95 -48.5t-104.5 -28.5t-106 -9.5q-84 0 -165.5 21.5t-146.5 66.5t-105 115t-40 168v299l195 129v-393q0 -59 24 -98.5t62 -63.5t84 -34.5t90 -10.5q45 0 91.5 10.5t84.5 35t62 64t24 97.5v915z" />
    <glyph glyph-name="meemarabic" unicode="&#x645;" horiz-adv-x="948" arabic-form="isolated" 
d="M383 0q-92 0 -92 -92v-158l-195 -115v328q0 108 53.5 167.5t149.5 66.5v221q0 57 18 105t52 83t83.5 54.5t112.5 19.5h289v-420q0 -58 -18.5 -105.5t-52.5 -82t-82.5 -53.5t-108.5 -19h-209zM657 483h-100q-26 0 -43.5 -19t-17.5 -48v-219h98q29 0 46 16.5t17 56.5v213z
" />
    <glyph glyph-name="noonarabic" unicode="&#x646;" horiz-adv-x="1104" arabic-form="isolated" 
d="M659 883q0 -21 -8 -39.5t-21.5 -32t-31.5 -21.5t-39 -8q-20 0 -37.5 8t-31 21.5t-21.5 32t-8 39.5q0 20 8 37.5t21.5 31t31 21.5t37.5 8q21 0 39 -8t31.5 -21.5t21.5 -31t8 -37.5zM813 680h195v-680q0 -64 -19 -116t-52.5 -92.5t-78 -70t-95 -48.5t-104.5 -28.5
t-106 -9.5q-84 0 -165.5 21.5t-146.5 66.5t-105 115t-40 168v299l195 129v-393q0 -59 24 -98.5t62 -63.5t84 -34.5t90 -10.5q45 0 91.5 10.5t84.5 35t62 64t24 97.5v639z" />
    <glyph glyph-name="heharabic" unicode="&#x647;" horiz-adv-x="745" arabic-form="isolated" 
d="M455 483h-101q-28 0 -45.5 -18t-17.5 -47v-156q0 -38 23.5 -53.5t58.5 -15.5q37 0 59.5 17t22.5 52v221zM649 268q0 -71 -23 -122t-61.5 -84t-88 -48.5t-103.5 -15.5q-63 0 -114 18.5t-87.5 53t-56 84.5t-19.5 114v150q0 56 18.5 104t52.5 83t82 55t107 20h293v-412z" />
    <glyph glyph-name="wawarabic" unicode="&#x648;" horiz-adv-x="745" arabic-form="isolated" 
d="M455 483h-101q-31 0 -46 -18.5t-15 -44.5v-156q0 -28 14.5 -47.5t48.5 -19.5h99v286zM145 -184q64 -2 120.5 7.5t98.5 30t66.5 53.5t24.5 79v14h-95q-63 0 -112 21t-82.5 57t-51.5 83t-18 99v158q0 54 18 101.5t51.5 83t82.5 56.5t112 21h289v-686q0 -72 -17 -134.5
t-59.5 -109.5t-116 -75.5t-186.5 -32.5z" />
    <glyph glyph-name="alefmaksuraarabic" unicode="&#x649;" horiz-adv-x="1104" arabic-form="isolated" 
d="M1008 -18q0 -74 -34.5 -137.5t-95.5 -110t-144.5 -73t-180.5 -26.5q-79 0 -160.5 20.5t-147.5 65t-107.5 115.5t-41.5 172v297l195 129v-393q0 -59 24.5 -99t62.5 -64t84 -34t89 -10q40 0 82.5 9t79.5 28.5t63 51.5t33 77h-88q-61 0 -110.5 19t-84.5 53.5t-54 82
t-19 105.5v158q0 57 18 105t52 83t83 54.5t111 19.5h291v-197h-297q-26 0 -44 -19t-18 -48v-156q0 -11 3 -22t10 -20t19 -15t30 -6h297v-215z" />
    <glyph glyph-name="yeharabic" unicode="&#x64a;" horiz-adv-x="1104" arabic-form="isolated" 
d="M541 -561q0 -21 -8 -38.5t-22 -31t-32.5 -21t-38.5 -7.5t-37.5 8t-31 21.5t-21.5 31t-8 37.5t8 37.5t21.5 31t31 21.5t37.5 8t38.5 -8t32.5 -21.5t22 -31t8 -37.5zM768 -561q0 -21 -8 -38.5t-21.5 -31t-31 -21t-37.5 -7.5t-38 8t-31.5 21.5t-21.5 31t-8 37.5t8 37.5
t21.5 31t31.5 21.5t38 8t37.5 -7.5t31 -21t21.5 -31t8 -38.5zM1008 -18q0 -74 -34.5 -137.5t-95.5 -110t-144.5 -73t-180.5 -26.5q-79 0 -160.5 20.5t-147.5 65t-107.5 115.5t-41.5 172v297l195 129v-393q0 -59 24.5 -99t62.5 -64t84 -34t89 -10q40 0 82.5 9t79.5 28.5
t63 51.5t33 77h-88q-61 0 -110.5 19t-84.5 53.5t-54 82t-19 105.5v158q0 57 18 105t52 83t83 54.5t111 19.5h291v-197h-297q-26 0 -44 -19t-18 -48v-156q0 -11 3 -22t10 -20t19 -15t30 -6h297v-215z" />
    <glyph glyph-name="alefwaslaarabic" unicode="&#x671;" horiz-adv-x="387" arabic-form="isolated" 
d="M-8 1135l69 67q7 6 15.5 11.5t17.5 5.5q12 0 23.5 -7t21.5 -15.5l18 -15.5t13 -7q9 0 18.5 18t24.5 39t37 39t55 18q19 0 36 -7.5t30 -20.5t20.5 -30t7.5 -36q0 -29 -14 -53.5t-36 -42t-50 -27.5t-55 -10q-29 0 -52.5 10t-41.5 21.5t-30 21.5t-18 10q-2 0 -3 -2t-3 -2
l-47 -47zM252 1149q26 -3 45.5 9.5t19.5 31.5q0 6 -3 11t-11 5q-7 0 -12.5 -6.5t-11.5 -15.5l-12.5 -18.5t-14.5 -16.5zM96 -102v1058h195v-956z" />
    <glyph glyph-name="tteharabic" unicode="&#x679;" horiz-adv-x="1329" arabic-form="isolated" 
d="M778 936q0 8 -3.5 16.5t-14.5 8.5q-5 0 -9 -0.5t-8 -4.5l-77 -28q-23 -6 -23 -31v-31h109q12 0 19 7t7 18v45zM643 782v-30l-84 -43v73h-98l35 84h63v264h84v-120l94 32q8 4 17 6.5t18 2.5q38 0 64 -26t26 -64v-103q0 -20 -8 -34.5t-21 -23.5t-29 -13.5t-32 -4.5h-129z
M362 0q-59 0 -108 18t-84 51.5t-54.5 81.5t-19.5 109v168l195 127v-285q0 -29 12.5 -51t52.5 -22h617q29 0 46 16.5t17 56.5v410h197v-420q0 -58 -18.5 -105.5t-52.5 -82t-82 -53.5t-107 -19h-611z" />
    <glyph glyph-name="peharabic" unicode="&#x67e;" horiz-adv-x="1329" arabic-form="isolated" 
d="M649 -260q0 -20 -8 -37.5t-21.5 -31t-31 -21.5t-37.5 -8q-21 0 -39 8t-31.5 21.5t-21.5 31t-8 37.5t8 38t21.5 32t31.5 22t39 8q20 0 37.5 -8t31 -21.5t21.5 -31.5t8 -39zM879 -260q0 -20 -8 -37.5t-21.5 -31t-31.5 -21.5t-38 -8q-21 0 -39 8t-31.5 21.5t-21.5 31
t-8 37.5q0 42 29 71t71 29q20 0 38 -8t31.5 -21.5t21.5 -31.5t8 -39zM666 -532q-16 0 -30.5 6.5t-25 17t-16.5 24.5t-6 29t6 29.5t16.5 25t25 17t30.5 6.5q31 0 53 -23.5t22 -54.5t-22 -54t-53 -23zM362 0q-59 0 -108 18t-84 51.5t-54.5 81.5t-19.5 109v168l195 127v-285
q0 -29 12.5 -51t52.5 -22h617q29 0 46 16.5t17 56.5v410h197v-420q0 -58 -18.5 -105.5t-52.5 -82t-82 -53.5t-107 -19h-611z" />
    <glyph glyph-name="tcheharabic" unicode="&#x686;" horiz-adv-x="889" arabic-form="isolated" 
d="M614 -193q0 -29 -21 -50t-50 -21q-15 0 -28 5.5t-22.5 15.5t-15.5 23t-6 27q0 31 21.5 51.5t50.5 20.5t50 -20.5t21 -51.5zM793 -193q0 -14 -6 -27t-15.5 -23t-22.5 -15.5t-28 -5.5t-28 5.5t-22.5 15.5t-15.5 23t-6 27q0 31 21.5 51.5t50.5 20.5t50.5 -20.5t21.5 -51.5z
M688 -332q0 -23 -17 -40t-40 -17t-39.5 17t-16.5 40t16.5 40.5t39.5 17.5t40 -17.5t17 -40.5zM283 -342q-43 16 -77.5 43.5t-59 63t-37.5 76t-13 83.5q0 61 21 111t60 86t93.5 56t122.5 20h137q26 0 45 16t19 51v154q0 31 -19 48t-45 17h-294v197h292q58 0 106 -20t82.5 -55
t53 -83t18.5 -104v-158q0 -57 -18.5 -104.5t-53 -82t-84 -54t-110.5 -19.5h-143q-16 0 -31.5 -5t-27.5 -15t-19.5 -25t-7.5 -35q0 -21 8 -36.5t21 -25.5t29.5 -15t33.5 -5h18z" />
    <glyph glyph-name="ddalarabic" unicode="&#x688;" horiz-adv-x="780" arabic-form="isolated" 
d="M520 991q0 10 -4 17.5t-16 7.5q-11 0 -15 -2l-77 -29q-11 -5 -17 -11.5t-6 -19.5v-34h109q11 0 18.5 8.5t7.5 19.5v43zM385 838v-31l-86 -41v72h-96l35 82h61v268h86v-125l94 37q15 6 35 6q37 0 63.5 -25t26.5 -65v-103q0 -19 -8 -33t-21 -23.5t-29 -14t-32 -4.5h-129z
M96 0v197h303q28 0 45 8t26 22.5t12 34t3 43.5q0 36 -10 68.5t-31 56.5t-54 38.5t-79 14.5h-98v197h115q100 0 168.5 -33t110.5 -87.5t60.5 -123.5t18.5 -141q0 -66 -17.5 -120.5t-51.5 -93t-84.5 -60t-116.5 -21.5h-320z" />
    <glyph glyph-name="rreharabic" unicode="&#x691;" horiz-adv-x="571" arabic-form="isolated" 
d="M98 -180q64 15 100 37.5t54 49.5t22.5 57t4.5 59v657h196v-719q0 -55 -12 -99.5t-40 -82.5t-74.5 -71.5t-115.5 -65.5zM389 991q0 8 -3.5 16.5t-14.5 8.5q-5 0 -8.5 -0.5t-8.5 -3.5l-78 -29q-22 -6 -22 -31v-30h111q11 0 17.5 6.5t6.5 17.5v45zM254 838v-31l-84 -43v74
h-96l32 84h64v264h84v-121l94 33q9 3 17.5 5.5t17.5 2.5q18 0 35 -7t29.5 -19t20 -28.5t7.5 -35.5v-103q0 -20 -8 -34t-21 -23t-29 -13.5t-32 -4.5h-131z" />
    <glyph glyph-name="jeharabic" unicode="&#x698;" horiz-adv-x="604" arabic-form="isolated" 
d="M182 782q-21 0 -39 8t-31.5 21.5t-21.5 32t-8 39.5q0 20 8 37.5t21.5 31t31.5 21.5t39 8q20 0 38 -8t31.5 -21.5t21.5 -31t8 -37.5q0 -21 -8 -39.5t-21.5 -32t-31.5 -21.5t-38 -8zM412 782q-21 0 -39.5 8t-32 21.5t-21.5 32t-8 39.5q0 20 8 37.5t21.5 31t32 21.5t39.5 8
q20 0 37.5 -8t31 -21.5t21.5 -31t8 -37.5q0 -21 -8 -39.5t-21.5 -32t-31 -21.5t-37.5 -8zM297 999q-16 0 -30.5 6t-25 16.5t-16.5 24.5t-6 29q0 32 23 55t55 23q31 0 53.5 -22.5t22.5 -53.5q0 -16 -6 -30.5t-16.5 -25t-24.5 -16.5t-29 -6zM133 -180q64 15 100 37.5t54 49.5
t22 57t4 59v657h195v-719q0 -55 -12 -99.5t-39.5 -82.5t-73.5 -71.5t-115 -65.5z" />
    <glyph glyph-name="veharabic" unicode="&#x6a4;" horiz-adv-x="1329" arabic-form="isolated" 
d="M840 782q-20 0 -38.5 8t-32.5 21.5t-22 32t-8 39.5q0 20 8 37.5t22 31t32.5 21.5t38.5 8t37.5 -8t31 -21.5t21.5 -31t8 -37.5q0 -21 -7.5 -39.5t-21 -32t-31 -21.5t-38.5 -8zM1069 782q-20 0 -38 8t-32 21.5t-22 32t-8 39.5q0 20 8 37.5t22 31t32 21.5t38 8q21 0 38.5 -8
t31 -21.5t21 -31t7.5 -37.5q0 -21 -7.5 -39.5t-21 -32t-31 -21.5t-38.5 -8zM1030 1077q0 -32 -23 -55t-55 -23q-31 0 -53 22.5t-22 53.5q0 32 22 55t53 23q16 0 30.5 -6t25 -16.5t16.5 -24.5t6 -29zM362 0q-59 0 -108 18t-84 51.5t-54.5 81.5t-19.5 109v168l195 127v-285
q0 -29 12.5 -51t52.5 -22h322v221q0 47 15.5 93.5t48 84t82.5 61t120 23.5h289v-420q0 -58 -18.5 -105.5t-52.5 -82t-82 -53.5t-107 -19h-611zM1036 483h-100q-32 0 -47 -20.5t-15 -48.5v-217h99q29 0 46 16.5t17 56.5v213z" />
    <glyph glyph-name="keheharabic" unicode="&#x6a9;" horiz-adv-x="1329" arabic-form="isolated" 
d="M362 0q-59 0 -108 18t-84 51.5t-54.5 81.5t-19.5 109v168l195 127v-285q0 -29 12.5 -51t52.5 -22h619q61 0 61 67v150q0 32 -17.5 50.5t-43.5 18.5h-375v211q0 54 17.5 101.5t51 83.5t82.5 56.5t113 20.5h275v-165h-281q-51 0 -72.5 -26.5t-21.5 -68.5v-16h211
q51 0 98 -17.5t82.5 -51t56.5 -82.5t21 -111v-158q0 -60 -20.5 -108t-56.5 -82t-85 -52t-106 -18h-603z" />
    <glyph glyph-name="gafarabic" unicode="&#x6af;" horiz-adv-x="1329" arabic-form="isolated" 
d="M362 0q-59 0 -108 18t-84 51.5t-54.5 81.5t-19.5 109v168l195 127v-285q0 -29 12.5 -51t52.5 -22h619q61 0 61 67v150q0 32 -17.5 50.5t-43.5 18.5h-375v211q0 54 17.5 101.5t51 83.5t82.5 56.5t113 20.5h275v-165h-281q-51 0 -72.5 -26.5t-21.5 -68.5v-16h211
q51 0 98 -17.5t82.5 -51t56.5 -82.5t21 -111v-158q0 -60 -20.5 -108t-56.5 -82t-85 -52t-106 -18h-603zM862 1061q-34 0 -67 -4.5t-66 -15.5t-65.5 -31.5t-63.5 -51.5v166q23 32 51.5 52t60.5 31t67 14.5t73 3.5h287v-164h-277z" />
    <glyph glyph-name="noonghunnaarabic" unicode="&#x6ba;" horiz-adv-x="1104" arabic-form="isolated" 
d="M813 680h195v-680q0 -64 -19 -116t-52.5 -92.5t-78 -70t-95 -48.5t-104.5 -28.5t-106 -9.5q-84 0 -165.5 21.5t-146.5 66.5t-105 115t-40 168v299l195 129v-393q0 -59 24 -98.5t62 -63.5t84 -34.5t90 -10.5q45 0 91.5 10.5t84.5 35t62 64t24 97.5v639z" />
    <glyph glyph-name="hehdoachasmeearabic" unicode="&#x6be;" horiz-adv-x="981" arabic-form="isolated" 
d="M436 248q0 28 -18.5 46.5t-44.5 18.5t-45 -19.5t-19 -45.5t19 -45t45 -19t44.5 19t18.5 45zM436 0q-17 0 -32.5 5.5t-30.5 21.5q-14 -16 -29 -21.5t-37 -5.5h-307v197h164q-6 27 -6 55q0 36 14.5 73t42 67.5t67.5 49.5t91 19q49 0 88.5 -19t67 -49.5t42.5 -67.5t15 -73
q0 -28 -6 -55h43q20 0 32.5 6.5t20 16t10 20.5t2.5 20v158q0 65 -67 65h-465v197h460q61 0 110.5 -19t84.5 -53.5t54.5 -82.5t19.5 -107v-158q0 -54 -18.5 -101t-51 -82.5t-77.5 -56t-99 -20.5h-203z" />
    <glyph glyph-name="hehyehabovearabic" unicode="&#x6c0;" horiz-adv-x="745" arabic-form="isolated" 
d="M455 483h-101q-28 0 -45.5 -18t-17.5 -47v-156q0 -38 23.5 -53.5t58.5 -15.5q37 0 59.5 17t22.5 52v221zM649 268q0 -71 -23 -122t-61.5 -84t-88 -48.5t-103.5 -15.5q-63 0 -114 18.5t-87.5 53t-56 84.5t-19.5 114v150q0 56 18.5 104t52.5 83t82 55t107 20h293v-412z
M236 782v84h53q-3 11 -5.5 23t-2.5 24q0 57 37 92t102 35h47v-84h-49q-22 0 -39 -9.5t-17 -35.5q0 -45 58 -45h86v-84h-270z" />
    <glyph glyph-name="hehgoalarabic" unicode="&#x6c1;" horiz-adv-x="745" arabic-form="isolated" 
d="M455 483h-101q-28 0 -45.5 -18t-17.5 -47v-156q0 -38 23.5 -53.5t58.5 -15.5q37 0 59.5 17t22.5 52v221zM649 268q0 -71 -23 -122t-61.5 -84t-88 -48.5t-103.5 -15.5q-63 0 -114 18.5t-87.5 53t-56 84.5t-19.5 114v150q0 56 18.5 104t52.5 83t82 55t107 20h293v-412z" />
    <glyph glyph-name="yehfarsi" unicode="&#x6cc;" horiz-adv-x="1104" arabic-form="isolated" 
d="M1008 -18q0 -74 -34.5 -137.5t-95.5 -110t-144.5 -73t-180.5 -26.5q-79 0 -160.5 20.5t-147.5 65t-107.5 115.5t-41.5 172v297l195 129v-393q0 -59 24.5 -99t62.5 -64t84 -34t89 -10q40 0 82.5 9t79.5 28.5t63 51.5t33 77h-88q-61 0 -110.5 19t-84.5 53.5t-54 82
t-19 105.5v158q0 57 18 105t52 83t83 54.5t111 19.5h291v-197h-297q-26 0 -44 -19t-18 -48v-156q0 -11 3 -22t10 -20t19 -15t30 -6h297v-215z" />
    <glyph glyph-name="yehbarreeisolatedarabic" unicode="&#x6d2;" horiz-adv-x="1556" arabic-form="isolated" 
d="M365 0q-62 0 -111.5 20t-84.5 55t-54 82.5t-19 102.5v158q0 57 19 105t54 83t84.5 54.5t111.5 19.5h362v16q0 64 21.5 113t58.5 82t87.5 50t109.5 17q60 0 111 -17.5t88 -51.5t58 -84t21 -115v-55h-197v63q0 34 -23 49t-58 15q-41 0 -60.5 -17.5t-19.5 -46.5v-215h-570
q-28 0 -45.5 -17t-17.5 -52v-154q0 -23 14.5 -43t48.5 -20h1106l-129 -197h-966z" />
    <glyph glyph-name="yehbarreehamzaabovearabic" unicode="&#x6d3;" horiz-adv-x="1556" arabic-form="isolated" 
d="M365 0q-62 0 -111.5 20t-84.5 55t-54 82.5t-19 102.5v158q0 57 19 105t54 83t84.5 54.5t111.5 19.5h362v16q0 64 21.5 113t58.5 82t87.5 50t109.5 17q60 0 111 -17.5t88 -51.5t58 -84t21 -115v-55h-197v63q0 34 -23 49t-58 15q-41 0 -60.5 -17.5t-19.5 -46.5v-215h-570
q-28 0 -45.5 -17t-17.5 -52v-154q0 -23 14.5 -43t48.5 -20h1106l-129 -197h-966zM303 782v84h53q-3 11 -5.5 23t-2.5 24q0 57 37 92t102 35h48v-84h-50q-21 0 -38 -9.5t-17 -35.5q0 -23 15 -34t42 -11h86v-84h-270z" />
    <glyph glyph-name="alefwaslafinalarabic" unicode="&#x671;" horiz-adv-x="365" arabic-form="final" 
d="M-8 1135l69 67q7 6 15.5 11.5t17.5 5.5q12 0 23.5 -7t21.5 -15.5l18 -15.5t13 -7q9 0 18.5 18t24.5 39t37 39t55 18q19 0 36 -7.5t30 -20.5t20.5 -30t7.5 -36q0 -29 -14 -53.5t-36 -42t-50 -27.5t-55 -10q-29 0 -52.5 10t-41.5 21.5t-30 21.5t-18 10q-2 0 -3 -2t-3 -2
l-47 -47zM252 1149q26 -3 45.5 9.5t19.5 31.5q0 6 -3 11t-11 5q-7 0 -12.5 -6.5t-11.5 -15.5l-12.5 -18.5t-14.5 -16.5zM338 0q-56 0 -100.5 21t-76 56t-48.5 81t-17 96v702h195v-694q0 -34 18 -49.5t47 -15.5h17v-197h-35z" />
    <glyph glyph-name="pehfinalarabic" unicode="&#x67e;" horiz-adv-x="1305" arabic-form="final" 
d="M362 0q-59 0 -108 18t-84 51.5t-54.5 81.5t-19.5 109v168l195 127v-285q0 -29 12.5 -51t52.5 -22h680v483h197v-483h82v-197h-953zM649 -260q0 -20 -8 -37.5t-21.5 -31t-31 -21.5t-37.5 -8q-21 0 -39 8t-31.5 21.5t-21.5 31t-8 37.5t8 38t21.5 32t31.5 22t39 8
q20 0 37.5 -8t31 -21.5t21.5 -31.5t8 -39zM879 -260q0 -20 -8 -37.5t-21.5 -31t-31.5 -21.5t-38 -8q-21 0 -39 8t-31.5 21.5t-21.5 31t-8 37.5q0 42 29 71t71 29q20 0 38 -8t31.5 -21.5t21.5 -31.5t8 -39zM666 -532q-16 0 -30.5 6.5t-25 17t-16.5 24.5t-6 29t6 29.5t16.5 25
t25 17t30.5 6.5q31 0 53 -23.5t22 -54.5t-22 -54t-53 -23z" />
    <glyph glyph-name="pehinitialarabic" unicode="&#x67e;" horiz-adv-x="551" arabic-form="initial" 
d="M0 0v197h193q11 0 23 2.5t21.5 10t16 20.5t6.5 34v416h197v-420q0 -58 -19.5 -105.5t-54 -82t-82 -53.5t-104.5 -19h-197zM227 -260q0 -20 -7.5 -37.5t-21 -31t-31 -21.5t-38.5 -8t-39 8t-31.5 21.5t-21.5 31t-8 37.5t8 38t21.5 32t31.5 22t39 8q42 0 70 -29t28 -71z
M457 -260q0 -20 -7.5 -37.5t-21 -31t-31.5 -21.5t-39 -8t-39 8t-31.5 21.5t-21.5 31t-8 37.5t8 38t21.5 32t31.5 22t39 8t39 -8t31.5 -21.5t21 -31.5t7.5 -39zM322 -455q0 -31 -23.5 -54t-54.5 -23t-54.5 23t-23.5 54t23.5 54.5t54.5 23.5t54.5 -23.5t23.5 -54.5z" />
    <glyph glyph-name="pehmedialarabic" unicode="&#x67e;" horiz-adv-x="528" arabic-form="medial" 
d="M0 0v197h260v483h197v-483h80v-197h-537zM227 -260q0 -20 -7.5 -37.5t-21 -31t-31 -21.5t-38.5 -8t-39 8t-31.5 21.5t-21.5 31t-8 37.5t8 38t21.5 32t31.5 22t39 8q42 0 70 -29t28 -71zM457 -260q0 -20 -7.5 -37.5t-21 -31t-31.5 -21.5t-39 -8t-39 8t-31.5 21.5t-21.5 31
t-8 37.5t8 38t21.5 32t31.5 22t39 8t39 -8t31.5 -21.5t21 -31.5t7.5 -39zM322 -455q0 -31 -23.5 -54t-54.5 -23t-54.5 23t-23.5 54t23.5 54.5t54.5 23.5t54.5 -23.5t23.5 -54.5z" />
    <glyph glyph-name="ttehfinalarabic" unicode="&#x679;" horiz-adv-x="1305" arabic-form="final" 
d="M362 0q-59 0 -108 18t-84 51.5t-54.5 81.5t-19.5 109v168l195 127v-285q0 -29 12.5 -51t52.5 -22h680v483h197v-483h82v-197h-953zM778 936q0 8 -3.5 16.5t-14.5 8.5q-5 0 -9 -0.5t-8 -4.5l-77 -28q-23 -6 -23 -31v-31h109q12 0 19 7t7 18v45zM643 782v-30l-84 -43v73
h-98l35 84h63v264h84v-120l94 32q8 4 17 6.5t18 2.5q38 0 64 -26t26 -64v-103q0 -20 -8 -34.5t-21 -23.5t-29 -13.5t-32 -4.5h-129z" />
    <glyph glyph-name="ttehinitialarabic" unicode="&#x679;" horiz-adv-x="551" arabic-form="initial" 
d="M371 991q0 8 -4 16.5t-15 8.5q-5 0 -8 -0.5t-8 -3.5l-76 -29q-24 -6 -24 -31v-30h110q11 0 18 6.5t7 17.5v45zM236 838v-31l-84 -43v74h-97l33 84h64v264h84v-121l94 33l17 5.5t18 2.5q38 0 65 -26t27 -64v-103q0 -20 -8.5 -34t-21.5 -23t-29.5 -13.5t-32.5 -4.5h-129z
M0 0v197h193q11 0 23 2.5t21.5 10t16 20.5t6.5 34v416h197v-420q0 -58 -19.5 -105.5t-54 -82t-82 -53.5t-104.5 -19h-197z" />
    <glyph glyph-name="ttehmedialarabic" unicode="&#x679;" horiz-adv-x="528" arabic-form="medial" 
d="M0 0v197h260v483h197v-483h80v-197h-537zM371 991q0 8 -4 16.5t-15 8.5q-5 0 -8 -0.5t-8 -3.5l-76 -29q-24 -6 -24 -31v-30h110q11 0 18 6.5t7 17.5v45zM236 838v-31l-84 -43v74h-97l33 84h64v264h84v-121l94 33l17 5.5t18 2.5q38 0 65 -26t27 -64v-103q0 -20 -8.5 -34
t-21.5 -23t-29.5 -13.5t-32.5 -4.5h-129z" />
    <glyph glyph-name="vehfinalarabic" unicode="&#x6a4;" horiz-adv-x="1305" arabic-form="final" 
d="M362 0q-59 0 -108 18t-84 51.5t-54.5 81.5t-19.5 109v168l195 127v-285q0 -29 12.5 -51t52.5 -22h322v221q0 47 15.5 93.5t48 84t82.5 61t120 23.5h289v-483h82v-197h-953zM840 782q-20 0 -38.5 8t-32.5 21.5t-22 32t-8 39.5q0 20 8 37.5t22 31t32.5 21.5t38.5 8t37.5 -8
t31 -21.5t21.5 -31t8 -37.5q0 -21 -7.5 -39.5t-21 -32t-31 -21.5t-38.5 -8zM1069 782q-20 0 -38 8t-32 21.5t-22 32t-8 39.5q0 20 8 37.5t22 31t32 21.5t38 8q21 0 38.5 -8t31 -21.5t21 -31t7.5 -37.5q0 -21 -7.5 -39.5t-21 -32t-31 -21.5t-38.5 -8zM1030 1077
q0 -32 -23 -55t-55 -23q-31 0 -53 22.5t-22 53.5q0 32 22 55t53 23q16 0 30.5 -6t25 -16.5t16.5 -24.5t6 -29zM1036 483h-100q-32 0 -47 -20.5t-15 -48.5v-217h162v286z" />
    <glyph glyph-name="vehinitialarabic" unicode="&#x6a4;" horiz-adv-x="803" arabic-form="initial" 
d="M414 883q0 -21 -8 -39.5t-21.5 -32t-32 -21.5t-39.5 -8q-20 0 -37.5 8t-31 21.5t-21.5 32t-8 39.5q0 20 8 37.5t21.5 31t31 21.5t37.5 8q21 0 39.5 -8t32 -21.5t21.5 -31t8 -37.5zM643 883q0 -21 -8 -39.5t-21.5 -32t-31.5 -21.5t-39 -8q-20 0 -38 8t-31.5 21.5t-21.5 32
t-8 39.5q0 20 8 37.5t21.5 31t31.5 21.5t38 8q21 0 39 -8t31.5 -21.5t21.5 -31t8 -37.5zM506 1077q0 -32 -23 -55t-55 -23q-31 0 -54.5 22.5t-23.5 53.5q0 16 6.5 30.5t17 25t25 16.5t29.5 6q16 0 30.5 -6t25 -16.5t16.5 -24.5t6 -29zM0 0v197h154v221q0 47 15 93.5t47 84
t82 61t120 23.5h291v-420q0 -58 -19 -105.5t-53.5 -82t-83 -53.5t-107.5 -19h-446zM512 483h-100q-34 0 -48 -20.5t-14 -48.5v-217h96q31 0 48.5 16.5t17.5 56.5v213z" />
    <glyph glyph-name="vehmedialarabic" unicode="&#x6a4;" horiz-adv-x="780" arabic-form="medial" 
d="M0 0v197h154v221q0 47 15 93.5t47 84t82 61t120 23.5h291v-483h79v-197h-788zM414 883q0 -21 -8 -39.5t-21.5 -32t-32 -21.5t-39.5 -8q-20 0 -37.5 8t-31 21.5t-21.5 32t-8 39.5q0 20 8 37.5t21.5 31t31 21.5t37.5 8q21 0 39.5 -8t32 -21.5t21.5 -31t8 -37.5zM643 883
q0 -21 -8 -39.5t-21.5 -32t-31.5 -21.5t-39 -8q-20 0 -38 8t-31.5 21.5t-21.5 32t-8 39.5q0 20 8 37.5t21.5 31t31.5 21.5t38 8q21 0 39 -8t31.5 -21.5t21.5 -31t8 -37.5zM506 1077q0 -32 -23 -55t-55 -23q-31 0 -54.5 22.5t-23.5 53.5q0 16 6.5 30.5t17 25t25 16.5t29.5 6
q16 0 30.5 -6t25 -16.5t16.5 -24.5t6 -29zM512 483h-100q-34 0 -48 -20.5t-14 -48.5v-217h162v286z" />
    <glyph glyph-name="tchehfinalarabic" unicode="&#x686;" horiz-adv-x="860" arabic-form="final" 
d="M614 -193q0 -29 -21 -50t-50 -21q-15 0 -28 5.5t-22.5 15.5t-15.5 23t-6 27q0 31 21.5 51.5t50.5 20.5t50 -20.5t21 -51.5zM793 -193q0 -14 -6 -27t-15.5 -23t-22.5 -15.5t-28 -5.5t-28 5.5t-22.5 15.5t-15.5 23t-6 27q0 31 21.5 51.5t50.5 20.5t50.5 -20.5t21.5 -51.5z
M688 -332q0 -23 -17 -40t-40 -17t-39.5 17t-16.5 40t16.5 40.5t39.5 17.5t40 -17.5t17 -40.5zM379 0q-16 0 -31.5 -5t-27.5 -15t-19.5 -25t-7.5 -35q0 -21 8 -36.5t21 -25.5t29.5 -15t33.5 -5h18l-120 -180q-43 16 -77.5 43.5t-59 63t-37.5 76t-13 83.5q0 61 21 111t60 86
t93.5 56t122.5 20h201v221q0 31 -19 48t-45 17h-294v197h292q58 0 106 -20t82.5 -55t53 -83t18.5 -104v-221h82v-197h-491z" />
    <glyph glyph-name="tchehinitialarabic" unicode="&#x686;" horiz-adv-x="805" arabic-form="initial" 
d="M266 -360q-20 0 -38 8t-32 21.5t-22 31.5t-8 39q0 20 8 37.5t22 31t32 21.5t38 8t38 -8t31.5 -21.5t21.5 -31t8 -37.5q0 -21 -7.5 -39t-21 -31.5t-31.5 -21.5t-39 -8zM496 -360q-20 0 -38.5 8t-32.5 21.5t-22 31.5t-8 39q0 20 8 37.5t22 31t32.5 21.5t38.5 8
q21 0 38.5 -8t31 -21.5t21 -31t7.5 -37.5q0 -42 -28 -71t-70 -29zM459 -457q0 -31 -23.5 -53t-54.5 -22t-54.5 22t-23.5 53q0 16 6.5 30.5t17 25t25 16.5t29.5 6t29.5 -6t25 -16.5t17 -25t6.5 -30.5zM0 0v197h451q26 0 44.5 16t18.5 51v154q0 31 -18.5 48t-44.5 17h-295v197
h295q57 0 104.5 -20t81.5 -55t53 -83t19 -104v-158q0 -57 -18.5 -104.5t-53.5 -82t-84.5 -54t-110.5 -19.5h-442z" />
    <glyph glyph-name="tchehmedialarabic" unicode="&#x686;" horiz-adv-x="780" arabic-form="medial" 
d="M0 0v197h514v221q0 31 -18.5 48t-44.5 17h-295v197h295q57 0 104.5 -20t81.5 -55t53 -83t19 -104v-221h82v-197h-791zM266 -360q-20 0 -38 8t-32 21.5t-22 31.5t-8 39q0 20 8 37.5t22 31t32 21.5t38 8t38 -8t31.5 -21.5t21.5 -31t8 -37.5q0 -21 -7.5 -39t-21 -31.5
t-31.5 -21.5t-39 -8zM496 -360q-20 0 -38.5 8t-32.5 21.5t-22 31.5t-8 39q0 20 8 37.5t22 31t32.5 21.5t38.5 8q21 0 38.5 -8t31 -21.5t21 -31t7.5 -37.5q0 -42 -28 -71t-70 -29zM459 -457q0 -31 -23.5 -53t-54.5 -22t-54.5 22t-23.5 53q0 16 6.5 30.5t17 25t25 16.5t29.5 6
t29.5 -6t25 -16.5t17 -25t6.5 -30.5z" />
    <glyph glyph-name="ddalfinalarabic" unicode="&#x688;" horiz-adv-x="756" arabic-form="final" 
d="M96 0v197h393v120q0 36 -10 66.5t-31 52.5t-54 34.5t-79 12.5h-102v197h115q90 0 157.5 -30.5t112 -81.5t66.5 -118.5t22 -142.5v-110h78v-197h-668zM520 991q0 10 -3.5 17.5t-14.5 7.5q-13 0 -17 -2l-77 -29q-11 -5 -17 -11.5t-6 -19.5v-34h109q11 0 18.5 8.5t7.5 19.5
v43zM385 838v-31l-86 -41v72h-96l35 82h61v268h86v-125l94 37q15 6 35 6q37 0 63.5 -25t26.5 -65v-103q0 -19 -8 -33t-21 -23.5t-29 -14t-32 -4.5h-129z" />
    <glyph glyph-name="jehfinalarabic" unicode="&#x698;" horiz-adv-x="580" arabic-form="final" 
d="M182 782q-21 0 -39 8t-31.5 21.5t-21.5 32t-8 39.5q0 20 8 37.5t21.5 31t31.5 21.5t39 8q20 0 38 -8t31.5 -21.5t21.5 -31t8 -37.5q0 -21 -8 -39.5t-21.5 -32t-31.5 -21.5t-38 -8zM412 782q-21 0 -39.5 8t-32 21.5t-21.5 32t-8 39.5q0 20 8 37.5t21.5 31t32 21.5t39.5 8
q20 0 37.5 -8t31 -21.5t21.5 -31t8 -37.5q0 -21 -8 -39.5t-21.5 -32t-31 -21.5t-37.5 -8zM297 999q-16 0 -30.5 6t-25 16.5t-16.5 24.5t-6 29q0 32 23 55t55 23q31 0 53.5 -22.5t22.5 -53.5q0 -16 -6 -30.5t-16.5 -25t-24.5 -16.5t-29 -6zM133 -180q64 15 100 37.5t54 49.5
t22 57t4 59v657h195v-483h82v-197h-82v-39q0 -55 -12 -99.5t-39.5 -82.5t-73.5 -71.5t-115 -65.5z" />
    <glyph glyph-name="rrehfinalarabic" unicode="&#x691;" horiz-adv-x="547" arabic-form="final" 
d="M98 -180q64 15 100 37.5t54 49.5t22.5 57t4.5 59v657h196v-483h82v-197h-82v-39q0 -55 -12 -99.5t-40 -82.5t-74.5 -71.5t-115.5 -65.5zM389 991q0 8 -3.5 16.5t-14.5 8.5q-5 0 -8.5 -0.5t-8.5 -3.5l-78 -29q-22 -6 -22 -31v-30h111q11 0 17.5 6.5t6.5 17.5v45zM254 838
v-31l-84 -43v74h-96l32 84h64v264h84v-121l94 33q9 3 17.5 5.5t17.5 2.5q18 0 35 -7t29.5 -19t20 -28.5t7.5 -35.5v-103q0 -20 -8 -34t-21 -23t-29 -13.5t-32 -4.5h-131z" />
    <glyph glyph-name="kehehfinalarabic" unicode="&#x6a9;" horiz-adv-x="1305" arabic-form="final" 
d="M362 0q-59 0 -108 18t-84 51.5t-54.5 81.5t-19.5 109v168l195 127v-285q0 -29 12.5 -51t52.5 -22h680v217q0 32 -17.5 50.5t-43.5 18.5h-375v211q0 54 17.5 101.5t51 83.5t82.5 56.5t113 20.5h275v-165h-281q-51 0 -72.5 -26.5t-21.5 -68.5v-16h211q51 0 98 -17.5
t82.5 -51t56.5 -82.5t21 -111v-221h82v-197h-953z" />
    <glyph glyph-name="kehehinitialarabic" unicode="&#x6a9;" horiz-adv-x="885" arabic-form="initial" 
d="M0 0v197h530q64 0 64 67v150q0 32 -18 50.5t-44 18.5h-376v211q0 54 17.5 101.5t51 83.5t83 56.5t114.5 20.5h272v-165h-280q-51 0 -73 -26.5t-22 -68.5v-16h213q51 0 98 -17.5t82.5 -51t57 -82.5t21.5 -111v-158q0 -60 -20.5 -108t-56.5 -82t-85 -52t-107 -18h-522z" />
    <glyph glyph-name="kehehmedialarabic" unicode="&#x6a9;" horiz-adv-x="862" arabic-form="medial" 
d="M0 0v197h594v217q0 32 -18 50.5t-44 18.5h-376v211q0 54 17.5 101.5t51 83.5t83 56.5t114.5 20.5h272v-165h-280q-51 0 -73 -26.5t-22 -68.5v-16h213q51 0 98 -17.5t82.5 -51t57 -82.5t21.5 -111v-221h81v-197h-872z" />
    <glyph glyph-name="gaffinalarabic" unicode="&#x6af;" horiz-adv-x="1305" arabic-form="final" 
d="M862 1061q-34 0 -67 -4.5t-66 -15.5t-65.5 -31.5t-63.5 -51.5v166q23 32 51.5 52t60.5 31t67 14.5t73 3.5h287v-164h-277zM362 0q-59 0 -108 18t-84 51.5t-54.5 81.5t-19.5 109v168l195 127v-285q0 -29 12.5 -51t52.5 -22h680v217q0 32 -17.5 50.5t-43.5 18.5h-375v211
q0 54 17.5 101.5t51 83.5t82.5 56.5t113 20.5h275v-165h-281q-51 0 -72.5 -26.5t-21.5 -68.5v-16h211q51 0 98 -17.5t82.5 -51t56.5 -82.5t21 -111v-221h82v-197h-953z" />
    <glyph glyph-name="gafinitialarabic" unicode="&#x6af;" horiz-adv-x="885" arabic-form="initial" 
d="M0 0v197h530q64 0 64 67v150q0 32 -18 50.5t-44 18.5h-376v211q0 54 17.5 101.5t51 83.5t83 56.5t114.5 20.5h272v-165h-280q-51 0 -73 -26.5t-22 -68.5v-16h213q51 0 98 -17.5t82.5 -51t57 -82.5t21.5 -111v-158q0 -60 -20.5 -108t-56.5 -82t-85 -52t-107 -18h-522z
M418 1061q-34 0 -67 -4.5t-66 -15.5t-65.5 -31.5t-63.5 -51.5v166q23 32 51 52t60 31t67.5 14.5t73.5 3.5h286v-164h-276z" />
    <glyph glyph-name="gafmedialarabic" unicode="&#x6af;" horiz-adv-x="862" arabic-form="medial" 
d="M418 1061q-34 0 -67 -4.5t-66 -15.5t-65.5 -31.5t-63.5 -51.5v166q23 32 51 52t60 31t67.5 14.5t73.5 3.5h286v-164h-276zM0 0v197h594v217q0 32 -18 50.5t-44 18.5h-376v211q0 54 17.5 101.5t51 83.5t83 56.5t114.5 20.5h272v-165h-280q-51 0 -73 -26.5t-22 -68.5v-16
h213q51 0 98 -17.5t82.5 -51t57 -82.5t21.5 -111v-221h81v-197h-872z" />
    <glyph glyph-name="noonghunnafinalarabic" unicode="&#x6ba;" horiz-adv-x="1079" arabic-form="final" 
d="M1008 0q0 -64 -19 -116t-52.5 -92.5t-78 -70t-95 -48.5t-104.5 -28.5t-106 -9.5q-84 0 -165.5 21.5t-146.5 66.5t-105 115t-40 168v299l195 129v-393q0 -59 24 -98.5t62 -63.5t84 -34.5t90 -10.5q45 0 91.5 10.5t84.5 35t62 64t24 97.5v639h195v-483h82v-197h-82z" />
    <glyph glyph-name="hehyehabovefinalarabic" unicode="&#x6c0;" horiz-adv-x="723" arabic-form="final" 
d="M455 483h-101q-24 0 -42.5 -17t-18.5 -52v-154q0 -26 15 -44.5t46 -18.5h101v286zM455 0v121l-95 -121q-61 0 -110 20t-83 55.5t-52.5 83.5t-18.5 105v154q0 57 19 105.5t53 83t82 54t106 19.5h293v-483h82v-197h-276zM236 782v84h53q-3 11 -5.5 23t-2.5 24q0 57 37 92
t102 35h47v-84h-49q-22 0 -39 -9.5t-17 -35.5q0 -45 58 -45h86v-84h-270z" />
    <glyph glyph-name="hehgoalfinalarabic" unicode="&#x6c1;" horiz-adv-x="1190" arabic-form="final" 
d="M1161 -2q-49 0 -92.5 20t-76 54.5t-51.5 79.5t-19 96v219q-77 -12 -120 -51.5t-63.5 -92.5t-25 -113.5t-4.5 -113.5q0 -21 1 -48.5t3 -47.5h-84q-109 0 -206.5 24.5t-170.5 75.5t-115.5 130.5t-42.5 189.5q0 20 1 45.5t3 44.5l201 137q-6 -63 -8 -111.5t-2 -76.5
q0 -48 14 -93t42.5 -79.5t72 -56t102.5 -23.5q6 114 49.5 202t113 149t160 92.5t191.5 31.5h38t44 -2v-416q0 -31 17.5 -49t48.5 -18h16v-199h-37z" />
    <glyph glyph-name="hehgoalinitialarabic" unicode="&#x6c1;" horiz-adv-x="698" arabic-form="initial" 
d="M223 -164q-6 -6 -11 -13t-5 -18q0 -7 3 -12l7 -11.5t7 -15.5t3 -24q0 -42 -27.5 -71t-70.5 -29q-42 0 -70 28t-28 70q0 21 7 36.5t18.5 28.5t24.5 25t25 25l146 145h-252v197h342q31 0 48.5 16t17.5 51v416h196v-420q0 -46 -14 -89t-41.5 -77.5t-67.5 -58.5t-92 -33z" />
    <glyph glyph-name="hehgoalmedialarabic" unicode="&#x6c1;" horiz-adv-x="797" arabic-form="medial" 
d="M776 0q-25 0 -40 -6t-15 -37q-1 -64 -17.5 -122t-51 -102.5t-86.5 -71t-124 -26.5q-62 0 -112 22.5t-85.5 62.5t-55.5 95.5t-21 121.5q-1 19 -3 31.5t-7 19.5t-15 9.5t-26 2.5h-117v197h117q75 0 122.5 -20t75 -55.5t37.5 -84.5t10 -107q0 -46 20 -71t60 -25
q39 0 59.5 25t20.5 71q0 56 11 105t38 85t73 56.5t116 20.5h47v-197h-31z" />
    <glyph glyph-name="hehdoachasmeefinalarabic" unicode="&#x6be;" horiz-adv-x="956" arabic-form="final" 
d="M436 248q0 28 -18.5 46.5t-44.5 18.5t-45 -19.5t-19 -45.5t19 -45t45 -19t44.5 19t18.5 45zM436 0q-17 0 -32.5 5.5t-30.5 21.5q-14 -16 -29 -21.5t-37 -5.5h-307v197h164q-6 27 -6 55q0 36 14.5 73t42 67.5t67.5 49.5t91 19q49 0 88.5 -19t67 -49.5t42.5 -67.5t15 -73
q0 -28 -6 -55h108v221q0 65 -67 65h-465v197h460q61 0 110.5 -19t84.5 -53.5t54.5 -82.5t19.5 -107v-221h82v-197h-531z" />
    <glyph glyph-name="hehdoachasmeeinitialarabic" unicode="&#x6be;" horiz-adv-x="981" arabic-form="initial" 
d="M436 248q0 28 -18.5 46.5t-44.5 18.5t-45 -19.5t-19 -45.5t19 -45t45 -19t44.5 19t18.5 45zM436 0q-17 0 -32.5 5.5t-30.5 21.5q-14 -16 -29 -21.5t-37 -5.5h-307v197h164q-6 27 -6 55q0 36 14.5 73t42 67.5t67.5 49.5t91 19q49 0 88.5 -19t67 -49.5t42.5 -67.5t15 -73
q0 -28 -6 -55h43q20 0 32.5 6.5t20 16t10 20.5t2.5 20v158q0 65 -67 65h-465v197h460q61 0 110.5 -19t84.5 -53.5t54.5 -82.5t19.5 -107v-158q0 -54 -18.5 -101t-51 -82.5t-77.5 -56t-99 -20.5h-203z" />
    <glyph glyph-name="hehdoachasmeemedialarabic" unicode="&#x6be;" horiz-adv-x="956" arabic-form="medial" 
d="M436 248q0 28 -18.5 46.5t-44.5 18.5t-45 -19.5t-19 -45.5t19 -45t45 -19t44.5 19t18.5 45zM436 0q-17 0 -32.5 5.5t-30.5 21.5q-14 -16 -29 -21.5t-37 -5.5h-307v197h164q-6 27 -6 55q0 36 14.5 73t42 67.5t67.5 49.5t91 19q49 0 88.5 -19t67 -49.5t42.5 -67.5t15 -73
q0 -28 -6 -55h108v221q0 65 -67 65h-465v197h460q61 0 110.5 -19t84.5 -53.5t54.5 -82.5t19.5 -107v-221h82v-197h-531z" />
    <glyph glyph-name="yehbarreefinalarabic" unicode="&#x6d2;" horiz-adv-x="1518" arabic-form="final" 
d="M387 -358q-67 0 -120.5 21.5t-91.5 59t-58.5 89t-20.5 110.5q0 61 22 112t61 87t91.5 56t114.5 20h1141v-197h-1141q-42 0 -67 -23.5t-25 -58.5q0 -21 8 -36t20.5 -24.5t29 -14.5t34.5 -5h1079l-131 -196h-946z" />
    <glyph glyph-name="yehbarreehamzaabovefinalarabic" unicode="&#x6d3;" horiz-adv-x="1518" arabic-form="final" 
d="M387 -358q-67 0 -120.5 21.5t-91.5 59t-58.5 89t-20.5 110.5q0 61 22 112t61 87t91.5 56t114.5 20h1141v-197h-1141q-42 0 -67 -23.5t-25 -58.5q0 -21 8 -36t20.5 -24.5t29 -14.5t34.5 -5h1079l-131 -196h-946zM369 299v84h53q-3 11 -5.5 23t-2.5 24q0 57 37 92t102 35
h47v-84h-49q-22 0 -38.5 -9.5t-16.5 -35.5q0 -45 57 -45h86v-84h-270z" />
    <glyph glyph-name="alefmaksurainitialarabic" unicode="&#x649;" horiz-adv-x="551" arabic-form="initial" 
d="M0 0v197h193q11 0 23 2.5t21.5 10t16 20.5t6.5 34v416h197v-420q0 -58 -19.5 -105.5t-54 -82t-82 -53.5t-104.5 -19h-197z" />
    <glyph glyph-name="alefmaksuramedialarabic" unicode="&#x649;" horiz-adv-x="528" arabic-form="medial" 
d="M0 0v197h260v483h197v-483h80v-197h-537z" />
    <glyph glyph-name="yehfinalfarsi" unicode="&#x6cc;" horiz-adv-x="1081" arabic-form="final" 
d="M1008 0v-18q0 -74 -34.5 -137.5t-95.5 -110t-144.5 -73t-180.5 -26.5q-79 0 -160.5 20.5t-147.5 65t-107.5 115.5t-41.5 172v297l195 129v-393q0 -59 24.5 -99t62.5 -64t84 -34t89 -10q40 0 82.5 9t79.5 28.5t63 51.5t33 77h-137v197h418v-197h-82z" />
    <glyph glyph-name="yehinitialfarsi" unicode="&#x6cc;" horiz-adv-x="551" arabic-form="initial" 
d="M227 -260q0 -20 -7.5 -37.5t-21 -31t-31 -21.5t-38.5 -8t-39 8t-31.5 21.5t-21.5 31t-8 37.5t8 38t21.5 32t31.5 22t39 8q42 0 70 -29t28 -71zM457 -260q0 -20 -7.5 -37.5t-21 -31t-31.5 -21.5t-39 -8t-39 8t-31.5 21.5t-21.5 31t-8 37.5t8 38t21.5 32t31.5 22t39 8
t39 -8t31.5 -21.5t21 -31.5t7.5 -39zM0 0v197h193q11 0 23 2.5t21.5 10t16 20.5t6.5 34v416h197v-420q0 -58 -19.5 -105.5t-54 -82t-82 -53.5t-104.5 -19h-197z" />
    <glyph glyph-name="yehmedialfarsi" unicode="&#x6cc;" horiz-adv-x="528" arabic-form="medial" 
d="M0 0v197h260v483h197v-483h80v-197h-537zM227 -260q0 -20 -7.5 -37.5t-21 -31t-31 -21.5t-38.5 -8t-39 8t-31.5 21.5t-21.5 31t-8 37.5t8 38t21.5 32t31.5 22t39 8q42 0 70 -29t28 -71zM457 -260q0 -20 -7.5 -37.5t-21 -31t-31.5 -21.5t-39 -8t-39 8t-31.5 21.5t-21.5 31
t-8 37.5t8 38t21.5 32t31.5 22t39 8t39 -8t31.5 -21.5t21 -31.5t7.5 -39z" />
    <glyph glyph-name="shaddadammatanarabic" unicode="&#xfc5e;" arabic-form="isolated" 
d="M395 1503l-37 33l-82 -59q-12 -10 -28.5 -19.5t-32.5 -9.5q-22 0 -49 31l-49 61l-41 -82l-76 35l41 80q15 29 31.5 46t48.5 17q25 0 42 -17t36 -40q5 -8 13 -19.5t19 -11.5q7 0 12.5 4t10.5 9l45 32q-20 23 -33.5 45.5t-13.5 53.5q0 26 9.5 48.5t26 39t38.5 26t47 9.5
q26 0 48 -10.5t38.5 -27.5t25.5 -40t9 -47q0 -32 -15.5 -54t-50.5 -51l33 -33zM369 1640q18 14 29.5 27t11.5 27q0 15 -11 27t-26 12q-17 0 -28 -11t-11 -28t12 -30zM135 1061q-28 0 -45.5 7.5t-28 19.5t-14.5 27t-4 30v174h84v-156q0 -9 3.5 -13.5t19.5 -4.5h53v174h84
v-174h55q11 0 17 3t6 15v156h84v-174q0 -37 -22.5 -60.5t-70.5 -23.5h-221z" />
    <glyph glyph-name="shaddakasratanarabic" unicode="&#xfc5f;" arabic-form="isolated" 
d="M70 1231v84h268v-84h-268zM70 1061v84h268v-84h-268zM92 1446q-28 0 -45.5 8t-28 20.5t-14.5 27.5t-4 30v172h84v-156q0 -9 3.5 -14.5t18.5 -5.5h54v176h86v-176h53q11 0 17 4t6 16v156h84v-172q0 -40 -22.5 -63t-70.5 -23h-221z" />
    <glyph glyph-name="shaddafathaarabic" unicode="&#xfc60;" arabic-form="isolated" 
d="M70 1450v82h268v-82h-268zM92 1061q-28 0 -45.5 7.5t-28 19.5t-14.5 27t-4 30v174h84v-156q0 -9 3.5 -13.5t18.5 -4.5h54v174h86v-174h53q11 0 17 3t6 15v156h84v-174q0 -37 -22.5 -60.5t-70.5 -23.5h-221z" />
    <glyph glyph-name="shaddadammaarabic" unicode="&#xfc61;" arabic-form="isolated" 
d="M266 1661q16 11 28.5 23t12.5 32q0 16 -11.5 26.5t-25.5 10.5q-15 0 -27 -10.5t-12 -26.5q0 -14 8.5 -25t26.5 -30zM295 1524l-39 35q-48 -36 -99 -62.5t-110 -48.5l-35 70q50 18 96.5 42.5t90.5 53.5q-22 25 -35.5 48.5t-13.5 55.5q0 25 10 46.5t26.5 37.5t38 25.5
t45.5 9.5q25 0 47 -9.5t38.5 -25.5t26 -37.5t9.5 -46.5q0 -71 -65 -110l32 -33zM92 1061q-28 0 -45.5 7.5t-28 19.5t-14.5 27t-4 30v174h84v-156q0 -9 3.5 -13.5t18.5 -4.5h54v174h86v-174h53q11 0 17 3t6 15v156h84v-174q0 -37 -22.5 -60.5t-70.5 -23.5h-221z" />
    <glyph glyph-name="shaddakasraarabic" unicode="&#xfc62;" arabic-form="isolated" 
d="M70 1061v84h268v-84h-268zM92 1274q-28 0 -45.5 8t-28 20.5t-14.5 27.5t-4 30v172h84v-154q0 -9 3.5 -13.5t18.5 -4.5h54v172h86v-172h53q11 0 17 2t6 16v154h84v-172q0 -37 -22.5 -61.5t-70.5 -24.5h-221z" />
    <glyph glyph-name="shaddasuperscriptalef" unicode="&#xfc63;" arabic-form="isolated" 
d="M160 1448v317h84v-317h-84zM92 1061q-28 0 -45.5 7.5t-28 19.5t-14.5 27t-4 30v174h84v-156q0 -9 3.5 -13.5t18.5 -4.5h54v174h86v-174h53q11 0 17 3t6 15v156h84v-174q0 -37 -22.5 -60.5t-70.5 -23.5h-221z" />
    <glyph glyph-name="alefmaddaabovefinalarabic" unicode="&#x622;" horiz-adv-x="369" arabic-form="final" 
d="M338 0q-56 0 -100.5 21t-76 56t-48.5 81t-17 96v702h195v-694q0 -34 18 -49.5t47 -15.5h17v-197h-35zM313 1085q-11 -11 -24 -17.5t-29 -6.5q-18 0 -35 8t-32 17.5l-28 17.5t-22 8q-8 0 -13.5 -4.5t-10.5 -9.5l-39 -37l-60 59l43 43q16 16 32 27.5t36 11.5q17 0 34 -8.5
t32.5 -18l29 -18t23.5 -8.5t24 14l39 39l58 -57z" />
    <glyph glyph-name="alefhamzaabovefinalarabic" unicode="&#x623;" horiz-adv-x="365" arabic-form="final" 
d="M338 0q-56 0 -100.5 21t-76 56t-48.5 81t-17 96v702h195v-694q0 -34 18 -49.5t47 -15.5h17v-197h-35zM57 1061v84h54q-4 11 -6.5 23t-2.5 24q0 57 37.5 92t102.5 35h47v-84h-49q-22 0 -39 -9.5t-17 -35.5q0 -45 58 -45h86v-84h-271z" />
    <glyph glyph-name="wawhamzaabovefinalarabic" unicode="&#x624;" horiz-adv-x="723" arabic-form="final" 
d="M455 483h-101q-31 0 -46 -18.5t-15 -44.5v-156q0 -28 14.5 -47.5t48.5 -19.5h99v286zM649 0v-8q0 -72 -17 -134t-59.5 -108.5t-116 -75t-186.5 -32.5l-125 174q64 -2 120.5 7.5t98.5 30t66.5 53.5t24.5 79v14h-95q-63 0 -112 21t-82.5 57t-51.5 83t-18 99v158
q0 54 18 101.5t51.5 83t82.5 56.5t112 21h289v-483h82v-197h-82zM236 782v84h53q-3 11 -5.5 23t-2.5 24q0 57 37 92t102 35h47v-84h-49q-22 0 -39 -9.5t-17 -35.5q0 -45 58 -45h86v-84h-270z" />
    <glyph glyph-name="alefhamzabelowfinalarabic" unicode="&#x625;" horiz-adv-x="365" arabic-form="final" 
d="M338 0q-56 0 -100.5 21t-76 56t-48.5 81t-17 96v702h195v-694q0 -34 18 -49.5t47 -15.5h17v-197h-35zM37 -358v84h53q-3 11 -5.5 22.5t-2.5 24.5q0 57 37 92t102 35h47v-84h-49q-22 0 -38.5 -9.5t-16.5 -35.5q0 -45 57 -45h86v-84h-270z" />
    <glyph glyph-name="yehhamzaabovefinalarabic" unicode="&#x626;" horiz-adv-x="1081" arabic-form="final" 
d="M1008 0v-18q0 -74 -34.5 -137.5t-95.5 -110t-144.5 -73t-180.5 -26.5q-79 0 -160.5 20.5t-147.5 65t-107.5 115.5t-41.5 172v297l195 129v-393q0 -59 24.5 -99t62.5 -64t84 -34t89 -10q40 0 82.5 9t79.5 28.5t63 51.5t33 77h-137v197h418v-197h-82zM55 553v84h54
q-4 11 -6.5 23t-2.5 24q0 57 37.5 92t102.5 35h47v-84h-49q-22 0 -39 -9.5t-17 -35.5q0 -45 58 -45h86v-84h-271z" />
    <glyph glyph-name="yehhamzaaboveinitialarabic" unicode="&#x626;" horiz-adv-x="551" arabic-form="initial" 
d="M0 0v197h193q11 0 23 2.5t21.5 10t16 20.5t6.5 34v416h197v-420q0 -58 -19.5 -105.5t-54 -82t-82 -53.5t-104.5 -19h-197zM186 782v84h54l-6 23t-3 24q0 57 37.5 92t102.5 35h47v-84h-49q-22 0 -39 -9.5t-17 -35.5q0 -45 58 -45h86v-84h-271z" />
    <glyph glyph-name="yehhamzaabovemedialarabic" unicode="&#x626;" horiz-adv-x="528" arabic-form="medial" 
d="M0 0v197h260v483h197v-483h80v-197h-537zM186 782v84h54l-6 23t-3 24q0 57 37.5 92t102.5 35h47v-84h-49q-22 0 -39 -9.5t-17 -35.5q0 -45 58 -45h86v-84h-271z" />
    <glyph glyph-name="aleffinalarabic" unicode="&#x627;" horiz-adv-x="365" arabic-form="final" 
d="M338 0q-56 0 -100.5 21t-76 56t-48.5 81t-17 96v702h195v-694q0 -34 18 -49.5t47 -15.5h17v-197h-35z" />
    <glyph glyph-name="behfinalarabic" unicode="&#x628;" horiz-adv-x="1305" arabic-form="final" 
d="M762 -260q0 -20 -8 -37.5t-21.5 -31t-31.5 -21.5t-39 -8q-20 0 -38.5 8t-32.5 21.5t-22 31t-8 37.5t8 38t22 32t32.5 22t38.5 8t38 -8t32 -21.5t22 -31.5t8 -39zM362 0q-59 0 -108 18t-84 51.5t-54.5 81.5t-19.5 109v168l195 127v-285q0 -29 12.5 -51t52.5 -22h680v483
h197v-483h82v-197h-953z" />
    <glyph glyph-name="behinitialarabic" unicode="&#x628;" horiz-adv-x="551" arabic-form="initial" 
d="M457 -260q0 -20 -8 -37.5t-21.5 -31t-32 -21.5t-39.5 -8q-20 0 -37.5 8t-31 21.5t-21.5 31t-8 37.5t8 38t21.5 32t31 22t37.5 8q21 0 39.5 -8t32 -21.5t21.5 -31.5t8 -39zM0 0v197h193q11 0 23 2.5t21.5 10t16 20.5t6.5 34v416h197v-420q0 -58 -19.5 -105.5t-54 -82
t-82 -53.5t-104.5 -19h-197z" />
    <glyph glyph-name="behmedialarabic" unicode="&#x628;" horiz-adv-x="528" arabic-form="medial" 
d="M0 0v197h260v483h197v-483h80v-197h-537zM457 -260q0 -20 -7.5 -37.5t-21 -31t-31.5 -21.5t-39 -8t-39 8t-31.5 21.5t-21.5 31t-8 37.5t8 38t21.5 32t31.5 22t39 8t39 -8t31.5 -21.5t21 -31.5t7.5 -39z" />
    <glyph glyph-name="tehmarbutafinalarabic" unicode="&#x629;" horiz-adv-x="723" arabic-form="final" 
d="M356 883q0 -21 -8 -39.5t-21.5 -32t-31.5 -21.5t-39 -8q-20 0 -37.5 8t-31 21.5t-21.5 32t-8 39.5q0 20 8 37.5t21.5 31t31 21.5t37.5 8q21 0 39 -8t31.5 -21.5t21.5 -31t8 -37.5zM586 883q0 -21 -8 -39.5t-21.5 -32t-32 -21.5t-39.5 -8q-20 0 -37.5 8t-31 21.5t-21.5 32
t-8 39.5q0 20 8 37.5t21.5 31t31 21.5t37.5 8q21 0 39.5 -8t32 -21.5t21.5 -31t8 -37.5zM455 483h-101q-24 0 -42.5 -17t-18.5 -52v-154q0 -26 15 -44.5t46 -18.5h101v286zM455 0v121l-95 -121q-61 0 -110 20t-83 55.5t-52.5 83.5t-18.5 105v154q0 57 19 105.5t53 83t82 54
t106 19.5h293v-483h82v-197h-276z" />
    <glyph glyph-name="tehfinalarabic" unicode="&#x62a;" horiz-adv-x="1305" arabic-form="final" 
d="M551 782q-21 0 -39 8t-31.5 21.5t-21.5 32t-8 39.5q0 20 8 37.5t21.5 31t31.5 21.5t39 8q20 0 37.5 -8t31 -21.5t21.5 -31t8 -37.5q0 -21 -8 -39.5t-21.5 -32t-31 -21.5t-37.5 -8zM780 782q-21 0 -39 8t-31.5 21.5t-21.5 32t-8 39.5q0 20 8 37.5t21.5 31t31.5 21.5t39 8
q20 0 38 -8t31.5 -21.5t21.5 -31t8 -37.5q0 -21 -8 -39.5t-21.5 -32t-31.5 -21.5t-38 -8zM362 0q-59 0 -108 18t-84 51.5t-54.5 81.5t-19.5 109v168l195 127v-285q0 -29 12.5 -51t52.5 -22h680v483h197v-483h82v-197h-953z" />
    <glyph glyph-name="tehinitialarabic" unicode="&#x62a;" horiz-adv-x="551" arabic-form="initial" 
d="M129 782q-21 0 -39 8t-31.5 21.5t-21.5 32t-8 39.5q0 20 8 37.5t21.5 31t31.5 21.5t39 8t38.5 -8t31 -21.5t21 -31t7.5 -37.5q0 -21 -7.5 -39.5t-21 -32t-31 -21.5t-38.5 -8zM358 782q-21 0 -39 8t-31.5 21.5t-21.5 32t-8 39.5q0 20 8 37.5t21.5 31t31.5 21.5t39 8t39 -8
t31.5 -21.5t21 -31t7.5 -37.5q0 -21 -7.5 -39.5t-21 -32t-31.5 -21.5t-39 -8zM0 0v197h193q11 0 23 2.5t21.5 10t16 20.5t6.5 34v416h197v-420q0 -58 -19.5 -105.5t-54 -82t-82 -53.5t-104.5 -19h-197z" />
    <glyph glyph-name="tehmedialarabic" unicode="&#x62a;" horiz-adv-x="528" arabic-form="medial" 
d="M0 0v197h260v483h197v-483h80v-197h-537zM129 782q-21 0 -39 8t-31.5 21.5t-21.5 32t-8 39.5q0 20 8 37.5t21.5 31t31.5 21.5t39 8t38.5 -8t31 -21.5t21 -31t7.5 -37.5q0 -21 -7.5 -39.5t-21 -32t-31 -21.5t-38.5 -8zM358 782q-21 0 -39 8t-31.5 21.5t-21.5 32t-8 39.5
q0 20 8 37.5t21.5 31t31.5 21.5t39 8t39 -8t31.5 -21.5t21 -31t7.5 -37.5q0 -21 -7.5 -39.5t-21 -32t-31.5 -21.5t-39 -8z" />
    <glyph glyph-name="thehfinalarabic" unicode="&#x62b;" horiz-adv-x="1305" arabic-form="final" 
d="M551 782q-21 0 -39 8t-31.5 21.5t-21.5 32t-8 39.5q0 20 8 37.5t21.5 31t31.5 21.5t39 8q20 0 37.5 -8t31 -21.5t21.5 -31t8 -37.5q0 -21 -8 -39.5t-21.5 -32t-31 -21.5t-37.5 -8zM780 782q-21 0 -39 8t-31.5 21.5t-21.5 32t-8 39.5q0 20 8 37.5t21.5 31t31.5 21.5t39 8
q20 0 38 -8t31.5 -21.5t21.5 -31t8 -37.5q0 -21 -8 -39.5t-21.5 -32t-31.5 -21.5t-38 -8zM666 999q-16 0 -30.5 6t-25 16.5t-16.5 24.5t-6 29q0 32 23 55t55 23q31 0 53 -22.5t22 -53.5q0 -32 -22 -55t-53 -23zM362 0q-59 0 -108 18t-84 51.5t-54.5 81.5t-19.5 109v168
l195 127v-285q0 -29 12.5 -51t52.5 -22h680v483h197v-483h82v-197h-953z" />
    <glyph glyph-name="thehinitialarabic" unicode="&#x62b;" horiz-adv-x="551" arabic-form="initial" 
d="M129 782q-21 0 -39 8t-31.5 21.5t-21.5 32t-8 39.5q0 20 8 37.5t21.5 31t31.5 21.5t39 8t38.5 -8t31 -21.5t21 -31t7.5 -37.5q0 -21 -7.5 -39.5t-21 -32t-31 -21.5t-38.5 -8zM358 782q-21 0 -39 8t-31.5 21.5t-21.5 32t-8 39.5q0 20 8 37.5t21.5 31t31.5 21.5t39 8t39 -8
t31.5 -21.5t21 -31t7.5 -37.5q0 -21 -7.5 -39.5t-21 -32t-31.5 -21.5t-39 -8zM322 1077q0 -16 -6.5 -30.5t-17 -25t-25 -16.5t-29.5 -6q-31 0 -54.5 22.5t-23.5 53.5q0 16 6.5 30.5t17 25t25 16.5t29.5 6q31 0 54.5 -22.5t23.5 -53.5zM0 0v197h193q11 0 23 2.5t21.5 10
t16 20.5t6.5 34v416h197v-420q0 -58 -19.5 -105.5t-54 -82t-82 -53.5t-104.5 -19h-197z" />
    <glyph glyph-name="thehmedialarabic" unicode="&#x62b;" horiz-adv-x="528" arabic-form="medial" 
d="M0 0v197h260v483h197v-483h80v-197h-537zM129 782q-21 0 -39 8t-31.5 21.5t-21.5 32t-8 39.5q0 20 8 37.5t21.5 31t31.5 21.5t39 8t38.5 -8t31 -21.5t21 -31t7.5 -37.5q0 -21 -7.5 -39.5t-21 -32t-31 -21.5t-38.5 -8zM358 782q-21 0 -39 8t-31.5 21.5t-21.5 32t-8 39.5
q0 20 8 37.5t21.5 31t31.5 21.5t39 8t39 -8t31.5 -21.5t21 -31t7.5 -37.5q0 -21 -7.5 -39.5t-21 -32t-31.5 -21.5t-39 -8zM244 999q-31 0 -54.5 22.5t-23.5 53.5q0 16 6.5 30.5t17 25t25 16.5t29.5 6q31 0 53 -22.5t22 -53.5q0 -32 -22 -55t-53 -23z" />
    <glyph glyph-name="jeemfinalarabic" unicode="&#x62c;" horiz-adv-x="862" arabic-form="final" 
d="M791 -260q0 -20 -8.5 -37.5t-22.5 -31t-32 -21.5t-38 -8t-38 8t-32 21.5t-22 31t-8 37.5q0 21 8 39t22 31.5t32 21.5t38 8t38 -8t32 -21.5t22.5 -31.5t8.5 -39zM379 0q-16 0 -31.5 -5t-27.5 -15t-19.5 -25t-7.5 -35q0 -21 8 -36.5t21 -25.5t29.5 -15t33.5 -5h133
l-129 -196h-16q-57 0 -107.5 23t-88 61.5t-59.5 89.5t-22 108q0 61 21 111t60 86t93.5 56t122.5 20h201v221q0 31 -19 48t-45 17h-294v197h292q58 0 106 -20t82.5 -55t53 -83t18.5 -104v-221h82v-197h-491z" />
    <glyph glyph-name="jeeminitialarabic" unicode="&#x62c;" horiz-adv-x="805" arabic-form="initial" 
d="M479 -260q0 -20 -8 -37.5t-21.5 -31t-31.5 -21.5t-39 -8q-19 0 -37 8t-31.5 21.5t-21.5 31t-8 37.5t8 38t21.5 32t31.5 22t37 8q42 0 71 -29t29 -71zM0 0v197h451q26 0 44.5 16t18.5 51v154q0 31 -18.5 48t-44.5 17h-295v197h295q57 0 104.5 -20t81.5 -55t53 -83t19 -104
v-158q0 -57 -18.5 -104.5t-53.5 -82t-84.5 -54t-110.5 -19.5h-442z" />
    <glyph glyph-name="jeemmedialarabic" unicode="&#x62c;" horiz-adv-x="780" arabic-form="medial" 
d="M479 -260q0 -20 -8 -37.5t-21.5 -31t-31.5 -21.5t-39 -8q-19 0 -37 8t-31.5 21.5t-21.5 31t-8 37.5t8 38t21.5 32t31.5 22t37 8q42 0 71 -29t29 -71zM0 0v197h514v221q0 31 -18.5 48t-44.5 17h-295v197h295q57 0 104.5 -20t81.5 -55t53 -83t19 -104v-221h82v-197h-791z
" />
    <glyph glyph-name="hahfinalarabic" unicode="&#x62d;" horiz-adv-x="862" arabic-form="final" 
d="M373 -358q-57 0 -107.5 23t-88 61.5t-59.5 89.5t-22 108q0 61 21 111t60 86t93.5 56t122.5 20h201v221q0 31 -19 48t-45 17h-294v197h292q58 0 106 -20t82.5 -55t53 -83t18.5 -104v-221h82v-197h-491q-16 0 -31.5 -5t-27.5 -15t-19.5 -25t-7.5 -35q0 -21 8 -36.5
t21 -25.5t29.5 -15t33.5 -5h385l-129 -196h-268z" />
    <glyph glyph-name="hahinitialarabic" unicode="&#x62d;" horiz-adv-x="805" arabic-form="initial" 
d="M0 0v197h451q26 0 44.5 16t18.5 51v154q0 31 -18.5 48t-44.5 17h-295v197h295q57 0 104.5 -20t81.5 -55t53 -83t19 -104v-158q0 -57 -18.5 -104.5t-53.5 -82t-84.5 -54t-110.5 -19.5h-442z" />
    <glyph glyph-name="hahmedialarabic" unicode="&#x62d;" horiz-adv-x="780" arabic-form="medial" 
d="M0 0v197h514v221q0 31 -18.5 48t-44.5 17h-295v197h295q57 0 104.5 -20t81.5 -55t53 -83t19 -104v-221h82v-197h-791z" />
    <glyph glyph-name="khahfinalarabic" unicode="&#x62e;" horiz-adv-x="862" arabic-form="final" 
d="M561 883q0 -21 -8 -39.5t-22 -32t-32 -21.5t-38 -8t-38 8t-32 21.5t-22.5 32t-8.5 39.5q0 19 8.5 37t22.5 31.5t32 21.5t38 8t38 -8t32 -21.5t22 -31t8 -37.5zM373 -358q-57 0 -107.5 23t-88 61.5t-59.5 89.5t-22 108q0 61 21 111t60 86t93.5 56t122.5 20h201v221
q0 31 -19 48t-45 17h-294v197h292q58 0 106 -20t82.5 -55t53 -83t18.5 -104v-221h82v-197h-491q-16 0 -31.5 -5t-27.5 -15t-19.5 -25t-7.5 -35q0 -21 8 -36.5t21 -25.5t29.5 -15t33.5 -5h385l-129 -196h-268z" />
    <glyph glyph-name="khahinitialarabic" unicode="&#x62e;" horiz-adv-x="805" arabic-form="initial" 
d="M479 883q0 -21 -8 -39.5t-21.5 -32t-31.5 -21.5t-39 -8q-19 0 -37 8t-31.5 21.5t-21.5 32t-8 39.5q0 19 8 37t21.5 31.5t31.5 21.5t37 8q21 0 39 -8t31.5 -21.5t21.5 -31t8 -37.5zM0 0v197h451q26 0 44.5 16t18.5 51v154q0 31 -18.5 48t-44.5 17h-295v197h295
q57 0 104.5 -20t81.5 -55t53 -83t19 -104v-158q0 -57 -18.5 -104.5t-53.5 -82t-84.5 -54t-110.5 -19.5h-442z" />
    <glyph glyph-name="khahmedialarabic" unicode="&#x62e;" horiz-adv-x="780" arabic-form="medial" 
d="M479 883q0 -21 -8 -39.5t-21.5 -32t-31.5 -21.5t-39 -8q-19 0 -37 8t-31.5 21.5t-21.5 32t-8 39.5q0 19 8 37t21.5 31.5t31.5 21.5t37 8q21 0 39 -8t31.5 -21.5t21.5 -31t8 -37.5zM0 0v197h514v221q0 31 -18.5 48t-44.5 17h-295v197h295q57 0 104.5 -20t81.5 -55t53 -83
t19 -104v-221h82v-197h-791z" />
    <glyph glyph-name="dalfinalarabic" unicode="&#x62f;" horiz-adv-x="756" arabic-form="final" 
d="M96 0v197h393v120q0 36 -10 66.5t-31 52.5t-54 34.5t-79 12.5h-102v197h119q90 0 157 -30.5t110.5 -81.5t65 -118.5t21.5 -142.5v-110h78v-197h-668z" />
    <glyph glyph-name="thalfinalarabic" unicode="&#x630;" horiz-adv-x="756" arabic-form="final" 
d="M412 883q0 -21 -8 -39.5t-22 -32t-32.5 -21.5t-38.5 -8t-37.5 8t-31 21.5t-21.5 32t-8 39.5q0 19 8 37t21.5 31.5t31 21.5t37.5 8t38.5 -8t32.5 -21.5t22 -31t8 -37.5zM96 0v197h393v120q0 36 -10 66.5t-31 52.5t-54 34.5t-79 12.5h-102v197h119q90 0 157 -30.5
t110.5 -81.5t65 -118.5t21.5 -142.5v-110h78v-197h-668z" />
    <glyph glyph-name="rehfinalarabic" unicode="&#x631;" horiz-adv-x="481" arabic-form="final" 
d="M35 -180q63 15 98.5 37.5t53.5 49.5t22 57t4 59v657h197v-483h82v-197h-82v-39q0 -55 -12 -99.5t-40 -82.5t-74 -71.5t-114 -65.5z" />
    <glyph glyph-name="zainfinalarabic" unicode="&#x632;" horiz-adv-x="481" arabic-form="final" 
d="M313 782q-21 0 -39 8t-31.5 21.5t-21.5 32t-8 39.5q0 20 8 37.5t21.5 31t31.5 21.5t39 8q19 0 37 -8t32 -21.5t22 -31t8 -37.5q0 -21 -8 -39.5t-21.5 -32t-31.5 -21.5t-38 -8zM35 -180q63 15 98.5 37.5t53.5 49.5t22 57t4 59v657h197v-483h82v-197h-82v-39
q0 -55 -12 -99.5t-40 -82.5t-74 -71.5t-114 -65.5z" />
    <glyph glyph-name="seenfinalarabic" unicode="&#x633;" horiz-adv-x="1798" arabic-form="final" 
d="M1008 0q0 -64 -19 -116t-52.5 -92.5t-78 -70t-95 -48.5t-104.5 -28.5t-106 -9.5q-84 0 -165.5 21.5t-146.5 66.5t-105 115t-40 168v299l195 129v-393q0 -59 24 -98.5t62 -63.5t84 -34.5t90 -10.5q45 0 91.5 10.5t84.5 35t62 64t24 97.5v639h195v-483h163v483h197v-483
h162v483h196v-483h82v-197h-800z" />
    <glyph glyph-name="seeninitialarabic" unicode="&#x633;" horiz-adv-x="1395" arabic-form="initial" 
d="M0 0v197h385v483h195v-483h163v483h197v-483h100q25 0 44.5 15t19.5 52v416h194v-420q0 -54 -17.5 -101.5t-51 -83t-83.5 -55.5t-114 -20h-1032z" />
    <glyph glyph-name="seenmedialarabic" unicode="&#x633;" horiz-adv-x="1370" arabic-form="medial" 
d="M0 0v197h385v483h195v-483h163v483h197v-483h162v483h196v-483h82v-197h-1380z" />
    <glyph glyph-name="sheenfinalarabic" unicode="&#x634;" horiz-adv-x="1798" arabic-form="final" 
d="M1257 883q0 -21 -8 -39.5t-22 -32t-32 -21.5t-38 -8t-37.5 8t-31 21.5t-21.5 32t-8 39.5q0 20 8 37.5t21.5 31t31 21.5t37.5 8t38 -8t32 -21.5t22 -31t8 -37.5zM1386 782q-20 0 -37.5 8t-31 21.5t-21.5 32t-8 39.5q0 20 8 37.5t21.5 31t31 21.5t37.5 8t38 -8t31.5 -21.5
t21.5 -31t8 -37.5q0 -21 -8 -39.5t-21.5 -32t-31.5 -21.5t-38 -8zM1350 1077q0 -16 -6.5 -30.5t-17 -25t-25 -16.5t-29.5 -6q-31 0 -54.5 22.5t-23.5 53.5q0 16 6.5 30.5t17 25t25 16.5t29.5 6q31 0 54.5 -22.5t23.5 -53.5zM1008 0q0 -64 -19 -116t-52.5 -92.5t-78 -70
t-95 -48.5t-104.5 -28.5t-106 -9.5q-84 0 -165.5 21.5t-146.5 66.5t-105 115t-40 168v299l195 129v-393q0 -59 24 -98.5t62 -63.5t84 -34.5t90 -10.5q45 0 91.5 10.5t84.5 35t62 64t24 97.5v639h195v-483h163v483h197v-483h162v483h196v-483h82v-197h-800z" />
    <glyph glyph-name="sheeninitialarabic" unicode="&#x634;" horiz-adv-x="1395" arabic-form="initial" 
d="M829 883q0 -21 -8 -39.5t-21.5 -32t-31.5 -21.5t-39 -8q-20 0 -37.5 8t-31 21.5t-21.5 32t-8 39.5q0 20 8 37.5t21.5 31t31 21.5t37.5 8q21 0 39 -8t31.5 -21.5t21.5 -31t8 -37.5zM1059 883q0 -21 -8 -39.5t-21.5 -32t-32 -21.5t-39.5 -8q-20 0 -37.5 8t-31 21.5
t-21.5 32t-8 39.5q0 20 8 37.5t21.5 31t31 21.5t37.5 8q21 0 39.5 -8t32 -21.5t21.5 -31t8 -37.5zM922 1077q0 -32 -23 -55t-55 -23q-31 0 -53.5 22.5t-22.5 53.5q0 16 6 30.5t16.5 25t24.5 16.5t29 6q16 0 30.5 -6t25 -16.5t16.5 -24.5t6 -29zM0 0v197h385v483h195v-483
h163v483h197v-483h100q25 0 44.5 15t19.5 52v416h194v-420q0 -54 -17.5 -101.5t-51 -83t-83.5 -55.5t-114 -20h-1032z" />
    <glyph glyph-name="sheenmedialarabic" unicode="&#x634;" horiz-adv-x="1370" arabic-form="medial" 
d="M0 0v197h385v483h195v-483h163v483h197v-483h162v483h196v-483h82v-197h-1380zM829 883q0 -21 -8 -39.5t-21.5 -32t-31.5 -21.5t-39 -8q-20 0 -37.5 8t-31 21.5t-21.5 32t-8 39.5q0 20 8 37.5t21.5 31t31 21.5t37.5 8q21 0 39 -8t31.5 -21.5t21.5 -31t8 -37.5zM1059 883
q0 -21 -8 -39.5t-21.5 -32t-32 -21.5t-39.5 -8q-20 0 -37.5 8t-31 21.5t-21.5 32t-8 39.5q0 20 8 37.5t21.5 31t31 21.5t37.5 8q21 0 39.5 -8t32 -21.5t21.5 -31t8 -37.5zM922 1077q0 -32 -23 -55t-55 -23q-31 0 -53.5 22.5t-22.5 53.5q0 16 6 30.5t16.5 25t24.5 16.5t29 6
q16 0 30.5 -6t25 -16.5t16.5 -24.5t6 -29z" />
    <glyph glyph-name="sadfinalarabic" unicode="&#x635;" horiz-adv-x="1683" arabic-form="final" 
d="M1008 0q0 -64 -19 -116t-52.5 -92.5t-78 -70t-95 -48.5t-104.5 -28.5t-106 -9.5q-84 0 -165.5 21.5t-146.5 66.5t-105 115t-40 168v299l195 129v-393q0 -59 24 -98.5t62 -63.5t84 -34.5t90 -10.5q45 0 91.5 10.5t84.5 35t62 64t24 97.5v639h195v-105l268 97q23 8 47 12
t47 4q51 0 95.5 -18.5t77 -50.5t51 -75.5t18.5 -94.5v-252h80v-197h-684zM1415 428q0 28 -14 44.5t-37 16.5q-12 0 -24.5 -3.5t-26.5 -8.5l-250 -88q-31 -11 -43 -25.5t-12 -48.5v-118h407v231z" />
    <glyph glyph-name="sadinitialarabic" unicode="&#x635;" horiz-adv-x="1049" arabic-form="initial" 
d="M350 0v-57l-196 -103v160h-154v197h154v483h196v-105l268 97q46 16 95 16q51 0 95 -18.5t76 -50.5t50 -75.5t18 -94.5v-189q0 -52 -17 -99t-50 -83t-82 -57t-113 -21h-340zM758 428q0 28 -14 44.5t-37 16.5q-13 0 -26 -3.5t-26 -8.5l-252 -88q-29 -11 -41 -25.5
t-12 -48.5v-118h340q37 0 52.5 19.5t15.5 47.5v164z" />
    <glyph glyph-name="sadmedialarabic" unicode="&#x635;" horiz-adv-x="1024" arabic-form="medial" 
d="M350 0v-57l-196 -103v160h-154v197h154v483h196v-105l268 97q46 16 95 16q51 0 95 -18.5t76 -50.5t50 -75.5t18 -94.5v-252h82v-197h-684zM758 428q0 28 -14 44.5t-37 16.5q-13 0 -26 -3.5t-26 -8.5l-252 -88q-29 -11 -41 -25.5t-12 -48.5v-118h408v231z" />
    <glyph glyph-name="dadfinalarabic" unicode="&#x636;" horiz-adv-x="1683" arabic-form="final" 
d="M1223 782q-21 0 -39.5 8t-32 21.5t-21.5 32t-8 39.5q0 20 8 37.5t21.5 31t32 21.5t39.5 8t38.5 -8t31 -21.5t21 -31t7.5 -37.5q0 -21 -7.5 -39.5t-21 -32t-31 -21.5t-38.5 -8zM1008 0q0 -64 -19 -116t-52.5 -92.5t-78 -70t-95 -48.5t-104.5 -28.5t-106 -9.5
q-84 0 -165.5 21.5t-146.5 66.5t-105 115t-40 168v299l195 129v-393q0 -59 24 -98.5t62 -63.5t84 -34.5t90 -10.5q45 0 91.5 10.5t84.5 35t62 64t24 97.5v639h195v-105l268 97q23 8 47 12t47 4q51 0 95.5 -18.5t77 -50.5t51 -75.5t18.5 -94.5v-252h80v-197h-684zM1415 428
q0 28 -14 44.5t-37 16.5q-12 0 -24.5 -3.5t-26.5 -8.5l-250 -88q-31 -11 -43 -25.5t-12 -48.5v-118h407v231z" />
    <glyph glyph-name="dadinitialarabic" unicode="&#x636;" horiz-adv-x="1049" arabic-form="initial" 
d="M664 883q0 -21 -8 -39.5t-22 -32t-32 -21.5t-39 -8q-20 0 -37.5 8t-31 21.5t-21.5 32t-8 39.5q0 20 8 37.5t21.5 31t31 21.5t37.5 8q21 0 39 -8t32 -21.5t22 -31t8 -37.5zM350 0v-57l-196 -103v160h-154v197h154v483h196v-105l268 97q46 16 95 16q51 0 95 -18.5t76 -50.5
t50 -75.5t18 -94.5v-189q0 -52 -17 -99t-50 -83t-82 -57t-113 -21h-340zM758 428q0 28 -14 44.5t-37 16.5q-13 0 -26 -3.5t-26 -8.5l-252 -88q-29 -11 -41 -25.5t-12 -48.5v-118h340q37 0 52.5 19.5t15.5 47.5v164z" />
    <glyph glyph-name="dadmedialarabic" unicode="&#x636;" horiz-adv-x="1024" arabic-form="medial" 
d="M664 883q0 -21 -8 -39.5t-22 -32t-32 -21.5t-39 -8q-20 0 -37.5 8t-31 21.5t-21.5 32t-8 39.5q0 20 8 37.5t21.5 31t31 21.5t37.5 8q21 0 39 -8t32 -21.5t22 -31t8 -37.5zM350 0v-57l-196 -103v160h-154v197h154v483h196v-105l268 97q46 16 95 16q51 0 95 -18.5t76 -50.5
t50 -75.5t18 -94.5v-252h82v-197h-684zM758 428q0 28 -14 44.5t-37 16.5q-13 0 -26 -3.5t-26 -8.5l-252 -88q-29 -11 -41 -25.5t-12 -48.5v-118h408v231z" />
    <glyph glyph-name="tahfinalarabic" unicode="&#x637;" horiz-adv-x="1196" arabic-form="final" 
d="M522 0v-57l-196 -103v160h-230l88 197h142v759h196v-378l269 96q21 8 45 12t49 4q51 0 95 -18.5t76 -50.5t50 -75.5t18 -94.5v-254h82v-197h-684zM930 430q0 28 -14 45t-37 17q-13 0 -26 -4t-26 -9l-249 -88q-31 -11 -43.5 -25.5t-12.5 -48.5v-120h408v233z" />
    <glyph glyph-name="tahinitialarabic" unicode="&#x637;" horiz-adv-x="1049" arabic-form="initial" 
d="M350 0v-57l-196 -103v160h-154v197h154v759h196v-378l268 96q46 16 95 16q51 0 95 -18.5t76 -50.5t50 -75.5t18 -94.5v-191q0 -52 -17 -99t-50 -83t-82 -57t-113 -21h-340zM758 430q0 28 -14 45t-37 17q-13 0 -26 -4t-26 -9l-252 -88q-29 -11 -41 -25.5t-12 -48.5v-120
h340q37 0 52.5 19.5t15.5 47.5v166z" />
    <glyph glyph-name="tahmedialarabic" unicode="&#x637;" horiz-adv-x="1024" arabic-form="medial" 
d="M350 0v-57l-196 -103v160h-154v197h154v759h196v-378l268 96q46 16 95 16q51 0 95 -18.5t76 -50.5t50 -75.5t18 -94.5v-254h82v-197h-684zM758 430q0 28 -14 45t-37 17q-13 0 -26 -4t-26 -9l-252 -88q-29 -11 -41 -25.5t-12 -48.5v-120h408v233z" />
    <glyph glyph-name="zahfinalarabic" unicode="&#x638;" horiz-adv-x="1196" arabic-form="final" 
d="M737 784q-21 0 -39 8t-31.5 21.5t-21.5 32t-8 39.5q0 20 8 37.5t21.5 31t31.5 21.5t39 8q20 0 38 -8t31.5 -21.5t21.5 -31t8 -37.5q0 -21 -8 -39.5t-21.5 -32t-31.5 -21.5t-38 -8zM522 0v-57l-196 -103v160h-230l88 197h142v759h196v-378l269 96q21 8 45 12t49 4
q51 0 95 -18.5t76 -50.5t50 -75.5t18 -94.5v-254h82v-197h-684zM930 430q0 28 -14 45t-37 17q-13 0 -26 -4t-26 -9l-249 -88q-31 -11 -43.5 -25.5t-12.5 -48.5v-120h408v233z" />
    <glyph glyph-name="zahinitialarabic" unicode="&#x638;" horiz-adv-x="1049" arabic-form="initial" 
d="M565 784q-20 0 -38 8t-32 21.5t-22 32t-8 39.5q0 20 8 37.5t21.5 31t31.5 21.5t39 8q20 0 38 -8t31.5 -21.5t21.5 -31t8 -37.5q0 -21 -8 -39.5t-21.5 -32t-31.5 -21.5t-38 -8zM350 0v-57l-196 -103v160h-154v197h154v759h196v-378l268 96q46 16 95 16q51 0 95 -18.5
t76 -50.5t50 -75.5t18 -94.5v-191q0 -52 -17 -99t-50 -83t-82 -57t-113 -21h-340zM758 430q0 28 -14 45t-37 17q-13 0 -26 -4t-26 -9l-252 -88q-29 -11 -41 -25.5t-12 -48.5v-120h340q37 0 52.5 19.5t15.5 47.5v166z" />
    <glyph glyph-name="zahmedialarabic" unicode="&#x638;" horiz-adv-x="1024" arabic-form="medial" 
d="M350 0v-57l-196 -103v160h-154v197h154v759h196v-378l268 96q46 16 95 16q51 0 95 -18.5t76 -50.5t50 -75.5t18 -94.5v-254h82v-197h-684zM758 430q0 28 -14 45t-37 17q-13 0 -26 -4t-26 -9l-252 -88q-29 -11 -41 -25.5t-12 -48.5v-120h408v233zM662 885q0 -21 -8 -39.5
t-22 -32t-32 -21.5t-39 -8q-20 0 -38 8t-32 21.5t-22 32t-8 39.5q0 20 8 37.5t22 31t32 21.5t38 8q21 0 39 -8t32 -21.5t22 -31t8 -37.5z" />
    <glyph glyph-name="ainfinalarabic" unicode="&#x639;" horiz-adv-x="907" arabic-form="final" 
d="M381 -358q-62 0 -114 23t-90 62t-59.5 90t-21.5 107q0 94 57.5 162t163.5 102q-22 27 -46.5 52.5t-48.5 47.5t-46.5 40t-40.5 30q-5 78 24 139.5t79 104t115 65.5t132 23q66 0 130.5 -23t114.5 -65.5t79 -104t25 -139.5q-18 -12 -40 -30.5t-45 -40t-45 -45t-40 -45.5h251
v-197h-319q-18 0 -32 1.5t-26 5t-24.5 10.5t-28.5 18q-20 -13 -43.5 -23t-52.5 -12q-40 -2 -68 -20t-28 -60q0 -35 24.5 -58.5t67.5 -23.5h432l-131 -196h-305zM614 418q-21 35 -54.5 56.5t-74.5 21.5q-42 0 -74.5 -22t-54.5 -56q35 -25 67.5 -55t61.5 -64q28 34 60 64
t69 55z" />
    <glyph glyph-name="aininitialarabic" unicode="&#x639;" horiz-adv-x="897" arabic-form="initial" 
d="M0 0v197h160q-6 11 -8 28t-2 35v158q0 59 19.5 107t55 82.5t84 53.5t107.5 19h291v-197h-297q-26 0 -45 -16.5t-19 -48.5v-158q0 -29 17.5 -46t46.5 -17h391v-197h-801z" />
    <glyph glyph-name="ainmedialarabic" unicode="&#x639;" horiz-adv-x="928" arabic-form="medial" 
d="M618 0q-18 0 -32 1.5t-26.5 5t-25 10.5t-28.5 18q-32 -22 -58 -28.5t-55 -6.5h-393v197h326l-41 44.5t-45 45.5t-44.5 40.5t-39.5 30.5q-6 78 23 139.5t79.5 104t115.5 65.5t132 23q66 0 130.5 -23t114.5 -65.5t79.5 -104t25.5 -139.5q-19 -12 -41.5 -30.5t-45 -40
t-44 -45t-39.5 -45.5h252v-197h-320zM635 418q-23 35 -55 56.5t-74 21.5t-74 -22t-57 -56q38 -25 70 -55t61 -64q28 34 60 64t69 55z" />
    <glyph glyph-name="ghainfinalarabic" unicode="&#x63a;" horiz-adv-x="907" arabic-form="final" 
d="M586 883q0 -21 -8 -39.5t-22 -32t-32.5 -21.5t-38.5 -8t-38 8t-32 21.5t-22 32t-8 39.5q0 19 8 37t22 31.5t32 21.5t38 8t38.5 -8t32.5 -21.5t22 -31t8 -37.5zM381 -358q-62 0 -114 23t-90 62t-59.5 90t-21.5 107q0 94 57.5 162t163.5 102q-22 27 -46.5 52.5t-48.5 47.5
t-46.5 40t-40.5 30q-5 78 24 139.5t79 104t115 65.5t132 23q66 0 130.5 -23t114.5 -65.5t79 -104t25 -139.5q-18 -12 -40 -30.5t-45 -40t-45 -45t-40 -45.5h251v-197h-319q-18 0 -32 1.5t-26 5t-24.5 10.5t-28.5 18q-20 -13 -43.5 -23t-52.5 -12q-40 -2 -68 -20t-28 -60
q0 -35 24.5 -58.5t67.5 -23.5h432l-131 -196h-305zM614 418q-21 35 -54.5 56.5t-74.5 21.5q-42 0 -74.5 -22t-54.5 -56q35 -25 67.5 -55t61.5 -64q28 34 60 64t69 55z" />
    <glyph glyph-name="ghaininitialarabic" unicode="&#x63a;" horiz-adv-x="897" arabic-form="initial" 
d="M479 782q-20 0 -37.5 8t-31 21.5t-21.5 32t-8 39.5q0 20 8 37.5t21.5 31t31 21.5t37.5 8q21 0 39.5 -8t32 -21.5t21.5 -31.5t8 -37q0 -21 -8 -39.5t-21.5 -32t-32 -21.5t-39.5 -8zM0 0v197h160q-6 11 -8 28t-2 35v158q0 59 19.5 107t55 82.5t84 53.5t107.5 19h291v-197
h-297q-26 0 -45 -16.5t-19 -48.5v-158q0 -29 17.5 -46t46.5 -17h391v-197h-801z" />
    <glyph glyph-name="ghainmedialarabic" unicode="&#x63a;" horiz-adv-x="928" arabic-form="medial" 
d="M506 782q-21 0 -38.5 8t-31 21.5t-21 32t-7.5 39.5q0 19 7.5 37t21 31.5t31 21.5t38.5 8t38.5 -8t31 -21.5t21 -31t7.5 -37.5q0 -21 -7.5 -39.5t-21 -32t-31 -21.5t-38.5 -8zM618 0q-18 0 -32 1.5t-26.5 5t-25 10.5t-28.5 18q-32 -22 -58 -28.5t-55 -6.5h-393v197h326
l-41 44.5t-45 45.5t-44.5 40.5t-39.5 30.5q-6 78 23 139.5t79.5 104t115.5 65.5t132 23q66 0 130.5 -23t114.5 -65.5t79.5 -104t25.5 -139.5q-19 -12 -41.5 -30.5t-45 -40t-44 -45t-39.5 -45.5h252v-197h-320zM635 418q-23 35 -55 56.5t-74 21.5t-74 -22t-57 -56
q38 -25 70 -55t61 -64q28 34 60 64t69 55z" />
    <glyph glyph-name="fehfinalarabic" unicode="&#x641;" horiz-adv-x="1305" arabic-form="final" 
d="M362 0q-59 0 -108 18t-84 51.5t-54.5 81.5t-19.5 109v168l195 127v-285q0 -29 12.5 -51t52.5 -22h322v221q0 47 15.5 93.5t48 84t82.5 61t120 23.5h289v-483h82v-197h-953zM954 782q-20 0 -37.5 8t-31 21.5t-21.5 32t-8 39.5q0 20 8 37.5t21.5 31t31 21.5t37.5 8
q21 0 39 -8t31.5 -21.5t21 -31t7.5 -37.5q0 -21 -7.5 -39.5t-21 -32t-31.5 -21.5t-39 -8zM1036 483h-100q-32 0 -47 -20.5t-15 -48.5v-217h162v286z" />
    <glyph glyph-name="fehinitialarabic" unicode="&#x641;" horiz-adv-x="803" arabic-form="initial" 
d="M430 782q-21 0 -39 8t-31.5 21.5t-21.5 32t-8 39.5q0 20 8 37.5t21.5 31t31.5 21.5t39 8t38.5 -8t31 -21.5t21 -31t7.5 -37.5q0 -21 -7.5 -39.5t-21 -32t-31 -21.5t-38.5 -8zM0 0v197h154v221q0 47 15 93.5t47 84t82 61t120 23.5h291v-420q0 -58 -19 -105.5t-53.5 -82
t-83 -53.5t-107.5 -19h-446zM512 483h-100q-34 0 -48 -20.5t-14 -48.5v-217h96q31 0 48.5 16.5t17.5 56.5v213z" />
    <glyph glyph-name="fehmedialarabic" unicode="&#x641;" horiz-adv-x="780" arabic-form="medial" 
d="M430 782q-21 0 -39 8t-31.5 21.5t-21.5 32t-8 39.5q0 20 8 37.5t21.5 31t31.5 21.5t39 8t38.5 -8t31 -21.5t21 -31t7.5 -37.5q0 -21 -7.5 -39.5t-21 -32t-31 -21.5t-38.5 -8zM0 0v197h154v221q0 57 17.5 105t51.5 83t83 54.5t112 19.5h291v-483h82v-197h-791zM512 483
h-102q-26 0 -43 -19t-17 -48v-219h162v286z" />
    <glyph glyph-name="qaffinalarabic" unicode="&#x642;" horiz-adv-x="1081" arabic-form="final" 
d="M715 883q0 -21 -8 -39.5t-21.5 -32t-32 -21.5t-39.5 -8q-20 0 -37.5 8t-31 21.5t-21.5 32t-8 39.5q0 20 8 37.5t21.5 31t31 21.5t37.5 8q21 0 39.5 -8t32 -21.5t21.5 -31t8 -37.5zM944 883q0 -21 -8 -39.5t-21.5 -32t-31.5 -21.5t-39 -8q-20 0 -38 8t-31.5 21.5t-21.5 32
t-8 39.5q0 20 8 37.5t21.5 31t31.5 21.5t38 8q21 0 39 -8t31.5 -21.5t21.5 -31t8 -37.5zM811 483h-100q-26 0 -44 -19t-18 -48v-156q0 -11 3 -22t10 -20t19 -15t30 -6h100v286zM1008 0v-18q0 -74 -34.5 -137.5t-95.5 -110t-144.5 -73t-180.5 -26.5q-79 0 -160.5 20.5
t-147.5 65t-107.5 115.5t-41.5 172v297l195 129v-393q0 -59 24.5 -99t62.5 -64t84 -34t89 -10q40 0 82.5 9t79.5 28.5t63 51.5t33 77h-88q-61 0 -110.5 19t-84.5 53.5t-54 82t-19 105.5v158q0 57 18 105t52 83t83 54.5t111 19.5h291v-483h82v-197h-82z" />
    <glyph glyph-name="qafinitialarabic" unicode="&#x642;" horiz-adv-x="803" arabic-form="initial" 
d="M0 0v197h154v221q0 47 15 93.5t47 84t82 61t120 23.5h291v-420q0 -58 -19 -105.5t-53.5 -82t-83 -53.5t-107.5 -19h-446zM414 883q0 -21 -8 -39.5t-21.5 -32t-32 -21.5t-39.5 -8q-20 0 -37.5 8t-31 21.5t-21.5 32t-8 39.5q0 20 8 37.5t21.5 31t31 21.5t37.5 8
q21 0 39.5 -8t32 -21.5t21.5 -31t8 -37.5zM643 883q0 -21 -8 -39.5t-21.5 -32t-31.5 -21.5t-39 -8q-20 0 -38 8t-31.5 21.5t-21.5 32t-8 39.5q0 20 8 37.5t21.5 31t31.5 21.5t38 8q21 0 39 -8t31.5 -21.5t21.5 -31t8 -37.5zM512 483h-100q-34 0 -48 -20.5t-14 -48.5v-217h96
q31 0 48.5 16.5t17.5 56.5v213z" />
    <glyph glyph-name="qafmedialarabic" unicode="&#x642;" horiz-adv-x="780" arabic-form="medial" 
d="M0 0v197h154v221q0 57 17.5 105t51.5 83t83 54.5t112 19.5h291v-483h82v-197h-791zM512 483h-102q-26 0 -43 -19t-17 -48v-219h162v286zM414 883q0 -21 -8 -39.5t-21.5 -32t-32 -21.5t-39.5 -8q-20 0 -37.5 8t-31 21.5t-21.5 32t-8 39.5q0 20 8 37.5t21.5 31t31 21.5
t37.5 8q21 0 39.5 -8t32 -21.5t21.5 -31t8 -37.5zM643 883q0 -21 -8 -39.5t-21.5 -32t-31.5 -21.5t-39 -8q-20 0 -38 8t-31.5 21.5t-21.5 32t-8 39.5q0 20 8 37.5t21.5 31t31.5 21.5t38 8q21 0 39 -8t31.5 -21.5t21.5 -31t8 -37.5z" />
    <glyph glyph-name="kaffinalarabic" unicode="&#x643;" horiz-adv-x="1305" arabic-form="final" 
d="M362 0q-59 0 -108 18t-84 51.5t-54.5 81.5t-19.5 109v168l195 127v-285q0 -29 12.5 -51t52.5 -22h680v759h197v-759h82v-197h-953zM526 471v84h54q-4 11 -6.5 23t-2.5 24q0 57 37.5 92t102.5 35h47v-84h-49q-22 0 -39 -9.5t-17 -35.5q0 -45 58 -45h86v-84h-271z" />
    <glyph glyph-name="kafinitialarabic" unicode="&#x643;" horiz-adv-x="885" arabic-form="initial" 
d="M0 0v197h530q64 0 64 67v150q0 32 -18 50.5t-44 18.5h-376v211q0 54 17.5 101.5t51 83.5t83 56.5t114.5 20.5h272v-165h-280q-51 0 -73 -26.5t-22 -68.5v-16h213q51 0 98 -17.5t82.5 -51t57 -82.5t21.5 -111v-158q0 -60 -20.5 -108t-56.5 -82t-85 -52t-107 -18h-522z" />
    <glyph glyph-name="kafmedialarabic" unicode="&#x643;" horiz-adv-x="862" arabic-form="medial" 
d="M0 0v197h594v217q0 32 -18 50.5t-44 18.5h-376v211q0 54 17.5 101.5t51 83.5t83 56.5t114.5 20.5h272v-165h-280q-51 0 -73 -26.5t-22 -68.5v-16h213q51 0 98 -17.5t82.5 -51t57 -82.5t21.5 -111v-221h81v-197h-872z" />
    <glyph glyph-name="lamfinalarabic" unicode="&#x644;" horiz-adv-x="1079" arabic-form="final" 
d="M1008 0q0 -64 -19 -116t-52.5 -92.5t-78 -70t-95 -48.5t-104.5 -28.5t-106 -9.5q-84 0 -165.5 21.5t-146.5 66.5t-105 115t-40 168v299l195 129v-393q0 -59 24 -98.5t62 -63.5t84 -34.5t90 -10.5q45 0 91.5 10.5t84.5 35t62 64t24 97.5v915h195v-759h82v-197h-82z" />
    <glyph glyph-name="laminitialarabic" unicode="&#x644;" horiz-adv-x="446" arabic-form="initial" 
d="M0 0v197h90q29 0 47.5 17.5t18.5 49.5v692h194v-696q0 -50 -17 -97t-50 -83t-82 -58t-113 -22h-88z" />
    <glyph glyph-name="lammedialarabic" unicode="&#x644;" horiz-adv-x="422" arabic-form="medial" 
d="M0 0v197h156v759h194v-759h82v-197h-432z" />
    <glyph glyph-name="meemfinalarabic" unicode="&#x645;" horiz-adv-x="926" arabic-form="final" 
d="M383 0q-92 0 -92 -92v-158l-195 -115v328q0 108 53.5 167.5t149.5 66.5v221q0 57 18 105t52 83t83.5 54.5t112.5 19.5h289v-483h82v-197h-553zM657 483h-100q-26 0 -43.5 -19t-17.5 -48v-219h161v286z" />
    <glyph glyph-name="meeminitialarabic" unicode="&#x645;" horiz-adv-x="805" arabic-form="initial" 
d="M514 426q0 37 -23.5 53.5t-58.5 16.5t-58.5 -16.5t-23.5 -53.5v-334q0 -40 25 -54.5t57 -14.5q35 0 58.5 17t23.5 52v334zM709 98q0 -74 -24.5 -125t-64 -83.5t-89 -47t-99.5 -14.5q-42 0 -83.5 10t-76.5 31t-62 53.5t-42 77.5h-168v197h156v229q0 70 23 120t61.5 82
t88 47t103.5 15q61 0 111.5 -18.5t87.5 -53t57.5 -83t20.5 -109.5v-328z" />
    <glyph glyph-name="meemmedialarabic" unicode="&#x645;" horiz-adv-x="780" arabic-form="medial" 
d="M514 426q0 37 -23.5 53.5t-58.5 16.5t-58.5 -16.5t-23.5 -53.5v-334q0 -40 25 -54.5t57 -14.5q35 0 58.5 17t23.5 52v334zM694 0q-14 -46 -41 -78.5t-62.5 -53.5t-76 -30.5t-82.5 -9.5t-83.5 10t-76.5 31t-62 53.5t-42 77.5h-168v197h156v229q0 70 23 120t61.5 82t88 47
t103.5 15q61 0 111.5 -18.5t87.5 -53t57.5 -83t20.5 -109.5v-229h82v-197h-97z" />
    <glyph glyph-name="noonfinalarabic" unicode="&#x646;" horiz-adv-x="1079" arabic-form="final" 
d="M659 883q0 -21 -8 -39.5t-21.5 -32t-31.5 -21.5t-39 -8q-20 0 -37.5 8t-31 21.5t-21.5 32t-8 39.5q0 20 8 37.5t21.5 31t31 21.5t37.5 8q21 0 39 -8t31.5 -21.5t21.5 -31t8 -37.5zM1008 0q0 -64 -19 -116t-52.5 -92.5t-78 -70t-95 -48.5t-104.5 -28.5t-106 -9.5
q-84 0 -165.5 21.5t-146.5 66.5t-105 115t-40 168v299l195 129v-393q0 -59 24 -98.5t62 -63.5t84 -34.5t90 -10.5q45 0 91.5 10.5t84.5 35t62 64t24 97.5v639h195v-483h82v-197h-82z" />
    <glyph glyph-name="nooninitialarabic" unicode="&#x646;" horiz-adv-x="551" arabic-form="initial" 
d="M358 782q-21 0 -39 8t-31.5 21.5t-21.5 32t-8 39.5q0 20 8 37.5t21.5 31t31.5 21.5t39 8t39 -8t31.5 -21.5t21 -31t7.5 -37.5q0 -21 -7.5 -39.5t-21 -32t-31.5 -21.5t-39 -8zM0 0v197h193q11 0 23 2.5t21.5 10t16 20.5t6.5 34v416h197v-420q0 -58 -19.5 -105.5t-54 -82
t-82 -53.5t-104.5 -19h-197z" />
    <glyph glyph-name="noonmedialarabic" unicode="&#x646;" horiz-adv-x="528" arabic-form="medial" 
d="M0 0v197h260v483h197v-483h80v-197h-537zM358 782q-21 0 -39 8t-31.5 21.5t-21.5 32t-8 39.5q0 20 8 37.5t21.5 31t31.5 21.5t39 8t39 -8t31.5 -21.5t21 -31t7.5 -37.5q0 -21 -7.5 -39.5t-21 -32t-31.5 -21.5t-39 -8z" />
    <glyph glyph-name="hehfinalarabic" unicode="&#x647;" horiz-adv-x="723" arabic-form="final" 
d="M455 483h-101q-24 0 -42.5 -17t-18.5 -52v-154q0 -26 15 -44.5t46 -18.5h101v286zM455 0v121l-95 -121q-61 0 -110 20t-83 55.5t-52.5 83.5t-18.5 105v154q0 57 19 105.5t53 83t82 54t106 19.5h293v-483h82v-197h-276z" />
    <glyph glyph-name="hehinitialarabic" unicode="&#x647;" horiz-adv-x="981" arabic-form="initial" 
d="M436 248q0 28 -18.5 46.5t-44.5 18.5t-45 -19.5t-19 -45.5t19 -45t45 -19t44.5 19t18.5 45zM436 0q-17 0 -32.5 5.5t-30.5 21.5q-14 -16 -29 -21.5t-37 -5.5h-307v197h164q-6 27 -6 55q0 36 14.5 73t42 67.5t67.5 49.5t91 19q49 0 88.5 -19t67 -49.5t42.5 -67.5t15 -73
q0 -28 -6 -55h43q20 0 32.5 6.5t20 16t10 20.5t2.5 20v158q0 65 -67 65h-465v197h460q61 0 110.5 -19t84.5 -53.5t54.5 -82.5t19.5 -107v-158q0 -54 -18.5 -101t-51 -82.5t-77.5 -56t-99 -20.5h-203z" />
    <glyph glyph-name="hehmedialarabic" unicode="&#x647;" horiz-adv-x="956" arabic-form="medial" 
d="M436 248q0 28 -18.5 46.5t-44.5 18.5t-45 -19.5t-19 -45.5t19 -45t45 -19t44.5 19t18.5 45zM436 0q-17 0 -32.5 5.5t-30.5 21.5q-14 -16 -29 -21.5t-37 -5.5h-307v197h164q-6 27 -6 55q0 36 14.5 73t42 67.5t67.5 49.5t91 19q49 0 88.5 -19t67 -49.5t42.5 -67.5t15 -73
q0 -28 -6 -55h108v221q0 65 -67 65h-465v197h460q61 0 110.5 -19t84.5 -53.5t54.5 -82.5t19.5 -107v-221h82v-197h-531z" />
    <glyph glyph-name="wawfinalarabic" unicode="&#x648;" horiz-adv-x="664" arabic-form="final" 
d="M420 483h-98q-31 0 -46.5 -18.5t-15.5 -44.5v-156q0 -28 13.5 -47.5t48.5 -19.5h98v286zM616 0v-8q0 -72 -17 -134t-60 -108.5t-116 -75t-185 -32.5l-125 174q63 -2 119 7.5t98.5 30t67 53.5t24.5 79v14h-94q-63 0 -112.5 21t-84 57t-52.5 83t-18 99v158q0 54 18 101.5
t52.5 83t84 56.5t112.5 21h288v-483h82v-197h-82z" />
    <glyph glyph-name="alefmaksurafinalarabic" unicode="&#x649;" horiz-adv-x="1081" arabic-form="final" 
d="M1008 0v-18q0 -74 -34.5 -137.5t-95.5 -110t-144.5 -73t-180.5 -26.5q-79 0 -160.5 20.5t-147.5 65t-107.5 115.5t-41.5 172v297l195 129v-393q0 -59 24.5 -99t62.5 -64t84 -34t89 -10q40 0 82.5 9t79.5 28.5t63 51.5t33 77h-137v197h418v-197h-82z" />
    <glyph glyph-name="yehfinalarabic" unicode="&#x64a;" horiz-adv-x="1081" arabic-form="final" 
d="M541 -561q0 -21 -8 -38.5t-22 -31t-32.5 -21t-38.5 -7.5t-37.5 8t-31 21.5t-21.5 31t-8 37.5t8 37.5t21.5 31t31 21.5t37.5 8t38.5 -8t32.5 -21.5t22 -31t8 -37.5zM770 -561q0 -21 -8 -38.5t-22 -31t-32 -21t-38 -7.5t-38 8t-31.5 21.5t-21.5 31t-8 37.5t8 37.5t21.5 31
t31.5 21.5t38 8t38 -7.5t32 -21t22 -31t8 -38.5zM1008 0v-18q0 -74 -34.5 -137.5t-95.5 -110t-144.5 -73t-180.5 -26.5q-79 0 -160.5 20.5t-147.5 65t-107.5 115.5t-41.5 172v297l195 129v-393q0 -59 24.5 -99t62.5 -64t84 -34t89 -10q40 0 82.5 9t79.5 28.5t63 51.5t33 77
h-137v197h418v-197h-82z" />
    <glyph glyph-name="yehinitialarabic" unicode="&#x64a;" horiz-adv-x="551" arabic-form="initial" 
d="M227 -260q0 -20 -7.5 -37.5t-21 -31t-31 -21.5t-38.5 -8t-39 8t-31.5 21.5t-21.5 31t-8 37.5t8 38t21.5 32t31.5 22t39 8q42 0 70 -29t28 -71zM457 -260q0 -20 -7.5 -37.5t-21 -31t-31.5 -21.5t-39 -8t-39 8t-31.5 21.5t-21.5 31t-8 37.5t8 38t21.5 32t31.5 22t39 8
t39 -8t31.5 -21.5t21 -31.5t7.5 -39zM0 0v197h193q11 0 23 2.5t21.5 10t16 20.5t6.5 34v416h197v-420q0 -58 -19.5 -105.5t-54 -82t-82 -53.5t-104.5 -19h-197z" />
    <glyph glyph-name="yehmedialarabic" unicode="&#x64a;" horiz-adv-x="528" arabic-form="medial" 
d="M0 0v197h260v483h197v-483h80v-197h-537zM227 -260q0 -20 -7.5 -37.5t-21 -31t-31 -21.5t-38.5 -8t-39 8t-31.5 21.5t-21.5 31t-8 37.5t8 38t21.5 32t31.5 22t39 8q42 0 70 -29t28 -71zM457 -260q0 -20 -7.5 -37.5t-21 -31t-31.5 -21.5t-39 -8t-39 8t-31.5 21.5t-21.5 31
t-8 37.5t8 38t21.5 32t31.5 22t39 8t39 -8t31.5 -21.5t21 -31.5t7.5 -39z" />
    <glyph glyph-name=".notdef" horiz-adv-x="2048" 
d="M1749 0h-1536v1536h1536v-1536zM1620 129v1278h-1278v-1278h1278z" />
    <glyph glyph-name=".null" 
 />
    <glyph glyph-name="nonmarkingreturn" horiz-adv-x="258" 
 />
    <glyph glyph-name="space" unicode=" " horiz-adv-x="258" 
 />
    <glyph glyph-name="exclam" unicode="!" horiz-adv-x="395" 
d="M315 104q0 -24 -10 -45.5t-26.5 -37t-37.5 -24.5t-44 -9t-44.5 9t-37.5 24.5t-25.5 37t-9.5 45.5q0 25 9.5 46t25.5 37t37.5 25t44.5 9t44 -9t37.5 -25t26.5 -37t10 -46zM115 293l-29 663h225l-28 -663h-168z" />
    <glyph glyph-name="quotedbl" unicode="&#x22;" horiz-adv-x="530" 
d="M94 637l-33 319h172l-32 -319h-107zM330 637l-31 319h170l-31 -319h-108z" />
    <glyph glyph-name="numbersign" unicode="#" horiz-adv-x="975" 
d="M612 590h-192l-51 -225h192zM481 0l56 244h-195l-53 -244h-139l53 244h-146l25 121h147l52 225h-146l25 123h147l53 243h140l-54 -243h193l55 243h137l-53 -243h140l-27 -123h-139l-50 -225h140l-29 -121h-139l-53 -244h-140z" />
    <glyph glyph-name="dollar" unicode="$" horiz-adv-x="788" 
d="M438 160q28 10 50 35t22 75q0 32 -20 56t-52 43v-209zM350 803q-43 -13 -57 -38.5t-14 -57.5q0 -23 19.5 -42t51.5 -34v172zM350 -129v115q-33 1 -69 3.5t-71.5 8.5t-68.5 15.5t-61 23.5l31 182q21 -11 48 -22.5t58.5 -21.5t65 -17t67.5 -8v260l-94.5 41t-88.5 55
t-65.5 81t-25.5 118q0 63 19.5 109.5t55.5 79t86.5 51.5t112.5 26v119h88v-117q75 -2 131.5 -18t100.5 -37l-35 -170q-35 20 -85 39t-112 22v-217q46 -20 94.5 -44t88 -58.5t65 -81.5t25.5 -113q0 -134 -70 -211t-203 -94v-119h-88z" />
    <glyph glyph-name="percent" unicode="%" horiz-adv-x="1430" 
d="M313 520q17 0 36.5 4t36 21t27.5 52t11 97q0 63 -11 98.5t-27.5 53.5t-36 22t-36.5 4q-16 0 -35 -4t-35 -22t-27 -53.5t-11 -98.5q0 -62 11 -97t27 -52t35 -21t35 -4zM1114 92q17 0 36.5 4t36 21.5t27.5 53t11 97.5t-11 97.5t-27.5 53t-36 21.5t-36.5 4t-36 -4t-35 -21.5
t-26.5 -53t-10.5 -97.5t10.5 -97.5t26.5 -53t35 -21.5t36 -4zM313 418q-50 0 -97.5 9t-84.5 38t-59.5 83.5t-22.5 145.5q0 88 21 142.5t57 85t84 41t102 10.5t103 -11.5t85.5 -42t58.5 -85t22 -140.5q0 -90 -23 -144t-60.5 -83.5t-86 -39t-99.5 -9.5zM399 0l488 956h123
l-488 -956h-123zM1114 -8q-50 0 -97.5 9t-84.5 38t-59.5 83.5t-22.5 145.5q0 87 21 141.5t57 85t84 41.5t102 11t102 -11.5t84.5 -42t58 -85t21.5 -140.5q0 -90 -23 -144.5t-60.5 -84t-85 -38.5t-97.5 -9z" />
    <glyph glyph-name="ampersand" unicode="&#x26;" horiz-adv-x="1049" 
d="M575 195q-60 54 -113.5 112.5l-107.5 120.5q-14 -7 -29.5 -19t-29 -31.5t-22.5 -48t-9 -67.5q0 -66 43.5 -97.5t112.5 -31.5q52 0 93.5 19.5t61.5 42.5zM967 -4q-23 -6 -49 -8t-48 -2q-31 0 -56 8.5t-46.5 22t-41 30.5l-38.5 35q-42 -42 -115 -69t-167 -27
q-70 0 -131.5 14.5t-107.5 45.5t-72.5 80.5t-26.5 119.5q0 81 24.5 135t57 88t65.5 51.5t51 24.5q-14 18 -29 40.5t-28 49.5t-21 57.5t-8 65.5q0 42 14.5 81t45.5 68.5t78.5 47.5t113.5 18q46 0 85.5 -5t70.5 -11.5t54 -14t36 -12.5l-23 -148q-38 17 -84 29t-100 12
q-40 0 -68 -17t-28 -65q0 -33 16 -68t52 -81t93 -106l138 -144q18 25 34.5 84.5t16.5 153.5h266l-22 -146h-97q-1 -22 -6.5 -51.5t-16 -59.5t-25.5 -57.5t-33 -46.5q27 -26 57.5 -47.5t71.5 -21.5q17 0 36.5 2.5t34.5 7.5z" />
    <glyph glyph-name="quotesingle" unicode="'" horiz-adv-x="295" 
d="M94 637l-33 319h172l-32 -319h-107z" />
    <glyph glyph-name="parenleft" unicode="(" horiz-adv-x="508" 
d="M319 -236q-43 61 -86.5 139.5t-79 170t-57.5 193.5t-22 210t22 210t57.5 193.5t79 170.5t86.5 141l158 -88q-51 -75 -91 -146.5t-67.5 -146t-42 -156t-14.5 -178.5t14.5 -178.5t42 -156t67.5 -146t91 -146.5z" />
    <glyph glyph-name="parenright" unicode=")" horiz-adv-x="508" 
d="M31 -150q51 75 91 146.5t67.5 146t42 156t14.5 178.5t-14.5 178.5t-42 156t-67.5 146t-91 146.5l157 88q44 -62 88 -141t79 -170.5t57 -193.5t22 -210t-22 -210t-57 -193.5t-79 -170t-88 -139.5z" />
    <glyph glyph-name="asterisk" unicode="*" horiz-adv-x="487" 
d="M274 756l21 -133h-100l18 133l-102 -76l-52 84l119 47l-119 49l52 84l102 -76l-18 133h100l-21 -133l103 76l51 -84l-119 -49l119 -47l-51 -84z" />
    <glyph glyph-name="plus" unicode="+" horiz-adv-x="819" 
d="M330 98v281h-254v158h254v284h157v-284h254v-158h-254v-281h-157z" />
    <glyph glyph-name="comma" unicode="," horiz-adv-x="375" 
d="M31 -135l31.5 21t37.5 29t31.5 34.5t13.5 36.5t-11.5 32t-25 28.5t-25 32.5t-11.5 44q0 49 32 75.5t84 26.5q22 0 43 -9t37.5 -26.5t26.5 -43t10 -58.5q0 -54 -17 -100.5t-47.5 -84t-73.5 -67.5t-95 -51z" />
    <glyph glyph-name="hyphen" unicode="-" horiz-adv-x="594" 
d="M98 281v153h398v-153h-398z" />
    <glyph glyph-name="period" unicode="." horiz-adv-x="375" 
d="M305 106q0 -24 -10 -45.5t-26.5 -37t-38 -24.5t-44.5 -9t-44 9t-37 24.5t-25.5 37t-9.5 45.5q0 25 9.5 46.5t25.5 37.5t37 25.5t44 9.5t44.5 -9.5t38 -25.5t26.5 -37.5t10 -46.5z" />
    <glyph glyph-name="slash" unicode="/" horiz-adv-x="766" 
d="M43 -43l485 1042h195l-487 -1042h-193z" />
    <glyph glyph-name="zero" unicode="0" horiz-adv-x="1020" 
d="M510 154q109 0 165 76.5t56 248.5q0 171 -56 248.5t-165 77.5t-165 -77.5t-56 -248.5q0 -172 56 -248.5t165 -76.5zM510 -14q-92 0 -170.5 28t-137 88t-91.5 153t-33 224q0 130 33 223.5t91.5 153.5t137 88.5t170.5 28.5q91 0 170 -28.5t137.5 -88.5t91.5 -153.5
t33 -223.5q0 -131 -33 -224t-91.5 -153t-137.5 -88t-170 -28z" />
    <glyph glyph-name="one" unicode="1" horiz-adv-x="535" 
d="M195 0v762l-154 -72v182l176 84h178v-956h-200z" />
    <glyph glyph-name="two" unicode="2" horiz-adv-x="791" 
d="M27 0v147l209 184.5t143 138.5t82 107.5t26 92.5q0 27 -7 51.5t-24.5 43t-47 29.5t-74.5 11q-51 0 -91 -7t-73 -18t-60 -25t-51 -28l31 193q39 14 72.5 24t66.5 16.5t68.5 9.5t79.5 3q87 0 148 -22.5t99.5 -60t56 -87t17.5 -103.5q0 -84 -31.5 -153.5t-86 -132
t-127.5 -121.5l-156 -123h408l-29 -170h-649z" />
    <glyph glyph-name="three" unicode="3" horiz-adv-x="784" 
d="M82 233q21 -14 46 -29t56 -27t68 -19.5t82 -7.5q33 0 63 9t53 26.5t36.5 43t13.5 58.5q0 66 -41 100.5t-115 34.5h-133v156h133q23 0 46.5 4.5t42 17t30.5 35t12 59.5q0 36 -13.5 58.5t-34.5 35t-47 17t-52 4.5q-81 0 -150.5 -23t-116.5 -51l29 183q22 10 50.5 19.5
t64 17.5t79 13t95.5 5q56 0 110.5 -15.5t98 -47.5t70 -81.5t26.5 -117.5q0 -51 -13.5 -87t-36 -60.5t-50.5 -39.5t-56 -24q33 -4 65.5 -19t58 -40.5t41.5 -63t16 -86.5q0 -70 -23.5 -126.5t-68 -96t-109 -61t-146.5 -21.5q-60 0 -107.5 6.5t-85 17t-66 24.5t-50.5 29z" />
    <glyph glyph-name="four" unicode="4" horiz-adv-x="881" 
d="M492 688l-230 -330h230v330zM492 0v195h-410l-33 149l428 612h221v-598h142l-23 -163h-119v-195h-206z" />
    <glyph glyph-name="five" unicode="5" horiz-adv-x="809" 
d="M86 240q30 -21 59 -38t62 -29.5t72.5 -19t91.5 -6.5q31 0 61.5 8t54.5 26.5t39 48.5t15 75q0 83 -45 120.5t-117 37.5q-85 0 -159 -17t-128 -38l31 548h575l-24 -170h-365l-12 -178q19 8 50 14.5t71 6.5q73 0 134 -20t105.5 -60t69.5 -101t25 -143q0 -88 -33 -149
t-86 -98.5t-121.5 -54.5t-138.5 -17q-62 0 -110 7t-85.5 18t-66 24.5t-52.5 27.5z" />
    <glyph glyph-name="six" unicode="6" horiz-adv-x="909" 
d="M289 389q0 -72 14.5 -118.5t38.5 -73t55 -37t64 -10.5q28 0 59 6.5t56.5 23t42 46t16.5 75.5q0 43 -13.5 72t-35.5 46t-49 24.5t-54 7.5q-68 0 -115 -18t-79 -44zM770 748q-43 24 -109.5 42.5t-154.5 18.5q-68 0 -110.5 -22.5t-66 -59.5t-32 -84t-8.5 -96q29 25 85.5 46
t133.5 21q66 0 126.5 -17.5t106.5 -55t73.5 -96t27.5 -140.5q0 -67 -17.5 -117t-46.5 -85.5t-67.5 -58t-81 -35.5t-86 -18t-82.5 -5q-89 0 -160 26t-120.5 82.5t-76 147t-26.5 219.5q0 118 23 213t73.5 161.5t131 102t196.5 35.5q102 0 174 -16t123 -37z" />
    <glyph glyph-name="seven" unicode="7" horiz-adv-x="713" 
d="M100 0l355 786h-432l26 170h625v-147l-355 -809h-219z" />
    <glyph glyph-name="eight" unicode="8" horiz-adv-x="924" 
d="M649 279q0 37 -13.5 62.5t-38 41.5t-59 23.5t-75.5 7.5q-42 0 -76.5 -7.5t-59.5 -23.5t-39 -41.5t-14 -62.5q0 -32 14 -57t39 -42t59.5 -26t76.5 -9q40 0 74.5 8.5t59 25t38.5 42t14 58.5zM627 688q0 56 -42 90.5t-122 34.5q-82 0 -123 -34.5t-41 -90.5q0 -35 12.5 -58.5
t34.5 -38.5t52 -21.5t65 -6.5q34 0 64 6.5t52.5 21.5t35 38.5t12.5 58.5zM252 489q-84 22 -122 76.5t-38 134.5q0 73 29 125t79.5 85t118 48t144.5 15q76 0 143 -15t117 -48t79 -85t29 -125q0 -80 -37 -133t-120 -78q36 -9 69 -26t58 -43t40 -61t15 -80q0 -83 -31.5 -139
t-85 -90t-125 -49t-151.5 -15t-151.5 15t-125.5 49t-86 90t-32 139q0 46 15 81t40.5 60.5t58.5 42.5t70 26z" />
    <glyph glyph-name="nine" unicode="9" horiz-adv-x="909" 
d="M621 575q0 72 -16 118t-41 71.5t-55.5 35t-59.5 9.5q-28 0 -58.5 -6.5t-56 -23.5t-42 -46.5t-16.5 -75.5q0 -43 13.5 -71.5t35 -46t48.5 -24.5t55 -7q34 0 64 6t55 15.5t44 21.5t30 24zM111 236q20 -14 49.5 -29t67 -28t82.5 -21t96 -8q68 0 110 20t65.5 56t31.5 85.5
t8 108.5q-28 -32 -84 -53t-134 -21q-66 0 -126.5 17t-107 54t-74 95.5t-27.5 140.5q0 63 17 111.5t46.5 84t68 59.5t80.5 38.5t85.5 20.5t83.5 6q90 0 160.5 -26t120 -83t75.5 -147t26 -217q0 -119 -22.5 -214t-72.5 -161.5t-130.5 -102.5t-197.5 -36q-56 0 -106 8t-92 19.5
t-74.5 25t-53.5 24.5z" />
    <glyph glyph-name="colon" unicode=":" horiz-adv-x="406" 
d="M319 106q0 -24 -10 -45.5t-26.5 -37t-37.5 -24.5t-44 -9t-44 9t-37 24.5t-25 37t-9 45.5q0 25 9 46.5t25 37.5t37 25.5t44 9.5t44 -9.5t37.5 -25.5t26.5 -37.5t10 -46.5zM319 502q0 -25 -10 -46.5t-26.5 -37t-37.5 -24.5t-44 -9t-44 9t-37 24.5t-25 37t-9 46.5q0 24 9 46
t25 38t37 25.5t44 9.5t44 -9.5t37.5 -25.5t26.5 -38t10 -46z" />
    <glyph glyph-name="semicolon" unicode=";" horiz-adv-x="406" 
d="M43 -135l31.5 21t38 29t32 34.5t13.5 36.5t-11.5 32t-25 28.5t-24.5 32.5t-11 44q0 49 31 75.5t84 26.5q21 0 42.5 -9t38 -26.5t27 -43t10.5 -58.5q0 -54 -17 -100.5t-48 -84t-74 -67.5t-94 -51zM319 502q0 -25 -10 -46.5t-26.5 -37t-37.5 -24.5t-44 -9t-44 9t-37 24.5
t-25 37t-9 46.5q0 24 9 46t25 38t37 25.5t44 9.5t44 -9.5t37.5 -25.5t26.5 -38t10 -46z" />
    <glyph glyph-name="less" unicode="&#x3c;" horiz-adv-x="819" 
d="M88 385v147l643 281v-164l-452 -190v-4l452 -189v-164z" />
    <glyph glyph-name="equal" unicode="=" horiz-adv-x="819" 
d="M76 549v158h667v-158h-667zM76 211v158h667v-158h-667z" />
    <glyph glyph-name="greater" unicode="&#x3e;" horiz-adv-x="819" 
d="M88 102v164l455 191v2l-455 192v162l643 -281v-149z" />
    <glyph glyph-name="question" unicode="?" horiz-adv-x="662" 
d="M391 104q0 -24 -10 -45.5t-26.5 -37t-38 -24.5t-44.5 -9t-44 9t-37 24.5t-25.5 37t-9.5 45.5q0 25 9.5 46t25.5 37t37 25t44 9t44.5 -9t38 -25t26.5 -37t10 -46zM178 293v115q0 45 16 74.5t40 50.5t51.5 37t51.5 34t40 42.5t16 62.5q0 16 -5 35.5t-17.5 36t-34 27.5
t-55.5 11q-48 0 -92 -9t-97 -34l-33 144q62 29 120 41t124 12q70 0 125.5 -17t94 -48.5t59 -76.5t20.5 -102q0 -54 -17.5 -93.5t-43 -69.5t-56 -52.5l-56 -42.5t-43 -39.5t-17.5 -42.5v-96h-191z" />
    <glyph glyph-name="at" unicode="@" horiz-adv-x="1507" 
d="M844 307q-14 1 -27 3q-11 1 -25 2t-26 1q-39 0 -63.5 -9.5t-39 -25t-19.5 -34.5t-5 -37q0 -23 8 -38.5t21 -24.5t29 -13t32 -4q21 0 42 5t37 17t26 32t10 50v76zM1163 -262q-22 -8 -65.5 -16.5t-103.5 -15t-133.5 -11t-155.5 -4.5q-163 0 -279 44t-190.5 125t-109 194.5
t-34.5 252.5q0 171 44 298t129 211t209.5 125.5t285.5 41.5q158 0 280 -37t205.5 -111.5t126.5 -187t43 -262.5q0 -93 -17.5 -158.5t-44.5 -110t-61 -71t-67.5 -40t-62.5 -17.5t-46 -4q-88 0 -153 21.5t-107 84.5q-8 -15 -23 -32.5t-38.5 -32.5t-57.5 -25t-80 -10
q-57 0 -96.5 15t-64 41.5t-36 62.5t-11.5 79q0 67 24.5 112.5t66 73.5t96.5 40t116 12q14 0 29.5 -1t29.5 -2q16 -2 33 -3v31q0 31 -9 50t-27 29.5t-45 13.5t-63 3q-69 0 -121.5 -12.5t-84.5 -24.5l32 147q28 9 61 16q29 6 67 11.5t83 5.5q73 0 129 -11t93.5 -39.5t57 -77.5
t19.5 -126v-237q0 -39 20 -61.5t60 -22.5q35 0 57 24t34 62.5t16 87t4 96.5q0 113 -26.5 200.5t-83 147t-145 90.5t-212.5 31q-131 0 -221.5 -37t-147.5 -107.5t-82.5 -172t-25.5 -230.5q0 -117 25 -206t77 -148t132.5 -89t191.5 -30q73 0 140 4.5t122.5 11.5t98.5 16t69 17
z" />
    <glyph glyph-name="A" unicode="A" horiz-adv-x="895" 
d="M446 686l-96 -336h193zM643 0l-53 178h-287l-53 -178h-223l311 956h217l313 -956h-225z" />
    <glyph glyph-name="B" unicode="B" horiz-adv-x="854" 
d="M446 166q20 0 43.5 3t43.5 15.5t33.5 37.5t13.5 69q0 24 -7.5 46.5t-23.5 39.5t-42 27t-63 10h-137v-248h139zM442 580q31 0 51.5 9.5t32.5 25t16.5 34.5t4.5 37t-5.5 37t-18 34t-34 24.5t-53.5 9.5h-129v-211h135zM94 0v956h348q34 0 71 -2.5t73 -11.5t69 -26
t57.5 -46.5t39 -73.5t14.5 -106q0 -47 -14 -80.5t-34.5 -56.5t-44 -36t-42.5 -19q44 -12 75.5 -35t52 -53t30.5 -64.5t10 -69.5q0 -144 -90 -210t-267 -66h-348z" />
    <glyph glyph-name="C" unicode="C" horiz-adv-x="879" 
d="M799 16q-22 -7 -53.5 -12.5t-65 -9.5t-66 -6t-55.5 -2q-109 0 -199.5 31t-155 91.5t-100.5 150t-36 206.5q0 105 29.5 197.5t89 161.5t149.5 109t211 40q56 0 103.5 -6.5t84.5 -14.5t63 -17l38 -13l-37 -189q-48 22 -110 38.5t-130 16.5q-74 0 -125.5 -24t-84 -67.5
t-47.5 -104.5t-15 -135q0 -94 31 -150.5t76.5 -87t96.5 -40t91 -9.5q24 0 57 4t68 11t68 14.5t56 15.5z" />
    <glyph glyph-name="D" unicode="D" horiz-adv-x="993" 
d="M432 166q28 0 58.5 3t60.5 13.5t57 31t47.5 55t32.5 85.5t12 123q0 107 -26.5 169.5t-66 94.5t-86.5 41t-89 9h-125v-625h125zM94 0v956h359q128 0 217 -33t144.5 -94.5t80.5 -150.5t25 -201q0 -94 -19 -165.5t-52.5 -124.5t-78.5 -89t-96.5 -57.5t-107 -31t-109.5 -9.5
h-363z" />
    <glyph glyph-name="E" unicode="E" horiz-adv-x="762" 
d="M94 0v956h611l-31 -178h-367v-200h336l-29 -179h-307v-221h398l-31 -178h-580z" />
    <glyph glyph-name="F" unicode="F" horiz-adv-x="719" 
d="M94 0v956h588l-29 -178h-346v-221h314l-31 -178h-283v-379h-213z" />
    <glyph glyph-name="G" unicode="G" horiz-adv-x="975" 
d="M684 403h-170l29 177h344v-551q-30 -9 -67.5 -17t-80 -14t-88.5 -9t-92 -3q-110 0 -200 30t-153.5 90t-98.5 149t-35 208q0 105 31 198t92 162t152.5 109.5t211.5 40.5q57 0 101 -3.5t79.5 -10.5t65.5 -16t59 -19l-47 -191q-21 12 -50 23t-62 18.5t-68.5 12t-69.5 4.5
q-73 0 -125 -25t-85.5 -69.5t-49.5 -105.5t-16 -134q0 -63 14 -109t37 -77.5t53.5 -51.5t62.5 -30.5t64.5 -14.5t59.5 -4q21 0 50.5 3t51.5 11v219z" />
    <glyph glyph-name="H" unicode="H" horiz-adv-x="965" 
d="M657 0v399h-350v-399h-213v956h213v-378h350v378h213v-956h-213z" />
    <glyph glyph-name="I" unicode="I" horiz-adv-x="410" 
d="M98 0v956h213v-956h-213z" />
    <glyph glyph-name="J" unicode="J" horiz-adv-x="555" 
d="M14 178q29 -8 64 -14t61 -6q54 0 82.5 23.5t28.5 92.5v504h-178l30 178h361v-657q0 -90 -21.5 -150t-59.5 -96.5t-89.5 -51.5t-110.5 -15q-11 0 -29.5 1t-39.5 3t-40.5 4.5t-31.5 5.5z" />
    <glyph glyph-name="K" unicode="K" horiz-adv-x="907" 
d="M657 0l-215 442l-135 -170v-272h-213v956h213v-421l305 421h244l-270 -362l309 -594h-238z" />
    <glyph glyph-name="L" unicode="L" horiz-adv-x="698" 
d="M94 0v956h213v-778h355l-29 -178h-539z" />
    <glyph glyph-name="M" unicode="M" horiz-adv-x="1188" 
d="M905 0v739l-198 -739h-228l-196 739v-739h-189v956h314l186 -755l209 755h291v-956h-189z" />
    <glyph glyph-name="N" unicode="N" horiz-adv-x="965" 
d="M690 0l-403 604v-604h-193v956h180l404 -604v604h192v-956h-180z" />
    <glyph glyph-name="O" unicode="O" horiz-adv-x="1044" 
d="M522 162q57 0 100 17.5t72 55.5t43.5 98t14.5 146q0 85 -14.5 145.5t-43.5 98t-72 55t-100 17.5q-56 0 -98.5 -17.5t-71.5 -55t-44 -98t-15 -145.5q0 -86 15 -146t44 -98t71.5 -55.5t98.5 -17.5zM522 -14q-95 0 -177 28t-142 88t-94.5 153t-34.5 224q0 130 34.5 223.5
t94.5 153.5t142 88.5t177 28.5t177 -28.5t142.5 -88.5t95 -153.5t34.5 -223.5q0 -131 -34.5 -224t-95 -153t-142.5 -88t-177 -28z" />
    <glyph glyph-name="P" unicode="P" horiz-adv-x="836" 
d="M428 487q63 0 97 40.5t34 105.5q0 66 -34.5 107.5t-96.5 41.5h-121v-295h121zM94 0v956h320q103 0 173 -27t112.5 -71.5t60.5 -103t18 -121.5q0 -75 -22.5 -134.5t-65.5 -101t-106.5 -63t-145.5 -21.5h-131v-313h-213z" />
    <glyph glyph-name="Q" unicode="Q" horiz-adv-x="1044" 
d="M522 164q56 0 99 17t72 54.5t44 97.5t15 146q0 85 -15 145.5t-44 98t-72 55t-99 17.5q-57 0 -99.5 -17.5t-71.5 -55t-43.5 -98t-14.5 -145.5q0 -86 14.5 -146t43.5 -97.5t71.5 -54.5t99.5 -17zM489 -12q-89 4 -165 34t-131.5 90t-87 151t-31.5 216q0 130 34.5 223.5
t94.5 153.5t142 88.5t177 28.5t177 -28.5t142.5 -88.5t95 -153.5t34.5 -223.5q0 -96 -19 -171.5t-53 -132.5t-82 -96t-106 -61l178 -92l-94 -159z" />
    <glyph glyph-name="R" unicode="R" horiz-adv-x="856" 
d="M428 487q63 0 97 40.5t34 105.5q0 66 -34.5 107.5t-96.5 41.5h-121v-295h121zM575 0l-153 313h-115v-313h-213v956h320q103 0 173 -27t112.5 -71.5t60.5 -103t18 -121.5q0 -102 -40.5 -174.5t-119.5 -110.5l193 -348h-236z" />
    <glyph glyph-name="S" unicode="S" horiz-adv-x="727" 
d="M86 225q23 -10 52 -19.5t61.5 -17.5t68 -13t70.5 -5q13 0 36.5 2t47 12.5t40.5 31t17 58.5q0 32 -18.5 54.5t-48.5 40t-68.5 32.5t-78.5 33t-78.5 40t-68.5 53.5t-48.5 74.5t-18.5 103q0 71 25.5 122t71.5 83.5t109.5 47.5t139.5 15q33 0 67.5 -4.5t67.5 -11.5t62 -17
t51 -20l-35 -185q-45 20 -98 38t-121 18q-41 0 -67 -8t-40 -20.5t-19 -27.5t-5 -28q0 -30 31.5 -51t79 -42l102.5 -45t102.5 -60t79 -87.5t31.5 -126.5q0 -152 -88.5 -230.5t-255.5 -78.5q-35 0 -72 3t-74.5 9t-73.5 15.5t-67 23.5z" />
    <glyph glyph-name="T" unicode="T" horiz-adv-x="786" 
d="M285 0v778h-230v178h690l-30 -178h-217v-778h-213z" />
    <glyph glyph-name="U" unicode="U" horiz-adv-x="963" 
d="M655 956h215v-630q0 -31 -6 -68t-22 -75t-43.5 -73.5t-71 -63t-104 -44t-142.5 -16.5t-142.5 16.5t-103.5 44t-71 63t-44 73.5t-22 75t-6 68v630h213v-612q0 -32 9.5 -63.5t30.5 -56t54.5 -39.5t81.5 -15t81 15t53.5 39.5t30 56t9.5 63.5v612z" />
    <glyph glyph-name="V" unicode="V" horiz-adv-x="895" 
d="M338 0l-307 956h221l197 -706l194 706h221l-307 -956h-219z" />
    <glyph glyph-name="W" unicode="W" horiz-adv-x="1323" 
d="M825 0l-163 608l-162 -608h-193l-270 956h221l154 -612l151 612h199l151 -612l152 612h221l-270 -956h-191z" />
    <glyph glyph-name="X" unicode="X" horiz-adv-x="858" 
d="M612 0l-186 377l-180 -377h-228l265 504l-240 452h227l156 -335l162 335h225l-235 -452l262 -504h-228z" />
    <glyph glyph-name="Y" unicode="Y" horiz-adv-x="831" 
d="M311 0v377l-297 579h228l174 -381l176 381h225l-295 -579v-377h-211z" />
    <glyph glyph-name="Z" unicode="Z" horiz-adv-x="819" 
d="M57 0v147l410 633h-391l28 176h635v-145l-420 -633h431v-178h-693z" />
    <glyph glyph-name="bracketleft" unicode="[" horiz-adv-x="479" 
d="M98 -236v1428h357v-154h-172v-1122h172v-152h-357z" />
    <glyph glyph-name="backslash" unicode="\" horiz-adv-x="766" 
d="M528 -43l-485 1042h195l485 -1042h-195z" />
    <glyph glyph-name="bracketright" unicode="]" horiz-adv-x="479" 
d="M25 -236v152h172v1122h-172v154h356v-1428h-356z" />
    <glyph glyph-name="asciicircum" unicode="^" horiz-adv-x="819" 
d="M600 408l-192 387h-5l-186 -387h-197l312 565h149l316 -565h-197z" />
    <glyph glyph-name="underscore" unicode="_" horiz-adv-x="659" 
d="M-10 -279v156h680v-156h-680z" />
    <glyph glyph-name="grave" unicode="`" horiz-adv-x="369" 
d="M215 782l-215 189h199l170 -189h-154z" />
    <glyph glyph-name="a" unicode="a" horiz-adv-x="743" 
d="M446 307q-18 3 -39.5 4.5t-39.5 1.5q-39 0 -64 -9.5t-39 -25t-19 -34.5t-5 -37q0 -23 8.5 -38.5t21.5 -24.5t29.5 -13t32.5 -4q21 0 41.5 5t36.5 17t26 32t10 50v76zM735 20q-34 -17 -74.5 -23.5t-80.5 -6.5q-33 0 -55.5 7.5t-37 20t-23 28t-13.5 30.5q-20 -23 -39.5 -39
t-42 -26.5t-49 -15.5t-60.5 -5q-58 0 -98 15t-65 41.5t-36.5 62.5t-11.5 79q0 67 25 112.5t67 73.5t97.5 40t115.5 12q9 0 22.5 -0.5t27 -1.5t25 -2t17.5 -2v31q0 31 -9 50t-27 29.5t-45 13.5t-62 3q-65 0 -117.5 -11.5t-89.5 -25.5l31 147q50 17 103 25t110 8
q72 0 127.5 -11t93 -39.5t57 -77.5t19.5 -126v-276q0 -35 39 -35q13 0 39 6z" />
    <glyph glyph-name="b" unicode="b" horiz-adv-x="805" 
d="M281 135q21 -6 53 -11t63 -5t58.5 7.5t47 30.5t31 65t11.5 110q0 112 -28 159.5t-91 47.5q-42 0 -69.5 -11.5t-44.5 -33t-24 -52.5t-7 -71v-236zM88 956h193v-338q17 16 37 29.5t45.5 23t58 14.5t74.5 5q53 0 98 -21t77.5 -64t51 -108.5t18.5 -154.5q0 -81 -19 -146
t-58.5 -110.5t-100 -70.5t-143.5 -25q-38 0 -83.5 2t-91 6.5t-87 10.5t-70.5 14v933z" />
    <glyph glyph-name="c" unicode="c" horiz-adv-x="639" 
d="M573 16q-18 -7 -42.5 -12.5t-50.5 -9.5t-53.5 -6t-51.5 -2q-61 0 -118 19.5t-101.5 62.5t-71.5 111.5t-27 166.5q0 78 23.5 141.5t68 108.5t109.5 69.5t148 24.5q74 0 123.5 -11t78.5 -22l-30 -147q-38 15 -73.5 24t-80.5 9q-52 0 -85 -18.5t-52 -48t-26 -65.5t-7 -71
q0 -42 7.5 -79.5t28.5 -65.5t57.5 -44t94.5 -16q18 0 40 2t45 6t43.5 8.5t35.5 10.5z" />
    <glyph glyph-name="d" unicode="d" horiz-adv-x="834" 
d="M526 539q-20 8 -51 15t-72 7q-32 0 -57.5 -8t-44.5 -31.5t-29 -65.5t-10 -110q0 -57 8.5 -96.5t24.5 -63.5t39.5 -34.5t54.5 -10.5q42 0 68.5 11.5t41.5 33t21 52.5t6 71v230zM815 20q-32 -17 -73 -23.5t-83 -6.5q-37 0 -61 9.5t-38.5 23.5t-21.5 29t-10 26
q-32 -42 -88.5 -65t-126.5 -23q-54 0 -99 20.5t-78 63t-51.5 108t-18.5 154.5q0 73 15.5 137.5t50 112.5t91 76t137.5 28q62 0 101 -6.5t65 -15.5v288h193v-796q0 -35 39 -35q14 0 37 6z" />
    <glyph glyph-name="e" unicode="e" horiz-adv-x="731" 
d="M477 414q1 18 0.5 43.5t-10.5 49.5t-32 41t-62 17q-32 0 -53.5 -11.5t-35.5 -32t-20 -48t-6 -59.5h219zM629 18q-35 -11 -91 -19.5t-143 -8.5q-103 0 -168 26.5t-102 72.5t-50.5 108t-13.5 133q0 60 12.5 123.5t47 116t95 86.5t157.5 34q87 0 145 -24.5t93 -66.5
t50 -97.5t15 -116.5q0 -15 -2.5 -39t-7.5 -47h-408q-1 -29 3 -59t21.5 -54t52.5 -39.5t97 -15.5q84 0 138.5 12t88.5 27z" />
    <glyph glyph-name="f" unicode="f" horiz-adv-x="508" 
d="M121 0v547h-107l29 133h78v59q0 45 9.5 88.5t35 78t70 56t114.5 21.5q42 0 82.5 -5t83.5 -17l-31 -140q-15 6 -42.5 11.5t-49.5 5.5q-45 0 -63.5 -16.5t-18.5 -65.5v-76h152v-133h-152v-547h-190z" />
    <glyph glyph-name="g" unicode="g" horiz-adv-x="799" 
d="M522 547q-21 5 -53.5 9.5t-62.5 4.5q-26 0 -52.5 -6t-47.5 -26t-34.5 -58.5t-13.5 -103.5q0 -60 8 -99.5t23 -63t37 -33t51 -9.5q82 0 113.5 41.5t31.5 124.5v219zM522 78q-18 -14 -37.5 -26.5t-43.5 -21.5t-56 -14.5t-76 -5.5q-54 0 -99.5 21t-78.5 64t-51.5 108.5
t-18.5 154.5q0 81 22.5 143t64 104t101 63.5t134.5 21.5q106 0 184.5 -11.5t147.5 -27.5v-520q0 -140 -28 -221t-76.5 -122.5t-114 -52.5t-140.5 -11q-39 0 -80.5 4t-80 11t-72 16t-57.5 18l36 147q23 -9 52 -18t60.5 -15.5t65 -11t66.5 -4.5q27 0 58 3.5t57 18t43.5 44.5
t17.5 83v58z" />
    <glyph glyph-name="h" unicode="h" horiz-adv-x="813" 
d="M805 16q-32 -17 -74 -23.5t-84 -6.5q-15 0 -37.5 4t-43.5 17.5t-36.5 38.5t-15.5 67v311q0 34 -2.5 54.5t-10 31.5t-20.5 14.5t-35 3.5q-16 0 -38 -7.5t-45.5 -19t-46.5 -25.5t-40 -27v-449h-192v956h192v-352q12 9 33 23.5t50 28.5t63.5 24t73.5 10q49 0 88 -7.5
t66.5 -30t42 -65t14.5 -112.5v-319q0 -35 38 -35q18 0 39 6z" />
    <glyph glyph-name="i" unicode="i" horiz-adv-x="391" 
d="M379 16q-34 -17 -76 -23.5t-82 -6.5q-15 0 -38 4t-44 17.5t-36 38.5t-15 67v567h191v-524q0 -35 38 -35q15 0 39 6zM295 874q0 -23 -9 -43.5t-25 -35.5t-36.5 -24t-42.5 -9q-21 0 -41.5 9t-36 24t-25 35.5t-9.5 43.5t9.5 43.5t25 36t36 24.5t41.5 9q22 0 42.5 -9
t36.5 -24.5t25 -36t9 -43.5z" />
    <glyph glyph-name="j" unicode="j" horiz-adv-x="381" 
d="M104 680h193v-713q0 -45 -9.5 -88.5t-35 -78t-70 -55.5t-114.5 -21q-42 0 -81.5 5t-84.5 17l30 139q19 -6 46 -11t49 -5q21 0 36 3t24 12t13 24.5t4 40.5v731zM313 874q0 -23 -9 -43.5t-24.5 -35.5t-36 -24t-42.5 -9q-23 0 -43 9t-36 24t-25 35.5t-9 43.5t9 43.5t25 36
t36 24.5t43 9q22 0 42.5 -9t36 -24.5t24.5 -36t9 -43.5z" />
    <glyph glyph-name="k" unicode="k" horiz-adv-x="752" 
d="M530 0l-172 289l-82 -86v-203h-192v956h192v-546l246 270h217l-252 -258l263 -422h-220z" />
    <glyph glyph-name="l" unicode="l" horiz-adv-x="387" 
d="M379 16q-32 -17 -74 -23.5t-84 -6.5q-15 0 -37.5 4t-43.5 17.5t-36.5 38.5t-15.5 67v843h193v-800q0 -35 38 -35q15 0 39 6z" />
    <glyph glyph-name="m" unicode="m" horiz-adv-x="1204" 
d="M1196 16q-32 -17 -74 -23.5t-84 -6.5q-15 0 -37.5 4t-43.5 17.5t-36.5 38.5t-15.5 67v311q0 34 -2.5 54.5t-9.5 31.5t-20.5 14.5t-34.5 3.5q-42 0 -81.5 -21.5t-68.5 -47.5v-459h-192v424q0 34 -3 54.5t-10.5 31.5t-21.5 14.5t-35 3.5q-19 0 -42 -8t-44.5 -20t-38.5 -26
t-25 -25v-449h-192v680h192v-76q10 12 30.5 27t47 28t58 22t63.5 9q71 0 120.5 -20t74.5 -80q18 18 41.5 36t51 32.5t58.5 23t66 8.5q49 0 88 -7.5t66.5 -30t42 -65t14.5 -112.5v-319q0 -35 41 -35q13 0 39 6z" />
    <glyph glyph-name="n" unicode="n" horiz-adv-x="813" 
d="M805 16q-32 -17 -73 -23.5t-83 -6.5q-15 0 -38 4t-44.5 17.5t-37 38.5t-15.5 67v311q0 34 -2.5 54.5t-10 31.5t-20.5 14.5t-35 3.5q-16 0 -38 -7.5t-45.5 -19t-46.5 -25.5t-40 -27v-449h-192v680h192v-76q21 15 45.5 30.5t52.5 28t58.5 20t63.5 7.5q49 0 88 -7.5
t66.5 -30t42 -65t14.5 -112.5v-319q0 -35 34 -35q8 0 18.5 0.5t24.5 5.5z" />
    <glyph glyph-name="o" unicode="o" horiz-adv-x="795" 
d="M397 119q21 0 45.5 5t45.5 26.5t35 66t14 123.5t-14 123.5t-35 66t-45.5 26.5t-45.5 5t-45 -5t-45 -26.5t-35 -66t-14 -123.5t14 -123.5t35 -66t45 -26.5t45 -5zM397 -10q-64 0 -124.5 11.5t-107.5 48.5t-75.5 106t-28.5 184q0 110 26.5 178.5t72.5 106.5t107 51.5
t130 13.5q68 0 129 -14t107 -52.5t73 -107t27 -176.5q0 -114 -28.5 -183t-75.5 -106t-107.5 -49t-124.5 -12z" />
    <glyph glyph-name="p" unicode="p" horiz-adv-x="799" 
d="M276 170q16 -15 47 -30t76 -15q28 0 53.5 7.5t45 30t31.5 63t12 106.5q0 59 -9 98.5t-25.5 63.5t-40 34.5t-52.5 10.5q-42 0 -69 -14.5t-42.5 -38.5t-21 -54t-5.5 -61v-201zM84 -266v946h192v-76q12 15 28.5 30t40 27.5t56.5 20.5t78 8t91 -14.5t83 -52.5t60.5 -105.5
t23.5 -173.5q0 -74 -15.5 -138.5t-51 -112.5t-92 -75.5t-138.5 -27.5q-62 0 -99 12t-65 31v-299h-192z" />
    <glyph glyph-name="q" unicode="q" horiz-adv-x="799" 
d="M522 547q-23 5 -56.5 9.5t-59.5 4.5q-33 0 -60 -7.5t-46.5 -30.5t-30.5 -65t-11 -110q0 -112 28 -159.5t91 -47.5q82 0 113.5 44t31.5 124v238zM522 -266v329q-26 -29 -78 -51t-137 -22q-53 0 -98 21t-78 64.5t-51.5 109.5t-18.5 155q0 81 19 145.5t59 110t100.5 70
t143.5 24.5q106 0 191 -10t141 -23v-923h-193z" />
    <glyph glyph-name="r" unicode="r" horiz-adv-x="545" 
d="M84 0v680h192v-76q29 46 68 66t70 20q37 0 63 -8t43 -20l-33 -148q-18 11 -39.5 17t-56.5 6q-23 0 -42 -9.5t-34 -22.5t-25 -26t-14 -20v-459h-192z" />
    <glyph glyph-name="s" unicode="s" horiz-adv-x="625" 
d="M88 166q14 -7 36 -14.5t46.5 -13.5t49.5 -9.5t44 -3.5q22 0 45 2.5t41 9.5t29.5 19.5t11.5 33.5q0 31 -23 50t-57.5 34.5t-75 31t-75 40t-57.5 62t-23 96.5q0 54 24.5 90t64 57.5t89 30t98.5 8.5q38 0 73.5 -4t64 -9.5t46.5 -11t21 -8.5l-31 -145q-6 4 -22 12t-38 15
t-47.5 12.5t-49.5 5.5q-54 0 -79.5 -12t-25.5 -41q0 -25 23 -41t58 -30l75 -30.5t75 -42t58 -64t23 -97.5q0 -48 -21.5 -87t-59.5 -66t-89 -41.5t-109 -14.5q-94 0 -152.5 9t-93.5 21z" />
    <glyph glyph-name="t" unicode="t" horiz-adv-x="514" 
d="M485 16q-43 -12 -84 -19t-98 -7q-29 0 -59 6.5t-55.5 26t-41.5 56t-16 95.5v373h-106l28 133h78v160l193 65v-225h147v-133h-147v-330q0 -48 13 -67t48 -19q39 0 76 16z" />
    <glyph glyph-name="u" unicode="u" horiz-adv-x="813" 
d="M805 20q-34 -17 -76 -23.5t-82 -6.5q-37 0 -61.5 10.5t-39.5 25t-22.5 30t-9.5 26.5q-14 -12 -36.5 -28t-51 -30.5t-61.5 -24t-68 -9.5q-49 0 -88.5 7.5t-67 31t-42.5 66t-15 112.5v473h192v-424q0 -31 3 -51t10.5 -32t21.5 -16.5t35 -4.5q19 0 41.5 7.5t45 19t43.5 25.5
t38 27v449h193v-520q0 -35 34 -35q8 0 18.5 0.5t24.5 5.5z" />
    <glyph glyph-name="v" unicode="v" horiz-adv-x="717" 
d="M254 0l-240 680h207l137 -473l138 473h206l-239 -680h-209z" />
    <glyph glyph-name="w" unicode="w" horiz-adv-x="1032" 
d="M641 0l-125 422l-125 -422h-194l-172 680h188l98 -481l127 481h156l129 -481l100 481h185l-170 -680h-197z" />
    <glyph glyph-name="x" unicode="x" horiz-adv-x="705" 
d="M481 0l-129 242l-129 -242h-211l209 352l-186 328h207l110 -223l111 223h205l-185 -328l209 -352h-211z" />
    <glyph glyph-name="y" unicode="y" horiz-adv-x="731" 
d="M25 680h206l144 -453l135 453h207l-268 -705q-29 -76 -57 -124.5t-57.5 -76.5t-62.5 -39t-73 -11q-74 0 -123 14.5t-84 34.5l33 141q27 -17 60 -30t77 -13q21 0 37.5 2.5t31.5 15.5t28.5 39t27.5 74z" />
    <glyph glyph-name="z" unicode="z" horiz-adv-x="643" 
d="M59 0v117l310 430h-310l29 133h516v-105l-317 -442h327v-133h-555z" />
    <glyph glyph-name="braceleft" unicode="{" horiz-adv-x="555" 
d="M518 -236q-175 0 -255.5 119t-80.5 365q0 75 -23 121.5t-85 54.5v111q62 8 85 51t23 121q0 245 83 365t253 120v-154q-51 0 -80.5 -20t-45.5 -63t-20.5 -109.5t-4.5 -159.5q0 -55 -10 -90t-26 -57t-36 -35t-41 -25q21 -12 41 -26t36 -36.5t26 -57.5t10 -89q0 -94 4 -161
t19 -110t45 -63t83 -20v-152z" />
    <glyph glyph-name="bar" unicode="|" horiz-adv-x="426" 
d="M133 -338v1434h158v-1434h-158z" />
    <glyph glyph-name="braceright" unicode="}" horiz-adv-x="555" 
d="M37 -84q53 0 83 20t45 63t19 110t4 161q0 54 10 89t26 57.5t36 36.5t41 26q-21 12 -41.5 25.5t-36.5 35.5t-25.5 56.5t-9.5 89.5q0 93 -4.5 159.5t-20.5 109.5t-45.5 63t-80.5 20v154q170 0 253 -120t83 -365q0 -78 23 -121t85 -51v-111q-62 -8 -85 -54.5t-23 -121.5
q0 -246 -80.5 -365t-255.5 -119v152z" />
    <glyph glyph-name="asciitilde" unicode="~" horiz-adv-x="819" 
d="M788 463q-44 -65 -96 -100t-129 -35q-38 0 -81 10t-85 35q-32 18 -66 32.5t-71 14.5q-23 0 -42 -10t-35 -25t-28.5 -31.5t-21.5 -29.5l-104 118q21 28 43 52.5t49 43t59.5 29.5t73.5 11q46 0 87.5 -13t76.5 -33q38 -21 72 -34t69 -13q21 0 39.5 9t34.5 23.5t29 31.5
t24 33z" />
    <glyph glyph-name="uni00A0" unicode="&#xa0;" horiz-adv-x="258" 
 />
    <glyph glyph-name="exclamdown" unicode="&#xa1;" horiz-adv-x="395" 
d="M86 0l29 662h168l28 -662h-225zM201 737q-24 0 -46 9t-38.5 24.5t-26.5 37t-10 46.5t10 46.5t26.5 37.5t38.5 25.5t46 9.5q23 0 43.5 -9.5t36.5 -25.5t25 -37.5t9 -46.5t-9 -46.5t-25 -37t-36.5 -24.5t-43.5 -9z" />
    <glyph glyph-name="cent" unicode="&#xa2;" horiz-adv-x="647" 
d="M375 672q-34 -9 -56.5 -29.5t-36 -47.5t-19 -57.5t-5.5 -60.5q0 -35 5 -65.5t18 -56t36 -43.5t58 -27v387zM375 0v127q-19 0 -49.5 4.5t-65.5 17t-70.5 36t-64 63t-46.5 97t-18 138.5q0 55 15 113t51 107.5t96.5 83.5t151.5 40v129h84v-129q49 -5 89.5 -14t63.5 -18
l-30 -148q-31 14 -60 21.5t-63 9.5v-402q18 1 38.5 3.5t41.5 6.5t39.5 8t31.5 9l-32 -143q-20 -11 -48.5 -18.5t-70.5 -10.5v-131h-84z" />
    <glyph glyph-name="sterling" unicode="&#xa3;" horiz-adv-x="883" 
d="M143 0v147q26 42 40.5 74.5t20.5 60.5t5.5 54.5t-4.5 56.5h-111v156h96q-2 9 -5 28.5t-6 42t-5 44t-2 34.5q0 54 17 103.5t56 88t101.5 61t153.5 22.5q37 0 75.5 -4.5t74 -11.5t67.5 -17t57 -20l-29 -179q-49 26 -107 45t-124 19q-71 0 -101 -26.5t-30 -80.5q0 -18 2 -41
t5 -45t6 -39.5t5 -23.5h283v-156h-270q0 -40 -6.5 -71.5t-18.5 -57.5t-28.5 -49t-36.5 -45h469l-29 -170h-621z" />
    <glyph glyph-name="currency" unicode="&#xa4;" horiz-adv-x="938" 
d="M623 260q-38 -26 -80 -37.5t-84 -11.5q-37 0 -80.5 10.5t-85.5 38.5l-98 -98l-89 90l101 94q-26 42 -38.5 83.5t-12.5 78.5t11.5 79t39.5 83l-101 96l89 90l98 -98q42 28 85.5 38.5t80.5 10.5q38 0 81.5 -11.5t82.5 -37.5l100 98l88 -90l-100 -96q28 -44 38.5 -85.5
t10.5 -76.5t-11.5 -77t-37.5 -85l100 -94l-88 -90zM635 510q0 37 -15 69t-40 55.5t-56.5 36.5t-64.5 13q-38 0 -70 -14t-55.5 -38t-37 -55.5t-13.5 -66.5q0 -36 14 -68t38 -56t56 -38t68 -14t68 14t56 38t38 56t14 68z" />
    <glyph glyph-name="yen" unicode="&#xa5;" horiz-adv-x="979" 
d="M596 121v-121h-211v121h-184v121h184v90h-184v121h145l-258 503h227l174 -381l177 381h225l-256 -503h145v-121h-184v-90h184v-121h-184z" />
    <glyph glyph-name="brokenbar" unicode="&#xa6;" horiz-adv-x="426" 
d="M133 467v629h158v-629h-158zM133 -338v647h158v-647h-158z" />
    <glyph glyph-name="section" unicode="&#xa7;" horiz-adv-x="807" 
d="M330 485q-32 -15 -58 -42.5t-26 -67.5q0 -31 15.5 -52t44 -38.5t69.5 -34l92 -37.5l21.5 12.5t29 21.5t25 31.5t10.5 43.5q0 27 -8.5 46t-32.5 37t-68 36.5t-114 43.5zM123 -82q69 -37 131 -48t125 -11q24 0 50.5 3.5t48.5 12.5t36 24t14 38q0 37 -34 61t-85 43.5
l-111 40.5t-111 51.5t-85 76.5t-34 116q0 63 32 113.5t103 97.5q-18 9 -37 29t-34 46t-24.5 55.5t-9.5 57.5q0 50 17 95t56 79t102.5 54t156.5 20q36 0 66.5 -3t60.5 -8.5t61.5 -14l69.5 -19.5l-35 -180q-49 22 -110 37.5t-115 15.5q-57 0 -89 -16.5t-32 -53.5
q0 -31 31.5 -51t78.5 -37.5l102 -36.5t102 -48.5t78.5 -73t31.5 -109.5q0 -47 -14 -83t-35 -62t-44.5 -43t-41.5 -25q23 -12 48 -28.5t46 -41t35 -57.5t14 -78q0 -42 -16 -89.5t-56 -87.5t-109 -66.5t-175 -26.5q-78 0 -156.5 13.5t-140.5 39.5z" />
    <glyph glyph-name="dieresis" unicode="&#xa8;" horiz-adv-x="551" 
d="M225 877q0 -23 -9 -43.5t-24.5 -36t-36 -24.5t-42.5 -9t-42.5 9t-36 24.5t-25 36t-9.5 43.5t9.5 43.5t25 35.5t36 24t42.5 9t42.5 -9t36 -24t24.5 -35.5t9 -43.5zM551 877q0 -23 -9 -43.5t-25 -36t-36.5 -24.5t-42.5 -9t-42.5 9t-36 24.5t-24.5 36t-9 43.5t9 43.5
t24.5 35.5t36 24t42.5 9t42.5 -9t36.5 -24t25 -35.5t9 -43.5z" />
    <glyph glyph-name="copyright" unicode="&#xa9;" horiz-adv-x="831" 
d="M528 487q-7 -3 -18 -6t-23.5 -5t-24.5 -3.5t-20 -1.5q-32 0 -66.5 5t-63 23t-46.5 52t-18 92q0 56 16 91.5t41.5 55.5t58.5 27.5t68 7.5q43 0 68 -5t45 -11l-13 -80q-12 6 -40.5 11t-53.5 5q-18 0 -34 -3t-28 -13.5t-19 -31.5t-7 -56q0 -50 26.5 -70t69.5 -20
q16 0 45.5 5.5t51.5 14.5zM414 375q59 0 107.5 22t83.5 59t54 86.5t19 104.5t-19 105t-54 87t-83.5 59t-107.5 22t-107 -22t-82.5 -59t-53.5 -87t-19 -105t19 -104.5t53.5 -86.5t82.5 -59t107 -22zM414 309q-70 0 -130.5 26t-105.5 71.5t-70.5 107.5t-25.5 133
q0 72 25.5 133.5t70.5 106.5t105.5 70.5t130.5 25.5t131 -25.5t105 -70.5t69.5 -106.5t25.5 -133.5q0 -71 -25.5 -133t-69.5 -107.5t-105 -71.5t-131 -26z" />
    <glyph glyph-name="ordfeminine" unicode="&#xaa;" horiz-adv-x="631" 
d="M354 719q-3 0 -10 0.5t-15 1.5t-15 1.5t-11 0.5q-26 0 -41.5 -6.5t-23.5 -16t-10.5 -21.5t-2.5 -24q0 -31 16 -42t38 -11q13 0 26.5 3.5t24.5 11t17.5 20.5t6.5 33v49zM559 528q-22 -11 -49 -15.5t-53 -4.5q-25 0 -42.5 6.5t-29.5 15.5t-19 19t-10 18q-24 -29 -52 -42
t-73 -13q-75 0 -109 37t-34 94q0 44 17.5 74t46 48t65.5 26t76 8q14 0 31.5 -1t29.5 -3v20q0 41 -24 51.5t-70 10.5q-42 0 -82.5 -8.5t-60.5 -16.5l22 100q12 4 29.5 8t38 7t41 4.5t37.5 1.5q48 0 86.5 -7.5t65.5 -26t42 -51t15 -83.5v-178q0 -11 6.5 -17t17.5 -6
q6 0 13 0.5t16 3.5z" />
    <glyph glyph-name="guillemotleft" unicode="&#xab;" horiz-adv-x="717" 
d="M252 121l-174 260l174 254h158l-164 -254l164 -260h-158zM518 121l-172 260l172 254h158l-164 -254l164 -260h-158z" />
    <glyph glyph-name="logicalnot" unicode="&#xac;" horiz-adv-x="819" 
d="M584 211v338h-508v158h667v-496h-159z" />
    <glyph glyph-name="uni00AD" unicode="&#xad;" horiz-adv-x="594" 
d="M98 281v153h398v-153h-398z" />
    <glyph glyph-name="registered" unicode="&#xae;" horiz-adv-x="831" 
d="M410 662q20 0 34.5 10t14.5 33q0 26 -12.5 34.5t-36.5 8.5h-25v-86h25zM471 475l-57 115h-29v-115h-100v346h153q63 0 92 -34.5t29 -84.5q0 -34 -18 -59t-45 -39l75 -129h-100zM414 375q59 0 107.5 22t83.5 59t54 86.5t19 104.5t-19 105t-54 87t-83.5 59t-107.5 22
t-107 -22t-82.5 -59t-53.5 -87t-19 -105t19 -104.5t53.5 -86.5t82.5 -59t107 -22zM414 309q-70 0 -130.5 26t-105.5 71.5t-70.5 107.5t-25.5 133q0 72 25.5 133.5t70.5 106.5t105.5 70.5t130.5 25.5t131 -25.5t105 -70.5t69.5 -106.5t25.5 -133.5q0 -71 -25.5 -133
t-69.5 -107.5t-105 -71.5t-131 -26z" />
    <glyph glyph-name="macron" unicode="&#xaf;" horiz-adv-x="406" 
d="M0 784v123h406v-123h-406z" />
    <glyph glyph-name="degree" unicode="&#xb0;" horiz-adv-x="522" 
d="M262 721q25 0 45 9.5t34 25t21 36t7 42.5q0 21 -7 41t-21 36.5t-34 26.5t-45 10t-45.5 -9t-34.5 -25t-22 -36.5t-8 -43.5q0 -48 30.5 -80.5t79.5 -32.5zM451 834q0 -39 -15 -73.5t-40.5 -60t-60 -40.5t-73.5 -15q-40 0 -74.5 15t-60 40.5t-40.5 60t-15 73.5t15 73.5
t40.5 60.5t60 41t74.5 15q39 0 73.5 -15t60 -41t40.5 -60.5t15 -73.5z" />
    <glyph glyph-name="plusminus" unicode="&#xb1;" horiz-adv-x="819" 
d="M76 29v157h665v-157h-665zM328 266v273h-252v157h252v275h159v-275h254v-157h-254v-273h-159z" />
    <glyph glyph-name="twosuperior" unicode="&#xb2;" horiz-adv-x="598" 
d="M74 436v82l134.5 98.5t91 73t51.5 56.5t16 49q0 32 -21 53.5t-78 21.5q-66 0 -105.5 -13.5t-68.5 -29.5l21 115q24 9 45 14.5t41.5 9.5t43 5.5t50.5 1.5q55 0 94 -12.5t63.5 -33.5t36 -48.5t11.5 -57.5q0 -47 -18 -83.5t-50 -69t-76.5 -63.5l-97.5 -66h248l-19 -103h-413
z" />
    <glyph glyph-name="threesuperior" unicode="&#xb3;" horiz-adv-x="551" 
d="M78 569q28 -17 65.5 -32t94.5 -15q21 0 40 4t33.5 12.5t23.5 22t9 31.5q0 37 -26 55.5t-74 18.5h-84v90h84q15 0 30 1t27.5 6.5t20.5 16.5t8 31t-8.5 32.5t-22.5 20t-31.5 10.5t-34.5 3q-48 0 -90 -14t-77 -29l18 106q28 11 75 22t107 11q36 0 71 -8.5t62.5 -26.5
t44.5 -45.5t17 -65.5q0 -28 -8.5 -48t-22.5 -34t-31.5 -22.5t-36.5 -13.5q22 -2 42.5 -10t36.5 -22t26 -35t10 -48q0 -77 -58 -122.5t-161 -45.5q-74 0 -121 13t-78 32z" />
    <glyph glyph-name="acute" unicode="&#xb4;" horiz-adv-x="369" 
d="M154 782h-154l170 189h199z" />
    <glyph glyph-name="mu" unicode="&#xb5;" horiz-adv-x="813" 
d="M84 -266v946h192v-447q2 -47 17 -64t53 -17q19 0 41.5 7.5t45 19t43.5 25.5t38 27v449h193v-524q0 -35 34 -35q8 0 18.5 0.5t24.5 5.5l21 -111q-34 -17 -76 -23.5t-82 -6.5q-37 0 -61.5 11t-39.5 26t-22.5 31.5t-9.5 27.5q-14 -12 -36.5 -28t-51 -30.5t-61.5 -24
t-68 -9.5h-21v-256h-192z" />
    <glyph glyph-name="paragraph" unicode="&#xb6;" horiz-adv-x="936" 
d="M700 -166v979h-86v-979h-143v479h-41q-180 0 -268 84.5t-88 235.5q0 63 17.5 121.5t61 103t117 71.5t185.5 27h389v-1122h-144z" />
    <glyph glyph-name="periodcentered" unicode="&#xb7;" horiz-adv-x="375" 
d="M303 504q0 -25 -10 -46t-26.5 -36.5t-38 -24t-44.5 -8.5t-43.5 8.5t-36.5 24t-25 36.5t-9 46t9 47t25 38t36.5 25t43.5 9t44.5 -9t38 -25t26.5 -38t10 -47z" />
    <glyph glyph-name="cedilla" unicode="&#xb8;" horiz-adv-x="307" 
d="M0 -309l127 221h180l-157 -221h-150z" />
    <glyph glyph-name="onesuperior" unicode="&#xb9;" horiz-adv-x="420" 
d="M158 436v422l-103 -41v103l115 45h117v-529h-129z" />
    <glyph glyph-name="ordmasculine" unicode="&#xba;" horiz-adv-x="641" 
d="M319 602q17 0 33 3t28 16.5t19 41.5t7 78q0 48 -7 76.5t-18.5 43t-27.5 18.5t-34 4t-33.5 -4.5t-26.5 -19t-17 -42.5t-6 -76q0 -49 7 -77t18.5 -41.5t26.5 -17t31 -3.5zM549 741q0 -75 -20 -120t-52.5 -69.5t-74 -32t-83.5 -7.5q-41 0 -82 7.5t-73 31.5t-52 69t-20 121
q0 72 18.5 117.5t50 71t72.5 34.5t86 9t86.5 -9.5t73.5 -35t51 -70.5t19 -117z" />
    <glyph glyph-name="guillemotright" unicode="&#xbb;" horiz-adv-x="717" 
d="M41 121l164 260l-164 254h158l172 -254l-172 -260h-158zM307 121l164 260l-164 254h158l172 -254l-172 -260h-158z" />
    <glyph glyph-name="onequarter" unicode="&#xbc;" horiz-adv-x="1202" 
d="M895 379l-147 -182h147v182zM158 436v422l-103 -41v103l115 45h117v-529h-129zM207 0l491 956h123l-491 -956h-123zM895 0v100h-260l-23 88l273 338h137v-329h90l-18 -97h-72v-100h-127z" />
    <glyph glyph-name="onehalf" unicode="&#xbd;" horiz-adv-x="1237" 
d="M158 436v422l-103 -41v103l115 45h117v-529h-129zM207 0l491 956h123l-491 -956h-123zM680 0v82l134 99.5t91 73t51.5 56.5t16.5 49q0 31 -21 52.5t-78 21.5q-32 0 -57.5 -4t-46.5 -10t-38 -13.5t-32 -15.5l21 115q24 8 45 14t42 9.5t43.5 5.5t51.5 2q55 0 93.5 -12.5
t63 -33.5t35.5 -48.5t11 -57.5q0 -47 -18 -83.5t-50 -69t-76.5 -63.5l-97.5 -67h248l-18 -102h-414z" />
    <glyph glyph-name="threequarters" unicode="&#xbe;" horiz-adv-x="1337" 
d="M1032 379l-149 -182h149v182zM78 569q28 -17 65.5 -32t94.5 -15q21 0 40 4t33.5 12.5t23.5 22t9 31.5q0 37 -26 55.5t-74 18.5h-84v90h84q15 0 30 1t27.5 6.5t20.5 16.5t8 31t-8.5 32.5t-22.5 20t-31.5 10.5t-34.5 3q-48 0 -90 -14t-77 -29l18 106q28 11 75 22t107 11
q36 0 71 -8.5t62.5 -26.5t44.5 -45.5t17 -65.5q0 -28 -8.5 -48t-22.5 -34t-31.5 -22.5t-36.5 -13.5q22 -2 42.5 -10t36.5 -22t26 -35t10 -48q0 -77 -58 -122.5t-161 -45.5q-74 0 -121 13t-78 32zM344 0l492 956h120l-489 -956h-123zM1032 0v100h-262l-20 88l270 338h137
v-329h90l-16 -97h-74v-100h-125z" />
    <glyph glyph-name="questiondown" unicode="&#xbf;" horiz-adv-x="662" 
d="M602 37q-62 -29 -119.5 -41t-122.5 -12q-71 0 -126.5 16.5t-94.5 47.5t-59.5 76.5t-20.5 102.5q0 54 17.5 93.5t43.5 69.5t56 52.5l56 42t43.5 38.5t17.5 42v97h190v-115q0 -46 -16 -75t-40 -49.5t-51.5 -36.5t-51.5 -34t-40 -42t-16 -62q0 -17 5 -36.5t17.5 -36
t34.5 -27.5t56 -11q49 0 92.5 8t95.5 33zM389 733q-23 0 -44.5 9.5t-38 25.5t-26.5 37.5t-10 46.5t10 46t26.5 37t38 25t44.5 9t44.5 -9t37.5 -25t25.5 -37t9.5 -46t-9.5 -46.5t-25.5 -37.5t-37.5 -25.5t-44.5 -9.5z" />
    <glyph glyph-name="Agrave" unicode="&#xc0;" horiz-adv-x="895" 
d="M446 686l-96 -336h193zM643 0l-53 178h-287l-53 -178h-223l311 956h217l313 -956h-225zM477 1065l-215 189h199l170 -189h-154z" />
    <glyph glyph-name="Aacute" unicode="&#xc1;" horiz-adv-x="895" 
d="M446 686l-96 -336h193zM643 0l-53 178h-287l-53 -178h-223l311 956h217l313 -956h-225zM416 1065h-154l170 189h199z" />
    <glyph glyph-name="Acircumflex" unicode="&#xc2;" horiz-adv-x="895" 
d="M446 686l-96 -336h193zM643 0l-53 178h-287l-53 -178h-223l311 956h217l313 -956h-225zM537 1065l-90 101l-88 -101h-164l174 189h158l174 -189h-164z" />
    <glyph glyph-name="Atilde" unicode="&#xc3;" horiz-adv-x="895" 
d="M446 686l-96 -336h193zM643 0l-53 178h-287l-53 -178h-223l311 956h217l313 -956h-225zM708 1252q0 -56 -8 -92.5t-25 -58t-43 -30t-61 -8.5q-26 0 -58 12.5t-63.5 27.5l-60 27.5t-47.5 12.5q-13 0 -21 -2.5t-12.5 -10t-6 -23t-1.5 -40.5h-115q0 101 30 150t107 49
q28 0 59.5 -12.5t61.5 -27.5l57.5 -27.5t49.5 -12.5q13 0 21 1t13 7t7 19.5t2 38.5h114z" />
    <glyph glyph-name="Adieresis" unicode="&#xc4;" horiz-adv-x="895" 
d="M446 686l-96 -336h193zM643 0l-53 178h-287l-53 -178h-223l311 956h217l313 -956h-225zM397 1160q0 -23 -9 -43.5t-24.5 -36t-36 -24.5t-42.5 -9t-42.5 9t-36 24.5t-25 36t-9.5 43.5t9.5 43.5t25 35.5t36 24t42.5 9t42.5 -9t36 -24t24.5 -35.5t9 -43.5zM723 1160
q0 -23 -9 -43.5t-25 -36t-36.5 -24.5t-42.5 -9t-42.5 9t-36 24.5t-24.5 36t-9 43.5t9 43.5t24.5 35.5t36 24t42.5 9t42.5 -9t36.5 -24t25 -35.5t9 -43.5z" />
    <glyph glyph-name="Aring" unicode="&#xc5;" horiz-adv-x="895" 
d="M446 686l-96 -336h193zM643 0l-53 178h-287l-53 -178h-223l311 956h217l313 -956h-225zM505 1170q0 23 -17 41t-42 18q-23 0 -40 -18t-17 -41q0 -25 17 -42.5t40 -17.5q25 0 42 17.5t17 42.5zM575 1170q0 -26 -10 -49.5t-27.5 -40.5t-41 -27t-50.5 -10q-26 0 -49.5 10
t-40.5 27t-27 40.5t-10 49.5t10.5 49t28 40.5t41.5 27.5t51 10q26 0 49 -10t40 -27.5t26.5 -40.5t9.5 -49z" />
    <glyph glyph-name="AE" unicode="&#xc6;" horiz-adv-x="1292" 
d="M627 715l-183 -365h183v365zM627 0v178h-269l-90 -178h-235l518 956h684l-31 -178h-364v-200h334l-29 -179h-305v-221h395l-31 -178h-577z" />
    <glyph glyph-name="Ccedilla" unicode="&#xc7;" horiz-adv-x="879" 
d="M799 16q-22 -7 -53.5 -12.5t-65 -9.5t-66 -6t-55.5 -2q-109 0 -199.5 31t-155 91.5t-100.5 150t-36 206.5q0 105 29.5 197.5t89 161.5t149.5 109t211 40q56 0 103.5 -6.5t84.5 -14.5t63 -17l38 -13l-37 -189q-48 22 -110 38.5t-130 16.5q-74 0 -125.5 -24t-84 -67.5
t-47.5 -104.5t-15 -135q0 -94 31 -150.5t76.5 -87t96.5 -40t91 -9.5q24 0 57 4t68 11t68 14.5t56 15.5zM285 -309l127 221h180l-157 -221h-150z" />
    <glyph glyph-name="Egrave" unicode="&#xc8;" horiz-adv-x="762" 
d="M94 0v956h611l-31 -178h-367v-200h336l-29 -179h-307v-221h398l-31 -178h-580zM412 1065l-215 189h199l170 -189h-154z" />
    <glyph glyph-name="Eacute" unicode="&#xc9;" horiz-adv-x="762" 
d="M94 0v956h611l-31 -178h-367v-200h336l-29 -179h-307v-221h398l-31 -178h-580zM392 1065h-154l170 189h199z" />
    <glyph glyph-name="Ecircumflex" unicode="&#xca;" horiz-adv-x="762" 
d="M94 0v956h611l-31 -178h-367v-200h336l-29 -179h-307v-221h398l-31 -178h-580zM479 1065l-90 101l-88 -101h-164l174 189h158l174 -189h-164z" />
    <glyph glyph-name="Edieresis" unicode="&#xcb;" horiz-adv-x="762" 
d="M94 0v956h611l-31 -178h-367v-200h336l-29 -179h-307v-221h398l-31 -178h-580zM340 1160q0 -23 -9 -43.5t-24.5 -36t-36 -24.5t-42.5 -9t-42.5 9t-36 24.5t-25 36t-9.5 43.5t9.5 43.5t25 35.5t36 24t42.5 9t42.5 -9t36 -24t24.5 -35.5t9 -43.5zM666 1160q0 -23 -9 -43.5
t-25 -36t-36.5 -24.5t-42.5 -9t-42.5 9t-36 24.5t-24.5 36t-9 43.5t9 43.5t24.5 35.5t36 24t42.5 9t42.5 -9t36.5 -24t25 -35.5t9 -43.5z" />
    <glyph glyph-name="Igrave" unicode="&#xcc;" horiz-adv-x="410" 
d="M98 0v956h213v-956h-213zM215 1065l-215 189h199l170 -189h-154z" />
    <glyph glyph-name="Iacute" unicode="&#xcd;" horiz-adv-x="410" 
d="M98 0v956h213v-956h-213zM195 1065h-154l170 189h199z" />
    <glyph glyph-name="Icircumflex" unicode="&#xce;" horiz-adv-x="410" 
d="M98 0v956h213v-956h-213zM296 1065l-90 101l-88 -101h-164l174 189h158l174 -189h-164z" />
    <glyph glyph-name="Idieresis" unicode="&#xcf;" horiz-adv-x="410" 
d="M98 0v956h213v-956h-213zM156 1160q0 -23 -9 -43.5t-24.5 -36t-36 -24.5t-42.5 -9t-42.5 9t-36 24.5t-25 36t-9.5 43.5t9.5 43.5t25 35.5t36 24t42.5 9t42.5 -9t36 -24t24.5 -35.5t9 -43.5zM482 1160q0 -23 -9 -43.5t-25 -36t-36.5 -24.5t-42.5 -9t-42.5 9t-36 24.5
t-24.5 36t-9 43.5t9 43.5t24.5 35.5t36 24t42.5 9t42.5 -9t36.5 -24t25 -35.5t9 -43.5z" />
    <glyph glyph-name="Eth" unicode="&#xd0;" horiz-adv-x="1032" 
d="M471 166q27 0 57.5 3t60 13.5t56.5 31t47.5 55t32.5 85.5t12 123q0 107 -26 169.5t-66 94.5t-86.5 41t-87.5 9h-125v-244h148v-148h-148v-233h125zM131 0v399h-131v148h131v409h358q128 0 217.5 -33t145.5 -94.5t81 -150.5t25 -201q0 -94 -19.5 -165.5t-53 -124.5
t-78.5 -89t-96.5 -57.5t-107 -31t-109.5 -9.5h-363z" />
    <glyph glyph-name="Ntilde" unicode="&#xd1;" horiz-adv-x="965" 
d="M690 0l-403 604v-604h-193v956h180l404 -604v604h192v-956h-180zM743 1252q0 -56 -8 -92.5t-25 -58t-43 -30t-61 -8.5q-26 0 -58 12.5t-63.5 27.5l-60 27.5t-47.5 12.5q-13 0 -21 -2.5t-12.5 -10t-6 -23t-1.5 -40.5h-115q0 101 30 150t107 49q28 0 59.5 -12.5t61.5 -27.5
l57.5 -27.5t49.5 -12.5q13 0 21 1t13 7t7 19.5t2 38.5h114z" />
    <glyph glyph-name="Ograve" unicode="&#xd2;" horiz-adv-x="1044" 
d="M522 162q57 0 100 17.5t72 55.5t43.5 98t14.5 146q0 85 -14.5 145.5t-43.5 98t-72 55t-100 17.5q-56 0 -98.5 -17.5t-71.5 -55t-44 -98t-15 -145.5q0 -86 15 -146t44 -98t71.5 -55.5t98.5 -17.5zM522 -14q-95 0 -177 28t-142 88t-94.5 153t-34.5 224q0 130 34.5 223.5
t94.5 153.5t142 88.5t177 28.5t177 -28.5t142.5 -88.5t95 -153.5t34.5 -223.5q0 -131 -34.5 -224t-95 -153t-142.5 -88t-177 -28zM532 1065l-215 189h199l170 -189h-154z" />
    <glyph glyph-name="Oacute" unicode="&#xd3;" horiz-adv-x="1044" 
d="M522 162q57 0 100 17.5t72 55.5t43.5 98t14.5 146q0 85 -14.5 145.5t-43.5 98t-72 55t-100 17.5q-56 0 -98.5 -17.5t-71.5 -55t-44 -98t-15 -145.5q0 -86 15 -146t44 -98t71.5 -55.5t98.5 -17.5zM522 -14q-95 0 -177 28t-142 88t-94.5 153t-34.5 224q0 130 34.5 223.5
t94.5 153.5t142 88.5t177 28.5t177 -28.5t142.5 -88.5t95 -153.5t34.5 -223.5q0 -131 -34.5 -224t-95 -153t-142.5 -88t-177 -28zM512 1065h-154l170 189h199z" />
    <glyph glyph-name="Ocircumflex" unicode="&#xd4;" horiz-adv-x="1044" 
d="M522 162q57 0 100 17.5t72 55.5t43.5 98t14.5 146q0 85 -14.5 145.5t-43.5 98t-72 55t-100 17.5q-56 0 -98.5 -17.5t-71.5 -55t-44 -98t-15 -145.5q0 -86 15 -146t44 -98t71.5 -55.5t98.5 -17.5zM522 -14q-95 0 -177 28t-142 88t-94.5 153t-34.5 224q0 130 34.5 223.5
t94.5 153.5t142 88.5t177 28.5t177 -28.5t142.5 -88.5t95 -153.5t34.5 -223.5q0 -131 -34.5 -224t-95 -153t-142.5 -88t-177 -28zM610 1065l-90 101l-88 -101h-164l174 189h158l174 -189h-164z" />
    <glyph glyph-name="Otilde" unicode="&#xd5;" horiz-adv-x="1044" 
d="M522 162q57 0 100 17.5t72 55.5t43.5 98t14.5 146q0 85 -14.5 145.5t-43.5 98t-72 55t-100 17.5q-56 0 -98.5 -17.5t-71.5 -55t-44 -98t-15 -145.5q0 -86 15 -146t44 -98t71.5 -55.5t98.5 -17.5zM522 -14q-95 0 -177 28t-142 88t-94.5 153t-34.5 224q0 130 34.5 223.5
t94.5 153.5t142 88.5t177 28.5t177 -28.5t142.5 -88.5t95 -153.5t34.5 -223.5q0 -131 -34.5 -224t-95 -153t-142.5 -88t-177 -28zM782 1252q0 -56 -8 -92.5t-25 -58t-43 -30t-61 -8.5q-26 0 -58 12.5t-63.5 27.5l-60 27.5t-47.5 12.5q-13 0 -21 -2.5t-12.5 -10t-6 -23
t-1.5 -40.5h-115q0 101 30 150t107 49q28 0 59.5 -12.5t61.5 -27.5l57.5 -27.5t49.5 -12.5q13 0 21 1t13 7t7 19.5t2 38.5h114z" />
    <glyph glyph-name="Odieresis" unicode="&#xd6;" horiz-adv-x="1044" 
d="M522 162q57 0 100 17.5t72 55.5t43.5 98t14.5 146q0 85 -14.5 145.5t-43.5 98t-72 55t-100 17.5q-56 0 -98.5 -17.5t-71.5 -55t-44 -98t-15 -145.5q0 -86 15 -146t44 -98t71.5 -55.5t98.5 -17.5zM522 -14q-95 0 -177 28t-142 88t-94.5 153t-34.5 224q0 130 34.5 223.5
t94.5 153.5t142 88.5t177 28.5t177 -28.5t142.5 -88.5t95 -153.5t34.5 -223.5q0 -131 -34.5 -224t-95 -153t-142.5 -88t-177 -28zM471 1160q0 -23 -9 -43.5t-24.5 -36t-36 -24.5t-42.5 -9t-42.5 9t-36 24.5t-25 36t-9.5 43.5t9.5 43.5t25 35.5t36 24t42.5 9t42.5 -9t36 -24
t24.5 -35.5t9 -43.5zM797 1160q0 -23 -9 -43.5t-25 -36t-36.5 -24.5t-42.5 -9t-42.5 9t-36 24.5t-24.5 36t-9 43.5t9 43.5t24.5 35.5t36 24t42.5 9t42.5 -9t36.5 -24t25 -35.5t9 -43.5z" />
    <glyph glyph-name="multiply" unicode="&#xd7;" horiz-adv-x="819" 
d="M643 113l-233 235l-232 -237l-115 114l234 230l-225 225l108 115l230 -226l229 226l109 -115l-226 -225l232 -232z" />
    <glyph glyph-name="Oslash" unicode="&#xd8;" horiz-adv-x="1044" 
d="M623 778q-22 10 -47 13.5t-54 3.5q-56 0 -98.5 -17.5t-71.5 -55t-44 -98t-15 -145.5q0 -125 31 -194zM422 180q43 -18 100 -18t100 17.5t72 55.5t43.5 98t14.5 146q0 121 -31 197zM117 -59l94 153q-65 60 -101 154.5t-36 230.5q0 130 34.5 223.5t94.5 153.5t142 88.5
t177 28.5q54 0 104 -8t93 -27l51 82h160l-94 -158q63 -60 99 -154.5t36 -228.5q0 -131 -34.5 -224t-95 -153t-142.5 -88t-177 -28q-108 0 -196 34l-50 -79h-159z" />
    <glyph glyph-name="Ugrave" unicode="&#xd9;" horiz-adv-x="963" 
d="M655 956h215v-630q0 -31 -6 -68t-22 -75t-43.5 -73.5t-71 -63t-104 -44t-142.5 -16.5t-142.5 16.5t-103.5 44t-71 63t-44 73.5t-22 75t-6 68v630h213v-612q0 -32 9.5 -63.5t30.5 -56t54.5 -39.5t81.5 -15t81 15t53.5 39.5t30 56t9.5 63.5v612zM491 1065l-215 189h199
l170 -189h-154z" />
    <glyph glyph-name="Uacute" unicode="&#xda;" horiz-adv-x="963" 
d="M655 956h215v-630q0 -31 -6 -68t-22 -75t-43.5 -73.5t-71 -63t-104 -44t-142.5 -16.5t-142.5 16.5t-103.5 44t-71 63t-44 73.5t-22 75t-6 68v630h213v-612q0 -32 9.5 -63.5t30.5 -56t54.5 -39.5t81.5 -15t81 15t53.5 39.5t30 56t9.5 63.5v612zM471 1065h-154l170 189h199
z" />
    <glyph glyph-name="Ucircumflex" unicode="&#xdb;" horiz-adv-x="963" 
d="M655 956h215v-630q0 -31 -6 -68t-22 -75t-43.5 -73.5t-71 -63t-104 -44t-142.5 -16.5t-142.5 16.5t-103.5 44t-71 63t-44 73.5t-22 75t-6 68v630h213v-612q0 -32 9.5 -63.5t30.5 -56t54.5 -39.5t81.5 -15t81 15t53.5 39.5t30 56t9.5 63.5v612zM569 1065l-90 101l-88 -101
h-164l174 189h158l174 -189h-164z" />
    <glyph glyph-name="Udieresis" unicode="&#xdc;" horiz-adv-x="963" 
d="M655 956h215v-630q0 -31 -6 -68t-22 -75t-43.5 -73.5t-71 -63t-104 -44t-142.5 -16.5t-142.5 16.5t-103.5 44t-71 63t-44 73.5t-22 75t-6 68v630h213v-612q0 -32 9.5 -63.5t30.5 -56t54.5 -39.5t81.5 -15t81 15t53.5 39.5t30 56t9.5 63.5v612zM430 1160q0 -23 -9 -43.5
t-24.5 -36t-36 -24.5t-42.5 -9t-42.5 9t-36 24.5t-25 36t-9.5 43.5t9.5 43.5t25 35.5t36 24t42.5 9t42.5 -9t36 -24t24.5 -35.5t9 -43.5zM756 1160q0 -23 -9 -43.5t-25 -36t-36.5 -24.5t-42.5 -9t-42.5 9t-36 24.5t-24.5 36t-9 43.5t9 43.5t24.5 35.5t36 24t42.5 9t42.5 -9
t36.5 -24t25 -35.5t9 -43.5z" />
    <glyph glyph-name="Yacute" unicode="&#xdd;" horiz-adv-x="831" 
d="M311 0v377l-297 579h228l174 -381l176 381h225l-295 -579v-377h-211zM385 1065h-154l170 189h199z" />
    <glyph glyph-name="Thorn" unicode="&#xde;" horiz-adv-x="836" 
d="M428 332q63 0 97 39.5t34 105.5t-34.5 108t-96.5 42h-119v-295h119zM94 0v956h215v-155h105q103 0 173 -27t112.5 -72t60.5 -103.5t18 -121.5q0 -75 -22.5 -135t-65.5 -101t-106.5 -63t-145.5 -22h-129v-156h-215z" />
    <glyph glyph-name="germandbls" unicode="&#xdf;" horiz-adv-x="815" 
d="M348 158q22 -13 47.5 -23t65.5 -10q18 0 38.5 3.5t38.5 13.5t30 27t12 44q0 36 -18.5 60t-46 42.5t-59.5 35t-59.5 37.5t-46 49t-18.5 71q0 31 12.5 56t32 46.5t41.5 40l41.5 36.5t32 37t12.5 42q0 44 -31.5 65t-73.5 21q-35 0 -57 -10t-34 -27.5t-16.5 -39.5t-4.5 -46
v-729h-193v715q0 138 84 203t236 65q54 0 104 -12.5t88.5 -39t61 -67t22.5 -96.5q0 -34 -13.5 -62t-33.5 -51t-44 -42.5l-44 -36t-33.5 -31t-13.5 -27.5q0 -15 19 -29t47 -31l61 -38t61 -50t47 -67.5t19 -89.5q0 -62 -22 -104.5t-61 -68.5t-92.5 -38t-115.5 -12
q-42 0 -82.5 7.5t-71.5 22.5z" />
    <glyph glyph-name="agrave" unicode="&#xe0;" horiz-adv-x="743" 
d="M446 307q-18 3 -39.5 4.5t-39.5 1.5q-39 0 -64 -9.5t-39 -25t-19 -34.5t-5 -37q0 -23 8.5 -38.5t21.5 -24.5t29.5 -13t32.5 -4q21 0 41.5 5t36.5 17t26 32t10 50v76zM735 20q-34 -17 -74.5 -23.5t-80.5 -6.5q-33 0 -55.5 7.5t-37 20t-23 28t-13.5 30.5q-20 -23 -39.5 -39
t-42 -26.5t-49 -15.5t-60.5 -5q-58 0 -98 15t-65 41.5t-36.5 62.5t-11.5 79q0 67 25 112.5t67 73.5t97.5 40t115.5 12q9 0 22.5 -0.5t27 -1.5t25 -2t17.5 -2v31q0 31 -9 50t-27 29.5t-45 13.5t-62 3q-65 0 -117.5 -11.5t-89.5 -25.5l31 147q50 17 103 25t110 8
q72 0 127.5 -11t93 -39.5t57 -77.5t19.5 -126v-276q0 -35 39 -35q13 0 39 6zM381 782l-215 189h199l170 -189h-154z" />
    <glyph glyph-name="aacute" unicode="&#xe1;" horiz-adv-x="743" 
d="M446 307q-18 3 -39.5 4.5t-39.5 1.5q-39 0 -64 -9.5t-39 -25t-19 -34.5t-5 -37q0 -23 8.5 -38.5t21.5 -24.5t29.5 -13t32.5 -4q21 0 41.5 5t36.5 17t26 32t10 50v76zM735 20q-34 -17 -74.5 -23.5t-80.5 -6.5q-33 0 -55.5 7.5t-37 20t-23 28t-13.5 30.5q-20 -23 -39.5 -39
t-42 -26.5t-49 -15.5t-60.5 -5q-58 0 -98 15t-65 41.5t-36.5 62.5t-11.5 79q0 67 25 112.5t67 73.5t97.5 40t115.5 12q9 0 22.5 -0.5t27 -1.5t25 -2t17.5 -2v31q0 31 -9 50t-27 29.5t-45 13.5t-62 3q-65 0 -117.5 -11.5t-89.5 -25.5l31 147q50 17 103 25t110 8
q72 0 127.5 -11t93 -39.5t57 -77.5t19.5 -126v-276q0 -35 39 -35q13 0 39 6zM361 782h-154l170 189h199z" />
    <glyph glyph-name="acircumflex" unicode="&#xe2;" horiz-adv-x="743" 
d="M446 307q-18 3 -39.5 4.5t-39.5 1.5q-39 0 -64 -9.5t-39 -25t-19 -34.5t-5 -37q0 -23 8.5 -38.5t21.5 -24.5t29.5 -13t32.5 -4q21 0 41.5 5t36.5 17t26 32t10 50v76zM735 20q-34 -17 -74.5 -23.5t-80.5 -6.5q-33 0 -55.5 7.5t-37 20t-23 28t-13.5 30.5q-20 -23 -39.5 -39
t-42 -26.5t-49 -15.5t-60.5 -5q-58 0 -98 15t-65 41.5t-36.5 62.5t-11.5 79q0 67 25 112.5t67 73.5t97.5 40t115.5 12q9 0 22.5 -0.5t27 -1.5t25 -2t17.5 -2v31q0 31 -9 50t-27 29.5t-45 13.5t-62 3q-65 0 -117.5 -11.5t-89.5 -25.5l31 147q50 17 103 25t110 8
q72 0 127.5 -11t93 -39.5t57 -77.5t19.5 -126v-276q0 -35 39 -35q13 0 39 6zM461 782l-90 101l-88 -101h-164l174 189h158l174 -189h-164z" />
    <glyph glyph-name="atilde" unicode="&#xe3;" horiz-adv-x="743" 
d="M446 307q-18 3 -39.5 4.5t-39.5 1.5q-39 0 -64 -9.5t-39 -25t-19 -34.5t-5 -37q0 -23 8.5 -38.5t21.5 -24.5t29.5 -13t32.5 -4q21 0 41.5 5t36.5 17t26 32t10 50v76zM735 20q-34 -17 -74.5 -23.5t-80.5 -6.5q-33 0 -55.5 7.5t-37 20t-23 28t-13.5 30.5q-20 -23 -39.5 -39
t-42 -26.5t-49 -15.5t-60.5 -5q-58 0 -98 15t-65 41.5t-36.5 62.5t-11.5 79q0 67 25 112.5t67 73.5t97.5 40t115.5 12q9 0 22.5 -0.5t27 -1.5t25 -2t17.5 -2v31q0 31 -9 50t-27 29.5t-45 13.5t-62 3q-65 0 -117.5 -11.5t-89.5 -25.5l31 147q50 17 103 25t110 8
q72 0 127.5 -11t93 -39.5t57 -77.5t19.5 -126v-276q0 -35 39 -35q13 0 39 6zM633 969q0 -56 -8 -92.5t-25 -58t-43 -30t-61 -8.5q-26 0 -58 12.5t-63.5 27.5l-60 27.5t-47.5 12.5q-13 0 -21 -2.5t-12.5 -10t-6 -23t-1.5 -40.5h-115q0 101 30 150t107 49q28 0 59.5 -12.5
t61.5 -27.5l57.5 -27.5t49.5 -12.5q13 0 21 1t13 7t7 19.5t2 38.5h114z" />
    <glyph glyph-name="adieresis" unicode="&#xe4;" horiz-adv-x="743" 
d="M446 307q-18 3 -39.5 4.5t-39.5 1.5q-39 0 -64 -9.5t-39 -25t-19 -34.5t-5 -37q0 -23 8.5 -38.5t21.5 -24.5t29.5 -13t32.5 -4q21 0 41.5 5t36.5 17t26 32t10 50v76zM735 20q-34 -17 -74.5 -23.5t-80.5 -6.5q-33 0 -55.5 7.5t-37 20t-23 28t-13.5 30.5q-20 -23 -39.5 -39
t-42 -26.5t-49 -15.5t-60.5 -5q-58 0 -98 15t-65 41.5t-36.5 62.5t-11.5 79q0 67 25 112.5t67 73.5t97.5 40t115.5 12q9 0 22.5 -0.5t27 -1.5t25 -2t17.5 -2v31q0 31 -9 50t-27 29.5t-45 13.5t-62 3q-65 0 -117.5 -11.5t-89.5 -25.5l31 147q50 17 103 25t110 8
q72 0 127.5 -11t93 -39.5t57 -77.5t19.5 -126v-276q0 -35 39 -35q13 0 39 6zM321 877q0 -23 -9 -43.5t-24.5 -36t-36 -24.5t-42.5 -9t-42.5 9t-36 24.5t-25 36t-9.5 43.5t9.5 43.5t25 35.5t36 24t42.5 9t42.5 -9t36 -24t24.5 -35.5t9 -43.5zM647 877q0 -23 -9 -43.5t-25 -36
t-36.5 -24.5t-42.5 -9t-42.5 9t-36 24.5t-24.5 36t-9 43.5t9 43.5t24.5 35.5t36 24t42.5 9t42.5 -9t36.5 -24t25 -35.5t9 -43.5z" />
    <glyph glyph-name="aring" unicode="&#xe5;" horiz-adv-x="743" 
d="M446 307q-18 3 -39.5 4.5t-39.5 1.5q-39 0 -64 -9.5t-39 -25t-19 -34.5t-5 -37q0 -23 8.5 -38.5t21.5 -24.5t29.5 -13t32.5 -4q21 0 41.5 5t36.5 17t26 32t10 50v76zM735 20q-34 -17 -74.5 -23.5t-80.5 -6.5q-33 0 -55.5 7.5t-37 20t-23 28t-13.5 30.5q-20 -23 -39.5 -39
t-42 -26.5t-49 -15.5t-60.5 -5q-58 0 -98 15t-65 41.5t-36.5 62.5t-11.5 79q0 67 25 112.5t67 73.5t97.5 40t115.5 12q9 0 22.5 -0.5t27 -1.5t25 -2t17.5 -2v31q0 31 -9 50t-27 29.5t-45 13.5t-62 3q-65 0 -117.5 -11.5t-89.5 -25.5l31 147q50 17 103 25t110 8
q72 0 127.5 -11t93 -39.5t57 -77.5t19.5 -126v-276q0 -35 39 -35q13 0 39 6zM430 887q0 23 -17 41t-42 18q-23 0 -40 -18t-17 -41q0 -25 17 -42.5t40 -17.5q25 0 42 17.5t17 42.5zM500 887q0 -26 -10 -49.5t-27.5 -40.5t-41 -27t-50.5 -10q-26 0 -49.5 10t-40.5 27t-27 40.5
t-10 49.5t10.5 49t28 40.5t41.5 27.5t51 10q26 0 49 -10t40 -27.5t26.5 -40.5t9.5 -49z" />
    <glyph glyph-name="ae" unicode="&#xe6;" horiz-adv-x="1112" 
d="M446 307q-17 3 -38 4.5t-41 1.5q-39 0 -64 -9.5t-39 -25t-19 -34.5t-5 -37q0 -23 8.5 -38.5t21.5 -24.5t29.5 -13t32.5 -4q21 0 41.5 5t36.5 17t26 32t10 50v76zM860 414q1 18 0.5 43.5t-10.5 49.5t-32 41t-62 17q-35 0 -57.5 -14t-35.5 -35.5t-17.5 -48.5t-4.5 -53h219z
M1010 18q-23 -6 -45.5 -11t-49 -9t-59.5 -6t-78 -2q-51 0 -91.5 9.5t-70.5 25t-51 34.5t-33 37q-37 -54 -104 -80t-154 -26q-225 0 -225 198q0 67 25 112.5t67 73.5t97.5 40t115.5 12q8 0 20 -0.5l25 -1t25.5 -2l21.5 -2.5v31q0 31 -9 50t-27 29.5t-45 13.5t-62 3
q-59 0 -112 -11t-95 -26l31 147q45 17 99.5 25t113.5 8q66 0 121.5 -19.5t93.5 -52.5q37 31 86.5 51.5t114.5 20.5q87 0 144.5 -24.5t92.5 -66.5t49.5 -97.5t14.5 -116.5q0 -15 -1.5 -39t-6.5 -47h-408q-1 -29 3 -59t21.5 -54t52 -39.5t95.5 -15.5q82 0 136.5 12.5
t92.5 26.5z" />
    <glyph glyph-name="ccedilla" unicode="&#xe7;" horiz-adv-x="639" 
d="M573 16q-18 -7 -42.5 -12.5t-50.5 -9.5t-53.5 -6t-51.5 -2q-61 0 -118 19.5t-101.5 62.5t-71.5 111.5t-27 166.5q0 78 23.5 141.5t68 108.5t109.5 69.5t148 24.5q74 0 123.5 -11t78.5 -22l-30 -147q-38 15 -73.5 24t-80.5 9q-52 0 -85 -18.5t-52 -48t-26 -65.5t-7 -71
q0 -42 7.5 -79.5t28.5 -65.5t57.5 -44t94.5 -16q18 0 40 2t45 6t43.5 8.5t35.5 10.5zM166 -309l127 221h180l-157 -221h-150z" />
    <glyph glyph-name="egrave" unicode="&#xe8;" horiz-adv-x="731" 
d="M477 414q1 18 0.5 43.5t-10.5 49.5t-32 41t-62 17q-32 0 -53.5 -11.5t-35.5 -32t-20 -48t-6 -59.5h219zM629 18q-35 -11 -91 -19.5t-143 -8.5q-103 0 -168 26.5t-102 72.5t-50.5 108t-13.5 133q0 60 12.5 123.5t47 116t95 86.5t157.5 34q87 0 145 -24.5t93 -66.5
t50 -97.5t15 -116.5q0 -15 -2.5 -39t-7.5 -47h-408q-1 -29 3 -59t21.5 -54t52.5 -39.5t97 -15.5q84 0 138.5 12t88.5 27zM375 782l-215 189h199l170 -189h-154z" />
    <glyph glyph-name="eacute" unicode="&#xe9;" horiz-adv-x="731" 
d="M477 414q1 18 0.5 43.5t-10.5 49.5t-32 41t-62 17q-32 0 -53.5 -11.5t-35.5 -32t-20 -48t-6 -59.5h219zM629 18q-35 -11 -91 -19.5t-143 -8.5q-103 0 -168 26.5t-102 72.5t-50.5 108t-13.5 133q0 60 12.5 123.5t47 116t95 86.5t157.5 34q87 0 145 -24.5t93 -66.5
t50 -97.5t15 -116.5q0 -15 -2.5 -39t-7.5 -47h-408q-1 -29 3 -59t21.5 -54t52.5 -39.5t97 -15.5q84 0 138.5 12t88.5 27zM355 782h-154l170 189h199z" />
    <glyph glyph-name="ecircumflex" unicode="&#xea;" horiz-adv-x="731" 
d="M477 414q1 18 0.5 43.5t-10.5 49.5t-32 41t-62 17q-32 0 -53.5 -11.5t-35.5 -32t-20 -48t-6 -59.5h219zM629 18q-35 -11 -91 -19.5t-143 -8.5q-103 0 -168 26.5t-102 72.5t-50.5 108t-13.5 133q0 60 12.5 123.5t47 116t95 86.5t157.5 34q87 0 145 -24.5t93 -66.5
t50 -97.5t15 -116.5q0 -15 -2.5 -39t-7.5 -47h-408q-1 -29 3 -59t21.5 -54t52.5 -39.5t97 -15.5q84 0 138.5 12t88.5 27zM455 782l-90 101l-88 -101h-164l174 189h158l174 -189h-164z" />
    <glyph glyph-name="edieresis" unicode="&#xeb;" horiz-adv-x="731" 
d="M477 414q1 18 0.5 43.5t-10.5 49.5t-32 41t-62 17q-32 0 -53.5 -11.5t-35.5 -32t-20 -48t-6 -59.5h219zM629 18q-35 -11 -91 -19.5t-143 -8.5q-103 0 -168 26.5t-102 72.5t-50.5 108t-13.5 133q0 60 12.5 123.5t47 116t95 86.5t157.5 34q87 0 145 -24.5t93 -66.5
t50 -97.5t15 -116.5q0 -15 -2.5 -39t-7.5 -47h-408q-1 -29 3 -59t21.5 -54t52.5 -39.5t97 -15.5q84 0 138.5 12t88.5 27zM315 877q0 -23 -9 -43.5t-24.5 -36t-36 -24.5t-42.5 -9t-42.5 9t-36 24.5t-25 36t-9.5 43.5t9.5 43.5t25 35.5t36 24t42.5 9t42.5 -9t36 -24
t24.5 -35.5t9 -43.5zM641 877q0 -23 -9 -43.5t-25 -36t-36.5 -24.5t-42.5 -9t-42.5 9t-36 24.5t-24.5 36t-9 43.5t9 43.5t24.5 35.5t36 24t42.5 9t42.5 -9t36.5 -24t25 -35.5t9 -43.5z" />
    <glyph glyph-name="igrave" unicode="&#xec;" horiz-adv-x="391" 
d="M379 16q-34 -17 -76 -23.5t-82 -6.5q-15 0 -38 4t-44 17.5t-36 38.5t-15 67v567h191v-524q0 -35 38 -35q15 0 39 6zM206 782l-215 189h199l170 -189h-154z" />
    <glyph glyph-name="iacute" unicode="&#xed;" horiz-adv-x="391" 
d="M379 16q-34 -17 -76 -23.5t-82 -6.5q-15 0 -38 4t-44 17.5t-36 38.5t-15 67v567h191v-524q0 -35 38 -35q15 0 39 6zM185 782h-154l170 189h199z" />
    <glyph glyph-name="icircumflex" unicode="&#xee;" horiz-adv-x="391" 
d="M379 16q-34 -17 -76 -23.5t-82 -6.5q-15 0 -38 4t-44 17.5t-36 38.5t-15 67v567h191v-524q0 -35 38 -35q15 0 39 6zM286 782l-90 101l-88 -101h-164l174 189h158l174 -189h-164z" />
    <glyph glyph-name="idieresis" unicode="&#xef;" horiz-adv-x="391" 
d="M379 16q-34 -17 -76 -23.5t-82 -6.5q-15 0 -38 4t-44 17.5t-36 38.5t-15 67v567h191v-524q0 -35 38 -35q15 0 39 6zM146 877q0 -23 -9 -43.5t-24.5 -36t-36 -24.5t-42.5 -9t-42.5 9t-36 24.5t-25 36t-9.5 43.5t9.5 43.5t25 35.5t36 24t42.5 9t42.5 -9t36 -24t24.5 -35.5
t9 -43.5zM472 877q0 -23 -9 -43.5t-25 -36t-36.5 -24.5t-42.5 -9t-42.5 9t-36 24.5t-24.5 36t-9 43.5t9 43.5t24.5 35.5t36 24t42.5 9t42.5 -9t36.5 -24t25 -35.5t9 -43.5z" />
    <glyph glyph-name="eth" unicode="&#xf0;" horiz-adv-x="795" 
d="M506 535q-25 12 -54.5 19t-54.5 7q-21 0 -45.5 -5t-45.5 -26.5t-34.5 -66t-13.5 -123.5t13.5 -123.5t34.5 -66t45.5 -26.5t45.5 -5t45.5 5t45.5 26.5t35 66t14 123.5q0 25 -3 54.5t-7.5 56.5t-10 49.5t-10.5 34.5zM588 809q29 -48 55.5 -100t47 -109.5t32.5 -122
t12 -137.5q0 -114 -29 -183t-77 -106t-108.5 -49t-123.5 -12q-43 0 -84.5 4.5t-79 18t-69.5 38t-55.5 63.5t-36.5 94.5t-13 131.5q0 109 27 177.5t73 106.5t107.5 52t130.5 14q10 0 33 -2.5t43 -11.5l-11 24t-8.5 18l-10.5 21l-17 33l-143 -49l-23 100l119 43l-21 32.5
l-16 23.5t-13.5 18l-13.5 16h187l17.5 -24.5t17.5 -28.5l161 51l25 -102z" />
    <glyph glyph-name="ntilde" unicode="&#xf1;" horiz-adv-x="813" 
d="M805 16q-32 -17 -73 -23.5t-83 -6.5q-15 0 -38 4t-44.5 17.5t-37 38.5t-15.5 67v311q0 34 -2.5 54.5t-10 31.5t-20.5 14.5t-35 3.5q-16 0 -38 -7.5t-45.5 -19t-46.5 -25.5t-40 -27v-449h-192v680h192v-76q21 15 45.5 30.5t52.5 28t58.5 20t63.5 7.5q49 0 88 -7.5
t66.5 -30t42 -65t14.5 -112.5v-319q0 -35 34 -35q8 0 18.5 0.5t24.5 5.5zM667 969q0 -56 -8 -92.5t-25 -58t-43 -30t-61 -8.5q-26 0 -58 12.5t-63.5 27.5l-60 27.5t-47.5 12.5q-13 0 -21 -2.5t-12.5 -10t-6 -23t-1.5 -40.5h-115q0 101 30 150t107 49q28 0 59.5 -12.5
t61.5 -27.5l57.5 -27.5t49.5 -12.5q13 0 21 1t13 7t7 19.5t2 38.5h114z" />
    <glyph glyph-name="ograve" unicode="&#xf2;" horiz-adv-x="795" 
d="M397 119q21 0 45.5 5t45.5 26.5t35 66t14 123.5t-14 123.5t-35 66t-45.5 26.5t-45.5 5t-45 -5t-45 -26.5t-35 -66t-14 -123.5t14 -123.5t35 -66t45 -26.5t45 -5zM397 -10q-64 0 -124.5 11.5t-107.5 48.5t-75.5 106t-28.5 184q0 110 26.5 178.5t72.5 106.5t107 51.5
t130 13.5q68 0 129 -14t107 -52.5t73 -107t27 -176.5q0 -114 -28.5 -183t-75.5 -106t-107.5 -49t-124.5 -12zM408 782l-215 189h199l170 -189h-154z" />
    <glyph glyph-name="oacute" unicode="&#xf3;" horiz-adv-x="795" 
d="M397 119q21 0 45.5 5t45.5 26.5t35 66t14 123.5t-14 123.5t-35 66t-45.5 26.5t-45.5 5t-45 -5t-45 -26.5t-35 -66t-14 -123.5t14 -123.5t35 -66t45 -26.5t45 -5zM397 -10q-64 0 -124.5 11.5t-107.5 48.5t-75.5 106t-28.5 184q0 110 26.5 178.5t72.5 106.5t107 51.5
t130 13.5q68 0 129 -14t107 -52.5t73 -107t27 -176.5q0 -114 -28.5 -183t-75.5 -106t-107.5 -49t-124.5 -12zM387 782h-154l170 189h199z" />
    <glyph glyph-name="ocircumflex" unicode="&#xf4;" horiz-adv-x="795" 
d="M397 119q21 0 45.5 5t45.5 26.5t35 66t14 123.5t-14 123.5t-35 66t-45.5 26.5t-45.5 5t-45 -5t-45 -26.5t-35 -66t-14 -123.5t14 -123.5t35 -66t45 -26.5t45 -5zM397 -10q-64 0 -124.5 11.5t-107.5 48.5t-75.5 106t-28.5 184q0 110 26.5 178.5t72.5 106.5t107 51.5
t130 13.5q68 0 129 -14t107 -52.5t73 -107t27 -176.5q0 -114 -28.5 -183t-75.5 -106t-107.5 -49t-124.5 -12zM485 782l-90 101l-88 -101h-164l174 189h158l174 -189h-164z" />
    <glyph glyph-name="otilde" unicode="&#xf5;" horiz-adv-x="795" 
d="M397 119q21 0 45.5 5t45.5 26.5t35 66t14 123.5t-14 123.5t-35 66t-45.5 26.5t-45.5 5t-45 -5t-45 -26.5t-35 -66t-14 -123.5t14 -123.5t35 -66t45 -26.5t45 -5zM397 -10q-64 0 -124.5 11.5t-107.5 48.5t-75.5 106t-28.5 184q0 110 26.5 178.5t72.5 106.5t107 51.5
t130 13.5q68 0 129 -14t107 -52.5t73 -107t27 -176.5q0 -114 -28.5 -183t-75.5 -106t-107.5 -49t-124.5 -12zM657 969q0 -56 -8 -92.5t-25 -58t-43 -30t-61 -8.5q-26 0 -58 12.5t-63.5 27.5l-60 27.5t-47.5 12.5q-13 0 -21 -2.5t-12.5 -10t-6 -23t-1.5 -40.5h-115
q0 101 30 150t107 49q28 0 59.5 -12.5t61.5 -27.5l57.5 -27.5t49.5 -12.5q13 0 21 1t13 7t7 19.5t2 38.5h114z" />
    <glyph glyph-name="odieresis" unicode="&#xf6;" horiz-adv-x="795" 
d="M397 119q21 0 45.5 5t45.5 26.5t35 66t14 123.5t-14 123.5t-35 66t-45.5 26.5t-45.5 5t-45 -5t-45 -26.5t-35 -66t-14 -123.5t14 -123.5t35 -66t45 -26.5t45 -5zM397 -10q-64 0 -124.5 11.5t-107.5 48.5t-75.5 106t-28.5 184q0 110 26.5 178.5t72.5 106.5t107 51.5
t130 13.5q68 0 129 -14t107 -52.5t73 -107t27 -176.5q0 -114 -28.5 -183t-75.5 -106t-107.5 -49t-124.5 -12zM346 877q0 -23 -9 -43.5t-24.5 -36t-36 -24.5t-42.5 -9t-42.5 9t-36 24.5t-25 36t-9.5 43.5t9.5 43.5t25 35.5t36 24t42.5 9t42.5 -9t36 -24t24.5 -35.5t9 -43.5z
M672 877q0 -23 -9 -43.5t-25 -36t-36.5 -24.5t-42.5 -9t-42.5 9t-36 24.5t-24.5 36t-9 43.5t9 43.5t24.5 35.5t36 24t42.5 9t42.5 -9t36.5 -24t25 -35.5t9 -43.5z" />
    <glyph glyph-name="divide" unicode="&#xf7;" horiz-adv-x="819" 
d="M512 750q0 -25 -8.5 -44t-22.5 -32t-32.5 -20t-38.5 -7q-22 0 -41.5 8t-34 22t-23 32.5t-8.5 40.5q0 21 7.5 40.5t22 34t34 23t43.5 8.5q48 0 75 -30.5t27 -75.5zM76 381v156h667v-156h-667zM410 61q-22 0 -41.5 8.5t-34 22.5t-23 33.5t-8.5 40.5t7.5 40.5t22 34t34 23
t43.5 8.5q48 0 75 -30.5t27 -75.5q0 -26 -8.5 -45.5t-22.5 -32.5t-32.5 -20t-38.5 -7z" />
    <glyph glyph-name="oslash" unicode="&#xf8;" horiz-adv-x="795" 
d="M336 131q15 -8 31 -10t30 -2q21 0 45.5 5t45.5 26.5t35 66t14 123.5q0 37 -3.5 66.5t-9.5 52.5zM467 547q-19 11 -36.5 12.5t-33.5 1.5q-21 0 -45 -5t-45 -26.5t-35 -66t-14 -123.5q0 -42 3 -73t11 -54zM117 -59l59 102q-25 18 -46 43.5t-36.5 61.5t-24 83.5t-8.5 108.5
q0 110 26.5 178.5t72.5 106.5t107 51.5t130 13.5q37 0 73.5 -3.5t68.5 -12.5l30 55h109l-55 -96q50 -38 80 -108.5t30 -184.5t-28.5 -183t-75.5 -106t-107.5 -49t-124.5 -12q-34 0 -68.5 2.5t-66.5 11.5l-35 -63h-110z" />
    <glyph glyph-name="ugrave" unicode="&#xf9;" horiz-adv-x="813" 
d="M805 20q-34 -17 -76 -23.5t-82 -6.5q-37 0 -61.5 10.5t-39.5 25t-22.5 30t-9.5 26.5q-14 -12 -36.5 -28t-51 -30.5t-61.5 -24t-68 -9.5q-49 0 -88.5 7.5t-67 31t-42.5 66t-15 112.5v473h192v-424q0 -31 3 -51t10.5 -32t21.5 -16.5t35 -4.5q19 0 41.5 7.5t45 19t43.5 25.5
t38 27v449h193v-520q0 -35 34 -35q8 0 18.5 0.5t24.5 5.5zM416 782l-215 189h199l170 -189h-154z" />
    <glyph glyph-name="uacute" unicode="&#xfa;" horiz-adv-x="813" 
d="M805 20q-34 -17 -76 -23.5t-82 -6.5q-37 0 -61.5 10.5t-39.5 25t-22.5 30t-9.5 26.5q-14 -12 -36.5 -28t-51 -30.5t-61.5 -24t-68 -9.5q-49 0 -88.5 7.5t-67 31t-42.5 66t-15 112.5v473h192v-424q0 -31 3 -51t10.5 -32t21.5 -16.5t35 -4.5q19 0 41.5 7.5t45 19t43.5 25.5
t38 27v449h193v-520q0 -35 34 -35q8 0 18.5 0.5t24.5 5.5zM396 782h-154l170 189h199z" />
    <glyph glyph-name="ucircumflex" unicode="&#xfb;" horiz-adv-x="813" 
d="M805 20q-34 -17 -76 -23.5t-82 -6.5q-37 0 -61.5 10.5t-39.5 25t-22.5 30t-9.5 26.5q-14 -12 -36.5 -28t-51 -30.5t-61.5 -24t-68 -9.5q-49 0 -88.5 7.5t-67 31t-42.5 66t-15 112.5v473h192v-424q0 -31 3 -51t10.5 -32t21.5 -16.5t35 -4.5q19 0 41.5 7.5t45 19t43.5 25.5
t38 27v449h193v-520q0 -35 34 -35q8 0 18.5 0.5t24.5 5.5zM496 782l-90 101l-88 -101h-164l174 189h158l174 -189h-164z" />
    <glyph glyph-name="udieresis" unicode="&#xfc;" horiz-adv-x="813" 
d="M805 20q-34 -17 -76 -23.5t-82 -6.5q-37 0 -61.5 10.5t-39.5 25t-22.5 30t-9.5 26.5q-14 -12 -36.5 -28t-51 -30.5t-61.5 -24t-68 -9.5q-49 0 -88.5 7.5t-67 31t-42.5 66t-15 112.5v473h192v-424q0 -31 3 -51t10.5 -32t21.5 -16.5t35 -4.5q19 0 41.5 7.5t45 19t43.5 25.5
t38 27v449h193v-520q0 -35 34 -35q8 0 18.5 0.5t24.5 5.5zM356 877q0 -23 -9 -43.5t-24.5 -36t-36 -24.5t-42.5 -9t-42.5 9t-36 24.5t-25 36t-9.5 43.5t9.5 43.5t25 35.5t36 24t42.5 9t42.5 -9t36 -24t24.5 -35.5t9 -43.5zM682 877q0 -23 -9 -43.5t-25 -36t-36.5 -24.5
t-42.5 -9t-42.5 9t-36 24.5t-24.5 36t-9 43.5t9 43.5t24.5 35.5t36 24t42.5 9t42.5 -9t36.5 -24t25 -35.5t9 -43.5z" />
    <glyph glyph-name="yacute" unicode="&#xfd;" horiz-adv-x="731" 
d="M25 680h206l144 -453l135 453h207l-268 -705q-29 -76 -57 -124.5t-57.5 -76.5t-62.5 -39t-73 -11q-74 0 -123 14.5t-84 34.5l33 141q27 -17 60 -30t77 -13q21 0 37.5 2.5t31.5 15.5t28.5 39t27.5 74zM355 782h-154l170 189h199z" />
    <glyph glyph-name="thorn" unicode="&#xfe;" horiz-adv-x="799" 
d="M276 170q14 -15 48 -30t75 -15q28 0 53.5 7.5t45 30t31.5 63t12 106.5q0 59 -9 98.5t-25.5 63.5t-40 34.5t-52.5 10.5q-42 0 -69 -14.5t-42.5 -38.5t-21 -54t-5.5 -61v-201zM84 -266v1222h192v-352q15 17 32 32.5t39.5 27.5t54.5 19t77 7t91 -14.5t83 -52.5t60.5 -105.5
t23.5 -173.5q0 -74 -15.5 -138.5t-51 -112.5t-92 -75.5t-138.5 -27.5q-37 0 -64 4.5t-46.5 11t-32 14t-21.5 13.5v-299h-192z" />
    <glyph glyph-name="ydieresis" unicode="&#xff;" horiz-adv-x="731" 
d="M25 680h206l144 -453l135 453h207l-268 -705q-29 -76 -57 -124.5t-57.5 -76.5t-62.5 -39t-73 -11q-74 0 -123 14.5t-84 34.5l33 141q27 -17 60 -30t77 -13q21 0 37.5 2.5t31.5 15.5t28.5 39t27.5 74zM315 877q0 -23 -9 -43.5t-24.5 -36t-36 -24.5t-42.5 -9t-42.5 9
t-36 24.5t-25 36t-9.5 43.5t9.5 43.5t25 35.5t36 24t42.5 9t42.5 -9t36 -24t24.5 -35.5t9 -43.5zM641 877q0 -23 -9 -43.5t-25 -36t-36.5 -24.5t-42.5 -9t-42.5 9t-36 24.5t-24.5 36t-9 43.5t9 43.5t24.5 35.5t36 24t42.5 9t42.5 -9t36.5 -24t25 -35.5t9 -43.5z" />
    <glyph glyph-name="Amacron" unicode="&#x100;" horiz-adv-x="895" 
d="M446 686l-96 -336h193zM643 0l-53 178h-287l-53 -178h-223l311 956h217l313 -956h-225zM246 1065v123h406v-123h-406z" />
    <glyph glyph-name="amacron" unicode="&#x101;" horiz-adv-x="743" 
d="M446 307q-18 3 -39.5 4.5t-39.5 1.5q-39 0 -64 -9.5t-39 -25t-19 -34.5t-5 -37q0 -23 8.5 -38.5t21.5 -24.5t29.5 -13t32.5 -4q21 0 41.5 5t36.5 17t26 32t10 50v76zM735 20q-34 -17 -74.5 -23.5t-80.5 -6.5q-33 0 -55.5 7.5t-37 20t-23 28t-13.5 30.5q-20 -23 -39.5 -39
t-42 -26.5t-49 -15.5t-60.5 -5q-58 0 -98 15t-65 41.5t-36.5 62.5t-11.5 79q0 67 25 112.5t67 73.5t97.5 40t115.5 12q9 0 22.5 -0.5t27 -1.5t25 -2t17.5 -2v31q0 31 -9 50t-27 29.5t-45 13.5t-62 3q-65 0 -117.5 -11.5t-89.5 -25.5l31 147q50 17 103 25t110 8
q72 0 127.5 -11t93 -39.5t57 -77.5t19.5 -126v-276q0 -35 39 -35q13 0 39 6zM170 784v123h406v-123h-406z" />
    <glyph glyph-name="Abreve" unicode="&#x102;" horiz-adv-x="895" 
d="M446 686l-96 -336h193zM643 0l-53 178h-287l-53 -178h-223l311 956h217l313 -956h-225zM669 1250q0 -52 -20 -89t-51.5 -60.5t-71.5 -34.5t-80 -11t-79.5 11t-71 34.5t-51 60.5t-19.5 89h121q0 -25 9.5 -42t24.5 -27.5t32.5 -15.5t33.5 -5q20 0 38.5 5t33 15.5t23 27.5
t8.5 42h120z" />
    <glyph glyph-name="abreve" unicode="&#x103;" horiz-adv-x="743" 
d="M446 307q-18 3 -39.5 4.5t-39.5 1.5q-39 0 -64 -9.5t-39 -25t-19 -34.5t-5 -37q0 -23 8.5 -38.5t21.5 -24.5t29.5 -13t32.5 -4q21 0 41.5 5t36.5 17t26 32t10 50v76zM735 20q-34 -17 -74.5 -23.5t-80.5 -6.5q-33 0 -55.5 7.5t-37 20t-23 28t-13.5 30.5q-20 -23 -39.5 -39
t-42 -26.5t-49 -15.5t-60.5 -5q-58 0 -98 15t-65 41.5t-36.5 62.5t-11.5 79q0 67 25 112.5t67 73.5t97.5 40t115.5 12q9 0 22.5 -0.5t27 -1.5t25 -2t17.5 -2v31q0 31 -9 50t-27 29.5t-45 13.5t-62 3q-65 0 -117.5 -11.5t-89.5 -25.5l31 147q50 17 103 25t110 8
q72 0 127.5 -11t93 -39.5t57 -77.5t19.5 -126v-276q0 -35 39 -35q13 0 39 6zM594 969q0 -52 -20 -89t-51.5 -60.5t-71.5 -34.5t-80 -11t-79.5 11t-71 34.5t-51 60.5t-19.5 89h121q0 -25 9.5 -42t24.5 -27.5t32.5 -15.5t33.5 -5q20 0 38.5 5t33 15.5t23 27.5t8.5 42h120z" />
    <glyph glyph-name="Aogonek" unicode="&#x104;" horiz-adv-x="895" 
d="M883 -295q-10 -8 -33 -13t-49 -5q-52 0 -88.5 12t-60 32.5t-34 48.5t-10.5 60q0 28 11.5 53t28.5 45.5t38 36t39 25.5h-82l-53 178h-287l-53 -178h-223l311 956h217l313 -956q-24 -9 -49.5 -23t-46.5 -32t-35 -41t-14 -51q0 -27 9 -43t22.5 -25t29.5 -11.5t31 -2.5
q31 0 51 5.5t35 14.5zM446 686l-96 -336h193z" />
    <glyph glyph-name="aogonek" unicode="&#x105;" horiz-adv-x="743" 
d="M707 -295q-10 -8 -33 -13t-49 -5q-53 0 -89.5 12t-59.5 32.5t-33.5 48.5t-10.5 60q0 25 9 48t23.5 42t32 34.5t35.5 27.5q-38 9 -55.5 34t-25.5 50q-20 -23 -39.5 -39t-42 -26.5t-49 -15.5t-60.5 -5q-58 0 -98 15t-65 41.5t-36.5 62.5t-11.5 79q0 67 25 112.5t67 73.5
t97.5 40t115.5 12q9 0 22.5 -0.5t27 -1.5t25 -2t17.5 -2v31q0 31 -9 50t-27 29.5t-45 13.5t-62 3q-65 0 -117.5 -11.5t-89.5 -25.5l31 147q50 17 103 25t110 8q72 0 127.5 -11t93 -39.5t57 -77.5t19.5 -126v-280q0 -35 39 -35q13 0 39 6l20 -111q-11 -6 -21.5 -9.5
t-21.5 -6.5q-24 -9 -50 -22.5t-47 -31.5t-34.5 -41.5t-13.5 -51.5q0 -27 9 -43t22.5 -25t29.5 -11.5t31 -2.5q31 0 51 5.5t35 14.5zM446 307q-18 3 -39.5 4.5t-39.5 1.5q-39 0 -64 -9.5t-39 -25t-19 -34.5t-5 -37q0 -23 8.5 -38.5t21.5 -24.5t29.5 -13t32.5 -4q21 0 41.5 5
t36.5 17t26 32t10 50v76z" />
    <glyph glyph-name="Cacute" unicode="&#x106;" horiz-adv-x="879" 
d="M799 16q-22 -7 -53.5 -12.5t-65 -9.5t-66 -6t-55.5 -2q-109 0 -199.5 31t-155 91.5t-100.5 150t-36 206.5q0 105 29.5 197.5t89 161.5t149.5 109t211 40q56 0 103.5 -6.5t84.5 -14.5t63 -17l38 -13l-37 -189q-48 22 -110 38.5t-130 16.5q-74 0 -125.5 -24t-84 -67.5
t-47.5 -104.5t-15 -135q0 -94 31 -150.5t76.5 -87t96.5 -40t91 -9.5q24 0 57 4t68 11t68 14.5t56 15.5zM553 1063h-154l170 189h199z" />
    <glyph glyph-name="cacute" unicode="&#x107;" horiz-adv-x="639" 
d="M573 16q-18 -7 -42.5 -12.5t-50.5 -9.5t-53.5 -6t-51.5 -2q-61 0 -118 19.5t-101.5 62.5t-71.5 111.5t-27 166.5q0 78 23.5 141.5t68 108.5t109.5 69.5t148 24.5q74 0 123.5 -11t78.5 -22l-30 -147q-38 15 -73.5 24t-80.5 9q-52 0 -85 -18.5t-52 -48t-26 -65.5t-7 -71
q0 -42 7.5 -79.5t28.5 -65.5t57.5 -44t94.5 -16q18 0 40 2t45 6t43.5 8.5t35.5 10.5zM412 782h-154l170 189h199z" />
    <glyph glyph-name="Ccircumflex" unicode="&#x108;" horiz-adv-x="879" 
d="M799 16q-22 -7 -53.5 -12.5t-65 -9.5t-66 -6t-55.5 -2q-109 0 -199.5 31t-155 91.5t-100.5 150t-36 206.5q0 105 29.5 197.5t89 161.5t149.5 109t211 40q56 0 103.5 -6.5t84.5 -14.5t63 -17l38 -13l-37 -189q-48 22 -110 38.5t-130 16.5q-74 0 -125.5 -24t-84 -67.5
t-47.5 -104.5t-15 -135q0 -94 31 -150.5t76.5 -87t96.5 -40t91 -9.5q24 0 57 4t68 11t68 14.5t56 15.5zM610 1063l-90 101l-88 -101h-164l174 189h158l174 -189h-164z" />
    <glyph glyph-name="ccircumflex" unicode="&#x109;" horiz-adv-x="639" 
d="M573 16q-18 -7 -42.5 -12.5t-50.5 -9.5t-53.5 -6t-51.5 -2q-61 0 -118 19.5t-101.5 62.5t-71.5 111.5t-27 166.5q0 78 23.5 141.5t68 108.5t109.5 69.5t148 24.5q74 0 123.5 -11t78.5 -22l-30 -147q-38 15 -73.5 24t-80.5 9q-52 0 -85 -18.5t-52 -48t-26 -65.5t-7 -71
q0 -42 7.5 -79.5t28.5 -65.5t57.5 -44t94.5 -16q18 0 40 2t45 6t43.5 8.5t35.5 10.5zM451 782l-90 101l-88 -101h-164l174 189h158l174 -189h-164z" />
    <glyph glyph-name="Cdotaccent" unicode="&#x10a;" horiz-adv-x="879" 
d="M799 16q-22 -7 -53.5 -12.5t-65 -9.5t-66 -6t-55.5 -2q-109 0 -199.5 31t-155 91.5t-100.5 150t-36 206.5q0 105 29.5 197.5t89 161.5t149.5 109t211 40q56 0 103.5 -6.5t84.5 -14.5t63 -17l38 -13l-37 -189q-48 22 -110 38.5t-130 16.5q-74 0 -125.5 -24t-84 -67.5
t-47.5 -104.5t-15 -135q0 -94 31 -150.5t76.5 -87t96.5 -40t91 -9.5q24 0 57 4t68 11t68 14.5t56 15.5zM635 1158q0 -23 -9 -43.5t-24.5 -36t-36 -24.5t-42.5 -9t-42.5 9t-36 24.5t-25 36t-9.5 43.5t9.5 43.5t25 35.5t36 24t42.5 9t42.5 -9t36 -24t24.5 -35.5t9 -43.5z" />
    <glyph glyph-name="cdotaccent" unicode="&#x10b;" horiz-adv-x="639" 
d="M573 16q-18 -7 -42.5 -12.5t-50.5 -9.5t-53.5 -6t-51.5 -2q-61 0 -118 19.5t-101.5 62.5t-71.5 111.5t-27 166.5q0 78 23.5 141.5t68 108.5t109.5 69.5t148 24.5q74 0 123.5 -11t78.5 -22l-30 -147q-38 15 -73.5 24t-80.5 9q-52 0 -85 -18.5t-52 -48t-26 -65.5t-7 -71
q0 -42 7.5 -79.5t28.5 -65.5t57.5 -44t94.5 -16q18 0 40 2t45 6t43.5 8.5t35.5 10.5zM493 877q0 -23 -9 -43.5t-24.5 -36t-36 -24.5t-42.5 -9t-42.5 9t-36 24.5t-25 36t-9.5 43.5t9.5 43.5t25 35.5t36 24t42.5 9t42.5 -9t36 -24t24.5 -35.5t9 -43.5z" />
    <glyph glyph-name="Ccaron" unicode="&#x10c;" horiz-adv-x="879" 
d="M799 16q-22 -7 -53.5 -12.5t-65 -9.5t-66 -6t-55.5 -2q-109 0 -199.5 31t-155 91.5t-100.5 150t-36 206.5q0 105 29.5 197.5t89 161.5t149.5 109t211 40q56 0 103.5 -6.5t84.5 -14.5t63 -17l38 -13l-37 -189q-48 22 -110 38.5t-130 16.5q-74 0 -125.5 -24t-84 -67.5
t-47.5 -104.5t-15 -135q0 -94 31 -150.5t76.5 -87t96.5 -40t91 -9.5q24 0 57 4t68 11t68 14.5t56 15.5zM442 1063l-174 189h164l88 -103l90 103h164l-174 -189h-158z" />
    <glyph glyph-name="ccaron" unicode="&#x10d;" horiz-adv-x="639" 
d="M573 16q-18 -7 -42.5 -12.5t-50.5 -9.5t-53.5 -6t-51.5 -2q-61 0 -118 19.5t-101.5 62.5t-71.5 111.5t-27 166.5q0 78 23.5 141.5t68 108.5t109.5 69.5t148 24.5q74 0 123.5 -11t78.5 -22l-30 -147q-38 15 -73.5 24t-80.5 9q-52 0 -85 -18.5t-52 -48t-26 -65.5t-7 -71
q0 -42 7.5 -79.5t28.5 -65.5t57.5 -44t94.5 -16q18 0 40 2t45 6t43.5 8.5t35.5 10.5zM303 782l-174 189h164l88 -103l90 103h164l-174 -189h-158z" />
    <glyph glyph-name="Dcaron" unicode="&#x10e;" horiz-adv-x="993" 
d="M432 166q28 0 58.5 3t60.5 13.5t57 31t47.5 55t32.5 85.5t12 123q0 107 -26.5 169.5t-66 94.5t-86.5 41t-89 9h-125v-625h125zM94 0v956h359q128 0 217 -33t144.5 -94.5t80.5 -150.5t25 -201q0 -94 -19 -165.5t-52.5 -124.5t-78.5 -89t-96.5 -57.5t-107 -31t-109.5 -9.5
h-363zM356 1063l-174 189h164l88 -103l90 103h164l-174 -189h-158z" />
    <glyph glyph-name="dcaron" unicode="&#x10f;" horiz-adv-x="981" 
d="M822 690q10 6 25.5 16.5t30.5 23.5t25.5 27.5t10.5 28.5q0 15 -9.5 26t-20.5 22.5t-20.5 25.5t-9.5 35q0 40 26.5 61t68.5 21q17 0 33.5 -7t30 -21t22 -34.5t8.5 -46.5q0 -87 -52 -147.5t-137 -95.5zM526 539q-20 8 -51 15t-72 7q-32 0 -57.5 -8t-44.5 -31.5t-29 -65.5
t-10 -110q0 -57 8.5 -96.5t24.5 -63.5t39.5 -34.5t54.5 -10.5q42 0 68.5 11.5t41.5 33t21 52.5t6 71v230zM815 20q-32 -17 -73 -23.5t-83 -6.5q-37 0 -61 9.5t-38.5 23.5t-21.5 29t-10 26q-32 -42 -88.5 -65t-126.5 -23q-54 0 -99 20.5t-78 63t-51.5 108t-18.5 154.5
q0 73 15.5 137.5t50 112.5t91 76t137.5 28q62 0 101 -6.5t65 -15.5v288h193v-796q0 -35 39 -35q14 0 37 6z" />
    <glyph glyph-name="Dcroat" unicode="&#x110;" horiz-adv-x="1032" 
d="M471 166q27 0 57.5 3t60 13.5t56.5 31t47.5 55t32.5 85.5t12 123q0 107 -26 169.5t-66 94.5t-86.5 41t-87.5 9h-125v-244h148v-148h-148v-233h125zM131 0v399h-131v148h131v409h358q128 0 217.5 -33t145.5 -94.5t81 -150.5t25 -201q0 -94 -19.5 -165.5t-53 -124.5
t-78.5 -89t-96.5 -57.5t-107 -31t-109.5 -9.5h-363z" />
    <glyph glyph-name="dcroat" unicode="&#x111;" horiz-adv-x="834" 
d="M815 20q-32 -17 -73 -23.5t-83 -6.5q-37 0 -61 9.5t-38.5 23.5t-21.5 29t-10 26q-32 -42 -88.5 -65t-126.5 -23q-54 0 -99 20.5t-78 63t-51.5 108t-18.5 154.5q0 73 15.5 137.5t50 112.5t91 76t137.5 28q62 0 101 -6.5t65 -15.5v94h-215v123h215v71h193v-71h69v-123h-69
v-602q0 -35 39 -35q14 0 37 6zM526 539q-20 8 -51 15t-72 7q-32 0 -57.5 -8t-44.5 -31.5t-29 -65.5t-10 -110q0 -57 8.5 -96.5t24.5 -63.5t39.5 -34.5t54.5 -10.5q42 0 68.5 11.5t41.5 33t21 52.5t6 71v230z" />
    <glyph glyph-name="Emacron" unicode="&#x112;" horiz-adv-x="762" 
d="M94 0v956h611l-31 -178h-367v-200h336l-29 -179h-307v-221h398l-31 -178h-580zM199 1065v123h406v-123h-406z" />
    <glyph glyph-name="emacron" unicode="&#x113;" horiz-adv-x="731" 
d="M477 414q1 18 0.5 43.5t-10.5 49.5t-32 41t-62 17q-32 0 -53.5 -11.5t-35.5 -32t-20 -48t-6 -59.5h219zM629 18q-35 -11 -91 -19.5t-143 -8.5q-103 0 -168 26.5t-102 72.5t-50.5 108t-13.5 133q0 60 12.5 123.5t47 116t95 86.5t157.5 34q87 0 145 -24.5t93 -66.5
t50 -97.5t15 -116.5q0 -15 -2.5 -39t-7.5 -47h-408q-1 -29 3 -59t21.5 -54t52.5 -39.5t97 -15.5q84 0 138.5 12t88.5 27zM174 784v123h406v-123h-406z" />
    <glyph glyph-name="Ebreve" unicode="&#x114;" horiz-adv-x="762" 
d="M94 0v956h611l-31 -178h-367v-200h336l-29 -179h-307v-221h398l-31 -178h-580zM624 1250q0 -52 -20 -89t-51.5 -60.5t-71.5 -34.5t-80 -11t-79.5 11t-71 34.5t-51 60.5t-19.5 89h121q0 -25 9.5 -42t24.5 -27.5t32.5 -15.5t33.5 -5q20 0 38.5 5t33 15.5t23 27.5t8.5 42
h120z" />
    <glyph glyph-name="ebreve" unicode="&#x115;" horiz-adv-x="731" 
d="M477 414q1 18 0.5 43.5t-10.5 49.5t-32 41t-62 17q-32 0 -53.5 -11.5t-35.5 -32t-20 -48t-6 -59.5h219zM629 18q-35 -11 -91 -19.5t-143 -8.5q-103 0 -168 26.5t-102 72.5t-50.5 108t-13.5 133q0 60 12.5 123.5t47 116t95 86.5t157.5 34q87 0 145 -24.5t93 -66.5
t50 -97.5t15 -116.5q0 -15 -2.5 -39t-7.5 -47h-408q-1 -29 3 -59t21.5 -54t52.5 -39.5t97 -15.5q84 0 138.5 12t88.5 27zM598 969q0 -52 -20 -89t-51.5 -60.5t-71.5 -34.5t-80 -11t-79.5 11t-71 34.5t-51 60.5t-19.5 89h121q0 -25 9.5 -42t24.5 -27.5t32.5 -15.5t33.5 -5
q20 0 38.5 5t33 15.5t23 27.5t8.5 42h120z" />
    <glyph glyph-name="Edotaccent" unicode="&#x116;" horiz-adv-x="762" 
d="M94 0v956h611l-31 -178h-367v-200h336l-29 -179h-307v-221h398l-31 -178h-580zM514 1158q0 -23 -9 -43.5t-24.5 -36t-36 -24.5t-42.5 -9t-42.5 9t-36 24.5t-25 36t-9.5 43.5t9.5 43.5t25 35.5t36 24t42.5 9t42.5 -9t36 -24t24.5 -35.5t9 -43.5z" />
    <glyph glyph-name="edotaccent" unicode="&#x117;" horiz-adv-x="731" 
d="M477 414q1 18 0.5 43.5t-10.5 49.5t-32 41t-62 17q-32 0 -53.5 -11.5t-35.5 -32t-20 -48t-6 -59.5h219zM629 18q-35 -11 -91 -19.5t-143 -8.5q-103 0 -168 26.5t-102 72.5t-50.5 108t-13.5 133q0 60 12.5 123.5t47 116t95 86.5t157.5 34q87 0 145 -24.5t93 -66.5
t50 -97.5t15 -116.5q0 -15 -2.5 -39t-7.5 -47h-408q-1 -29 3 -59t21.5 -54t52.5 -39.5t97 -15.5q84 0 138.5 12t88.5 27zM485 877q0 -23 -9 -43.5t-24.5 -36t-36 -24.5t-42.5 -9t-42.5 9t-36 24.5t-25 36t-9.5 43.5t9.5 43.5t25 35.5t36 24t42.5 9t42.5 -9t36 -24
t24.5 -35.5t9 -43.5z" />
    <glyph glyph-name="Eogonek" unicode="&#x118;" horiz-adv-x="762" 
d="M633 -295q-9 -8 -32.5 -13t-49.5 -5q-52 0 -88.5 12t-60 32.5t-34 48.5t-10.5 60q0 28 11.5 53t28.5 45.5t38 36t39 25.5h-381v956h611l-31 -178h-367v-200h336l-29 -179h-307v-221h398l-31 -178h-56q-24 -9 -49.5 -23t-46.5 -32t-35 -41t-14 -51q0 -27 9 -43t22.5 -25
t29.5 -11.5t31 -2.5q31 0 51 5.5t35 14.5z" />
    <glyph glyph-name="eogonek" unicode="&#x119;" horiz-adv-x="731" 
d="M569 2q-24 -7 -48.5 -20.5t-44.5 -33t-33 -44t-13 -51.5t9 -43t22.5 -25t29.5 -11.5t31 -2.5q31 0 51 5.5t35 14.5l-18 -86q-9 -8 -32.5 -13t-49.5 -5q-52 0 -88.5 12t-60 32.5t-34 48.5t-10.5 60q0 25 9 48t23.5 42t32 34t34.5 26h-19q-103 0 -168 26.5t-102 72.5
t-50.5 108t-13.5 133q0 60 12.5 123.5t47 116t95 86.5t157.5 34q87 0 145 -24.5t93 -66.5t50 -97.5t15 -116.5q0 -15 -2.5 -39t-7.5 -47h-408q-1 -29 3 -59t21.5 -54t52.5 -39.5t97 -15.5q84 0 138.5 12t88.5 27l-30 -152zM477 414q1 18 0.5 43.5t-10.5 49.5t-32 41t-62 17
q-32 0 -53.5 -11.5t-35.5 -32t-20 -48t-6 -59.5h219z" />
    <glyph glyph-name="Ecaron" unicode="&#x11a;" horiz-adv-x="762" 
d="M94 0v956h611l-31 -178h-367v-200h336l-29 -179h-307v-221h398l-31 -178h-580zM324 1063l-174 189h164l88 -103l90 103h164l-174 -189h-158z" />
    <glyph glyph-name="ecaron" unicode="&#x11b;" horiz-adv-x="731" 
d="M477 414q1 18 0.5 43.5t-10.5 49.5t-32 41t-62 17q-32 0 -53.5 -11.5t-35.5 -32t-20 -48t-6 -59.5h219zM629 18q-35 -11 -91 -19.5t-143 -8.5q-103 0 -168 26.5t-102 72.5t-50.5 108t-13.5 133q0 60 12.5 123.5t47 116t95 86.5t157.5 34q87 0 145 -24.5t93 -66.5
t50 -97.5t15 -116.5q0 -15 -2.5 -39t-7.5 -47h-408q-1 -29 3 -59t21.5 -54t52.5 -39.5t97 -15.5q84 0 138.5 12t88.5 27zM297 782l-174 189h164l88 -103l90 103h164l-174 -189h-158z" />
    <glyph glyph-name="Gcircumflex" unicode="&#x11c;" horiz-adv-x="975" 
d="M684 403h-170l29 177h344v-551q-30 -9 -67.5 -17t-80 -14t-88.5 -9t-92 -3q-110 0 -200 30t-153.5 90t-98.5 149t-35 208q0 105 31 198t92 162t152.5 109.5t211.5 40.5q57 0 101 -3.5t79.5 -10.5t65.5 -16t59 -19l-47 -191q-21 12 -50 23t-62 18.5t-68.5 12t-69.5 4.5
q-73 0 -125 -25t-85.5 -69.5t-49.5 -105.5t-16 -134q0 -63 14 -109t37 -77.5t53.5 -51.5t62.5 -30.5t64.5 -14.5t59.5 -4q21 0 50.5 3t51.5 11v219zM618 1063l-90 101l-88 -101h-164l174 189h158l174 -189h-164z" />
    <glyph glyph-name="gcircumflex" unicode="&#x11d;" horiz-adv-x="799" 
d="M522 547q-21 5 -53.5 9.5t-62.5 4.5q-26 0 -52.5 -6t-47.5 -26t-34.5 -58.5t-13.5 -103.5q0 -60 8 -99.5t23 -63t37 -33t51 -9.5q82 0 113.5 41.5t31.5 124.5v219zM522 78q-18 -14 -37.5 -26.5t-43.5 -21.5t-56 -14.5t-76 -5.5q-54 0 -99.5 21t-78.5 64t-51.5 108.5
t-18.5 154.5q0 81 22.5 143t64 104t101 63.5t134.5 21.5q106 0 184.5 -11.5t147.5 -27.5v-520q0 -140 -28 -221t-76.5 -122.5t-114 -52.5t-140.5 -11q-39 0 -80.5 4t-80 11t-72 16t-57.5 18l36 147q23 -9 52 -18t60.5 -15.5t65 -11t66.5 -4.5q27 0 58 3.5t57 18t43.5 44.5
t17.5 83v58zM500 782l-90 101l-88 -101h-164l174 189h158l174 -189h-164z" />
    <glyph glyph-name="Gbreve" unicode="&#x11e;" horiz-adv-x="975" 
d="M684 403h-170l29 177h344v-551q-30 -9 -67.5 -17t-80 -14t-88.5 -9t-92 -3q-110 0 -200 30t-153.5 90t-98.5 149t-35 208q0 105 31 198t92 162t152.5 109.5t211.5 40.5q57 0 101 -3.5t79.5 -10.5t65.5 -16t59 -19l-47 -191q-21 12 -50 23t-62 18.5t-68.5 12t-69.5 4.5
q-73 0 -125 -25t-85.5 -69.5t-49.5 -105.5t-16 -134q0 -63 14 -109t37 -77.5t53.5 -51.5t62.5 -30.5t64.5 -14.5t59.5 -4q21 0 50.5 3t51.5 11v219zM751 1250q0 -52 -20 -89t-51.5 -60.5t-71.5 -34.5t-80 -11t-79.5 11t-71 34.5t-51 60.5t-19.5 89h121q0 -25 9.5 -42
t24.5 -27.5t32.5 -15.5t33.5 -5q20 0 38.5 5t33 15.5t23 27.5t8.5 42h120z" />
    <glyph glyph-name="gbreve" unicode="&#x11f;" horiz-adv-x="799" 
d="M522 547q-21 5 -53.5 9.5t-62.5 4.5q-26 0 -52.5 -6t-47.5 -26t-34.5 -58.5t-13.5 -103.5q0 -60 8 -99.5t23 -63t37 -33t51 -9.5q82 0 113.5 41.5t31.5 124.5v219zM522 78q-18 -14 -37.5 -26.5t-43.5 -21.5t-56 -14.5t-76 -5.5q-54 0 -99.5 21t-78.5 64t-51.5 108.5
t-18.5 154.5q0 81 22.5 143t64 104t101 63.5t134.5 21.5q106 0 184.5 -11.5t147.5 -27.5v-520q0 -140 -28 -221t-76.5 -122.5t-114 -52.5t-140.5 -11q-39 0 -80.5 4t-80 11t-72 16t-57.5 18l36 147q23 -9 52 -18t60.5 -15.5t65 -11t66.5 -4.5q27 0 58 3.5t57 18t43.5 44.5
t17.5 83v58zM630 969q0 -52 -20 -89t-51.5 -60.5t-71.5 -34.5t-80 -11t-79.5 11t-71 34.5t-51 60.5t-19.5 89h121q0 -25 9.5 -42t24.5 -27.5t32.5 -15.5t33.5 -5q20 0 38.5 5t33 15.5t23 27.5t8.5 42h120z" />
    <glyph glyph-name="Gdotaccent" unicode="&#x120;" horiz-adv-x="975" 
d="M684 403h-170l29 177h344v-551q-30 -9 -67.5 -17t-80 -14t-88.5 -9t-92 -3q-110 0 -200 30t-153.5 90t-98.5 149t-35 208q0 105 31 198t92 162t152.5 109.5t211.5 40.5q57 0 101 -3.5t79.5 -10.5t65.5 -16t59 -19l-47 -191q-21 12 -50 23t-62 18.5t-68.5 12t-69.5 4.5
q-73 0 -125 -25t-85.5 -69.5t-49.5 -105.5t-16 -134q0 -63 14 -109t37 -77.5t53.5 -51.5t62.5 -30.5t64.5 -14.5t59.5 -4q21 0 50.5 3t51.5 11v219zM661 1158q0 -23 -9 -43.5t-24.5 -36t-36 -24.5t-42.5 -9t-42.5 9t-36 24.5t-25 36t-9.5 43.5t9.5 43.5t25 35.5t36 24
t42.5 9t42.5 -9t36 -24t24.5 -35.5t9 -43.5z" />
    <glyph glyph-name="gdotaccent" unicode="&#x121;" horiz-adv-x="799" 
d="M522 547q-21 5 -53.5 9.5t-62.5 4.5q-26 0 -52.5 -6t-47.5 -26t-34.5 -58.5t-13.5 -103.5q0 -60 8 -99.5t23 -63t37 -33t51 -9.5q82 0 113.5 41.5t31.5 124.5v219zM522 78q-18 -14 -37.5 -26.5t-43.5 -21.5t-56 -14.5t-76 -5.5q-54 0 -99.5 21t-78.5 64t-51.5 108.5
t-18.5 154.5q0 81 22.5 143t64 104t101 63.5t134.5 21.5q106 0 184.5 -11.5t147.5 -27.5v-520q0 -140 -28 -221t-76.5 -122.5t-114 -52.5t-140.5 -11q-39 0 -80.5 4t-80 11t-72 16t-57.5 18l36 147q23 -9 52 -18t60.5 -15.5t65 -11t66.5 -4.5q27 0 58 3.5t57 18t43.5 44.5
t17.5 83v58zM518 877q0 -23 -9 -43.5t-24.5 -36t-36 -24.5t-42.5 -9t-42.5 9t-36 24.5t-25 36t-9.5 43.5t9.5 43.5t25 35.5t36 24t42.5 9t42.5 -9t36 -24t24.5 -35.5t9 -43.5z" />
    <glyph glyph-name="Gcommaaccent" unicode="&#x122;" horiz-adv-x="975" 
d="M684 403h-170l29 177h344v-551q-30 -9 -67.5 -17t-80 -14t-88.5 -9t-92 -3q-110 0 -200 30t-153.5 90t-98.5 149t-35 208q0 105 31 198t92 162t152.5 109.5t211.5 40.5q57 0 101 -3.5t79.5 -10.5t65.5 -16t59 -19l-47 -191q-21 12 -50 23t-62 18.5t-68.5 12t-69.5 4.5
q-73 0 -125 -25t-85.5 -69.5t-49.5 -105.5t-16 -134q0 -63 14 -109t37 -77.5t53.5 -51.5t62.5 -30.5t64.5 -14.5t59.5 -4q21 0 50.5 3t51.5 11v219zM426 -375q10 6 25.5 16.5t30.5 23.5t25.5 27.5t10.5 28.5q0 15 -9.5 26t-20.5 22.5t-20.5 25.5t-9.5 35q0 40 26.5 61
t68.5 21q17 0 33.5 -7t30 -21t22 -34.5t8.5 -46.5q0 -87 -52 -147.5t-137 -95.5z" />
    <glyph glyph-name="gcommaaccent" unicode="&#x123;" horiz-adv-x="799" 
d="M522 547q-21 5 -53.5 9.5t-62.5 4.5q-26 0 -52.5 -6t-47.5 -26t-34.5 -58.5t-13.5 -103.5q0 -60 8 -99.5t23 -63t37 -33t51 -9.5q82 0 113.5 41.5t31.5 124.5v219zM522 78q-18 -14 -37.5 -26.5t-43.5 -21.5t-56 -14.5t-76 -5.5q-54 0 -99.5 21t-78.5 64t-51.5 108.5
t-18.5 154.5q0 81 22.5 143t64 104t101 63.5t134.5 21.5q106 0 184.5 -11.5t147.5 -27.5v-520q0 -140 -28 -221t-76.5 -122.5t-114 -52.5t-140.5 -11q-39 0 -80.5 4t-80 11t-72 16t-57.5 18l36 147q23 -9 52 -18t60.5 -15.5t65 -11t66.5 -4.5q27 0 58 3.5t57 18t43.5 44.5
t17.5 83v58zM510 1069q-10 -6 -25.5 -16.5t-30.5 -23.5t-25.5 -27.5t-10.5 -28.5q0 -15 9.5 -26t20.5 -22.5t20.5 -25.5t9.5 -35q0 -40 -26.5 -61t-68.5 -21q-17 0 -33.5 7t-30 21t-22 34.5t-8.5 46.5q0 87 52 147.5t137 95.5z" />
    <glyph glyph-name="Hcircumflex" unicode="&#x124;" horiz-adv-x="965" 
d="M657 0v399h-350v-399h-213v956h213v-378h350v378h213v-956h-213zM551 1063l-90 101l-88 -101h-164l174 189h158l174 -189h-164z" />
    <glyph glyph-name="hcircumflex" unicode="&#x125;" horiz-adv-x="813" 
d="M805 16q-32 -17 -74 -23.5t-84 -6.5q-15 0 -37.5 4t-43.5 17.5t-36.5 38.5t-15.5 67v311q0 34 -2.5 54.5t-10 31.5t-20.5 14.5t-35 3.5q-16 0 -38 -7.5t-45.5 -19t-46.5 -25.5t-40 -27v-449h-192v956h192v-352q12 9 33 23.5t50 28.5t63.5 24t73.5 10q49 0 88 -7.5
t66.5 -30t42 -65t14.5 -112.5v-319q0 -35 38 -35q18 0 39 6zM280 1065l-90 101l-88 -101h-164l174 189h158l174 -189h-164z" />
    <glyph glyph-name="Hbar" unicode="&#x126;" horiz-adv-x="965" 
d="M657 0v399h-350v-399h-213v705h-102v147h102v104h213v-104h350v104h213v-104h103v-147h-103v-705h-213zM657 578v127h-350v-127h350z" />
    <glyph glyph-name="hbar" unicode="&#x127;" horiz-adv-x="813" 
d="M805 16q-32 -17 -74 -23.5t-84 -6.5q-15 0 -37.5 4t-43.5 17.5t-36.5 38.5t-15.5 67v311q0 34 -2.5 54.5t-10 31.5t-20.5 14.5t-35 3.5q-16 0 -38 -7.5t-45.5 -19t-46.5 -25.5t-40 -27v-449h-192v762h-70v123h70v71h192v-71h216v-123h-216v-158q12 9 33 23.5t50 28.5
t63.5 24t73.5 10q49 0 88 -7.5t66.5 -30t42 -65t14.5 -112.5v-319q0 -35 38 -35q18 0 39 6z" />
    <glyph glyph-name="Itilde" unicode="&#x128;" horiz-adv-x="410" 
d="M98 0v956h213v-956h-213zM466 1250q0 -56 -8 -92.5t-25 -58t-43 -30t-61 -8.5q-26 0 -58 12.5t-63.5 27.5l-60 27.5t-47.5 12.5q-13 0 -21 -2.5t-12.5 -10t-6 -23t-1.5 -40.5h-115q0 101 30 150t107 49q28 0 59.5 -12.5t61.5 -27.5l57.5 -27.5t49.5 -12.5q13 0 21 1t13 7
t7 19.5t2 38.5h114z" />
    <glyph glyph-name="itilde" unicode="&#x129;" horiz-adv-x="391" 
d="M379 16q-34 -17 -76 -23.5t-82 -6.5q-15 0 -38 4t-44 17.5t-36 38.5t-15 67v567h191v-524q0 -35 38 -35q15 0 39 6zM457 969q0 -56 -8 -92.5t-25 -58t-43 -30t-61 -8.5q-26 0 -58 12.5t-63.5 27.5l-60 27.5t-47.5 12.5q-13 0 -21 -2.5t-12.5 -10t-6 -23t-1.5 -40.5h-115
q0 101 30 150t107 49q28 0 59.5 -12.5t61.5 -27.5l57.5 -27.5t49.5 -12.5q13 0 21 1t13 7t7 19.5t2 38.5h114z" />
    <glyph glyph-name="Imacron" unicode="&#x12a;" horiz-adv-x="410" 
d="M98 0v956h213v-956h-213zM2 1065v123h406v-123h-406z" />
    <glyph glyph-name="imacron" unicode="&#x12b;" horiz-adv-x="391" 
d="M379 16q-34 -17 -76 -23.5t-82 -6.5q-15 0 -38 4t-44 17.5t-36 38.5t-15 67v567h191v-524q0 -35 38 -35q15 0 39 6zM-7 784v123h406v-123h-406z" />
    <glyph glyph-name="Ibreve" unicode="&#x12c;" horiz-adv-x="410" 
d="M98 0v956h213v-956h-213zM427 1250q0 -52 -20 -89t-51.5 -60.5t-71.5 -34.5t-80 -11t-79.5 11t-71 34.5t-51 60.5t-19.5 89h121q0 -25 9.5 -42t24.5 -27.5t32.5 -15.5t33.5 -5q20 0 38.5 5t33 15.5t23 27.5t8.5 42h120z" />
    <glyph glyph-name="ibreve" unicode="&#x12d;" horiz-adv-x="391" 
d="M379 16q-34 -17 -76 -23.5t-82 -6.5q-15 0 -38 4t-44 17.5t-36 38.5t-15 67v567h191v-524q0 -35 38 -35q15 0 39 6zM418 969q0 -52 -20 -89t-51.5 -60.5t-71.5 -34.5t-80 -11t-79.5 11t-71 34.5t-51 60.5t-19.5 89h121q0 -25 9.5 -42t24.5 -27.5t32.5 -15.5t33.5 -5
q20 0 38.5 5t33 15.5t23 27.5t8.5 42h120z" />
    <glyph glyph-name="Iogonek" unicode="&#x12e;" horiz-adv-x="410" 
d="M326 -295q-10 -8 -33 -13t-49 -5q-53 0 -89.5 12t-59.5 32.5t-33.5 48.5t-10.5 60q0 28 11.5 53t28.5 45.5t38 36t39 25.5h-70v956h213v-956q-24 -9 -49.5 -23t-46.5 -32t-35 -41t-14 -51q0 -27 9 -43t22.5 -25t29.5 -11.5t31 -2.5q31 0 51 5.5t35 14.5z" />
    <glyph glyph-name="iogonek" unicode="&#x12f;" horiz-adv-x="391" 
d="M348 -295q-9 -8 -32.5 -13t-49.5 -5q-52 0 -88.5 12t-59.5 32.5t-33.5 48.5t-10.5 60q0 26 9 49t23.5 42.5t32 34.5t35.5 26q-15 4 -30.5 12.5t-28 22.5t-20 35.5t-7.5 50.5v567h191v-524q0 -35 38 -35q15 0 39 6l23 -111q-9 -3 -23 -7t-26 -9q-24 -9 -49 -23t-46 -32
t-34 -41t-13 -51q0 -27 9 -43t23 -25t30 -11.5t31 -2.5q31 0 50.5 5.5t35.5 14.5zM295 874q0 -23 -9 -43.5t-25 -35.5t-36.5 -24t-42.5 -9q-21 0 -41.5 9t-36 24t-25 35.5t-9.5 43.5t9.5 43.5t25 36t36 24.5t41.5 9q22 0 42.5 -9t36.5 -24.5t25 -36t9 -43.5z" />
    <glyph glyph-name="Idotaccent" unicode="&#x130;" horiz-adv-x="410" 
d="M98 0v956h213v-956h-213zM317 1158q0 -23 -9 -43.5t-24.5 -36t-36 -24.5t-42.5 -9t-42.5 9t-36 24.5t-25 36t-9.5 43.5t9.5 43.5t25 35.5t36 24t42.5 9t42.5 -9t36 -24t24.5 -35.5t9 -43.5z" />
    <glyph glyph-name="dotlessi" unicode="&#x131;" horiz-adv-x="391" 
d="M379 16q-34 -17 -76 -23.5t-82 -6.5q-15 0 -38 4t-44 17.5t-36 38.5t-15 67v567h191v-524q0 -35 38 -35q15 0 39 6z" />
    <glyph glyph-name="Jcircumflex" unicode="&#x134;" horiz-adv-x="555" 
d="M14 178q29 -8 64 -14t61 -6q54 0 82.5 23.5t28.5 92.5v504h-178l30 178h361v-657q0 -90 -21.5 -150t-59.5 -96.5t-89.5 -51.5t-110.5 -15q-11 0 -29.5 1t-39.5 3t-40.5 4.5t-31.5 5.5zM367 1063l-90 101l-88 -101h-164l174 189h158l174 -189h-164z" />
    <glyph glyph-name="jcircumflex" unicode="&#x135;" horiz-adv-x="381" 
d="M104 680h193v-713q0 -45 -9.5 -88.5t-35 -78t-70 -55.5t-114.5 -21q-42 0 -81.5 5t-84.5 17l30 139q19 -6 46 -11t49 -5q21 0 36 3t24 12t13 24.5t4 40.5v731zM287 782l-90 101l-88 -101h-164l174 189h157l175 -189h-164z" />
    <glyph glyph-name="Kcommaaccent" unicode="&#x136;" horiz-adv-x="907" 
d="M657 0l-215 442l-135 -170v-272h-213v956h213v-421l305 421h244l-270 -362l309 -594h-238zM353 -375q10 6 25.5 16.5t30.5 23.5t25.5 27.5t10.5 28.5q0 15 -9.5 26t-20.5 22.5t-20.5 25.5t-9.5 35q0 40 26.5 61t68.5 21q17 0 33.5 -7t30 -21t22 -34.5t8.5 -46.5
q0 -87 -52 -147.5t-137 -95.5z" />
    <glyph glyph-name="kcommaaccent" unicode="&#x137;" horiz-adv-x="752" 
d="M530 0l-172 289l-82 -86v-203h-192v956h192v-546l246 270h217l-252 -258l263 -422h-220zM275 -375q10 6 25.5 16.5t30.5 23.5t25.5 27.5t10.5 28.5q0 15 -9.5 26t-20.5 22.5t-20.5 25.5t-9.5 35q0 40 26.5 61t68.5 21q17 0 33.5 -7t30 -21t22 -34.5t8.5 -46.5
q0 -87 -52 -147.5t-137 -95.5z" />
    <glyph glyph-name="kgreenlandic" unicode="&#x138;" horiz-adv-x="752" 
d="M276 686v-276l246 270h217l-252 -258l263 -422h-220l-172 289l-82 -86v-203h-192v686h192z" />
    <glyph glyph-name="Lacute" unicode="&#x139;" horiz-adv-x="698" 
d="M94 0v956h213v-778h355l-29 -178h-539zM381 1063h-154l170 189h199z" />
    <glyph glyph-name="lacute" unicode="&#x13a;" horiz-adv-x="387" 
d="M379 16q-32 -17 -74 -23.5t-84 -6.5q-15 0 -37.5 4t-43.5 17.5t-36.5 38.5t-15.5 67v843h193v-800q0 -35 38 -35q15 0 39 6zM185 1065h-154l170 189h199z" />
    <glyph glyph-name="Lcommaaccent" unicode="&#x13b;" horiz-adv-x="698" 
d="M94 0v956h213v-778h355l-29 -178h-539zM248 -375q10 6 25.5 16.5t30.5 23.5t25.5 27.5t10.5 28.5q0 15 -9.5 26t-20.5 22.5t-20.5 25.5t-9.5 35q0 40 26.5 61t68.5 21q17 0 33.5 -7t30 -21t22 -34.5t8.5 -46.5q0 -87 -52 -147.5t-137 -95.5z" />
    <glyph glyph-name="lcommaaccent" unicode="&#x13c;" horiz-adv-x="387" 
d="M379 16q-32 -17 -74 -23.5t-84 -6.5q-15 0 -37.5 4t-43.5 17.5t-36.5 38.5t-15.5 67v843h193v-800q0 -35 38 -35q15 0 39 6zM93 -375q10 6 25.5 16.5t30.5 23.5t25.5 27.5t10.5 28.5q0 15 -9.5 26t-20.5 22.5t-20.5 25.5t-9.5 35q0 40 26.5 61t68.5 21q17 0 33.5 -7
t30 -21t22 -34.5t8.5 -46.5q0 -87 -52 -147.5t-137 -95.5z" />
    <glyph glyph-name="Lcaron" unicode="&#x13d;" horiz-adv-x="698" 
d="M94 0v956h213v-778h355l-29 -178h-539zM410 690q10 6 25.5 16.5t30.5 23.5t25.5 27.5t10.5 28.5q0 15 -9.5 26t-20.5 22.5t-20.5 25.5t-9.5 35q0 40 26.5 61t68.5 21q17 0 33.5 -7t30 -21t22 -34.5t8.5 -46.5q0 -87 -52 -147.5t-137 -95.5z" />
    <glyph glyph-name="lcaron" unicode="&#x13e;" horiz-adv-x="543" 
d="M383 690q10 6 25.5 16.5t30.5 23.5t25.5 27.5t10.5 28.5q0 15 -9.5 26t-20.5 22.5t-20.5 25.5t-9.5 35q0 40 26.5 61t68.5 21q17 0 33.5 -7t30 -21t22 -34.5t8.5 -46.5q0 -87 -52 -147.5t-137 -95.5zM379 16q-32 -17 -74 -23.5t-84 -6.5q-15 0 -37.5 4t-43.5 17.5
t-36.5 38.5t-15.5 67v843h193v-800q0 -35 38 -35q15 0 39 6z" />
    <glyph glyph-name="Ldot" unicode="&#x13f;" horiz-adv-x="698" 
d="M661 491q0 -23 -9 -43.5t-24.5 -36t-36 -24.5t-42.5 -9t-42.5 9t-36 24.5t-25 36t-9.5 43.5t9.5 43.5t25 35.5t36 24t42.5 9t42.5 -9t36 -24t24.5 -35.5t9 -43.5zM94 0v956h213v-778h355l-29 -178h-539z" />
    <glyph glyph-name="ldot" unicode="&#x140;" horiz-adv-x="623" 
d="M608 491q0 -23 -9 -43.5t-24.5 -36t-36 -24.5t-42.5 -9t-42.5 9t-36 24.5t-25 36t-9.5 43.5t9.5 43.5t25 35.5t36 24t42.5 9t42.5 -9t36 -24t24.5 -35.5t9 -43.5zM379 16q-32 -17 -74 -23.5t-84 -6.5q-15 0 -37.5 4t-43.5 17.5t-36.5 38.5t-15.5 67v843h193v-800
q0 -35 38 -35q15 0 39 6z" />
    <glyph glyph-name="Lslash" unicode="&#x141;" horiz-adv-x="741" 
d="M137 0v406l-112 -74v168l112 75v381h215v-241l176 114v-167l-176 -117v-367h353l-29 -178h-539z" />
    <glyph glyph-name="lslash" unicode="&#x142;" horiz-adv-x="442" 
d="M422 16q-34 -17 -75 -23.5t-83 -6.5q-15 0 -37.5 4t-43.5 17.5t-36.5 38.5t-15.5 67v293l-98 -64v162l98 61v391h193v-268l98 64v-162l-98 -62v-372q0 -17 8 -26t28 -9q17 0 41 6z" />
    <glyph glyph-name="Nacute" unicode="&#x143;" horiz-adv-x="965" 
d="M690 0l-403 604v-604h-193v956h180l404 -604v604h192v-956h-180zM473 1063h-154l170 189h199z" />
    <glyph glyph-name="nacute" unicode="&#x144;" horiz-adv-x="813" 
d="M805 16q-32 -17 -73 -23.5t-83 -6.5q-15 0 -38 4t-44.5 17.5t-37 38.5t-15.5 67v311q0 34 -2.5 54.5t-10 31.5t-20.5 14.5t-35 3.5q-16 0 -38 -7.5t-45.5 -19t-46.5 -25.5t-40 -27v-449h-192v680h192v-76q21 15 45.5 30.5t52.5 28t58.5 20t63.5 7.5q49 0 88 -7.5
t66.5 -30t42 -65t14.5 -112.5v-319q0 -35 34 -35q8 0 18.5 0.5t24.5 5.5zM418 782h-154l170 189h199z" />
    <glyph glyph-name="Ncommaaccent" unicode="&#x145;" horiz-adv-x="965" 
d="M690 0l-403 604v-604h-193v956h180l404 -604v604h192v-956h-180zM381 -375q10 6 25.5 16.5t30.5 23.5t25.5 27.5t10.5 28.5q0 15 -9.5 26t-20.5 22.5t-20.5 25.5t-9.5 35q0 40 26.5 61t68.5 21q17 0 33.5 -7t30 -21t22 -34.5t8.5 -46.5q0 -87 -52 -147.5t-137 -95.5z" />
    <glyph glyph-name="ncommaaccent" unicode="&#x146;" horiz-adv-x="813" 
d="M805 16q-32 -17 -73 -23.5t-83 -6.5q-15 0 -38 4t-44.5 17.5t-37 38.5t-15.5 67v311q0 34 -2.5 54.5t-10 31.5t-20.5 14.5t-35 3.5q-16 0 -38 -7.5t-45.5 -19t-46.5 -25.5t-40 -27v-449h-192v680h192v-76q21 15 45.5 30.5t52.5 28t58.5 20t63.5 7.5q49 0 88 -7.5
t66.5 -30t42 -65t14.5 -112.5v-319q0 -35 34 -35q8 0 18.5 0.5t24.5 5.5zM285 -375q10 6 25.5 16.5t30.5 23.5t25.5 27.5t10.5 28.5q0 15 -9.5 26t-20.5 22.5t-20.5 25.5t-9.5 35q0 40 26.5 61t68.5 21q17 0 33.5 -7t30 -21t22 -34.5t8.5 -46.5q0 -87 -52 -147.5t-137 -95.5
z" />
    <glyph glyph-name="Ncaron" unicode="&#x147;" horiz-adv-x="965" 
d="M690 0l-403 604v-604h-193v956h180l404 -604v604h192v-956h-180zM403 1063l-174 189h164l88 -103l90 103h164l-174 -189h-158z" />
    <glyph glyph-name="ncaron" unicode="&#x148;" horiz-adv-x="813" 
d="M805 16q-32 -17 -73 -23.5t-83 -6.5q-15 0 -38 4t-44.5 17.5t-37 38.5t-15.5 67v311q0 34 -2.5 54.5t-10 31.5t-20.5 14.5t-35 3.5q-16 0 -38 -7.5t-45.5 -19t-46.5 -25.5t-40 -27v-449h-192v680h192v-76q21 15 45.5 30.5t52.5 28t58.5 20t63.5 7.5q49 0 88 -7.5
t66.5 -30t42 -65t14.5 -112.5v-319q0 -35 34 -35q8 0 18.5 0.5t24.5 5.5zM369 782l-174 189h164l88 -103l90 103h164l-174 -189h-158z" />
    <glyph glyph-name="Eng" unicode="&#x14a;" horiz-adv-x="965" 
d="M422 -84q15 -4 33 -7.5t36 -6.5t35.5 -4.5t30.5 -1.5q27 0 49.5 4.5t38 16t24.5 31.5t9 52v14l-391 590v-604h-193v956h180l404 -604v604h192v-919q0 -90 -21.5 -150t-59 -96.5t-89 -51.5t-110.5 -15q-11 0 -30 1t-40 3t-40.5 4.5t-30.5 5.5z" />
    <glyph glyph-name="eng" unicode="&#x14b;" horiz-adv-x="791" 
d="M514 424q0 34 -2.5 54.5t-10 31.5t-20.5 14.5t-35 3.5q-16 0 -38 -7.5t-45.5 -19t-46.5 -25.5t-40 -27v-449h-192v680h192v-76q21 15 45.5 30.5t52.5 28t58.5 20t63.5 7.5q49 0 88 -7.5t66.5 -30t42 -65t14.5 -112.5v-508q0 -45 -9.5 -88.5t-35 -78t-70.5 -55.5t-115 -21
q-42 0 -81.5 5t-84.5 17l31 139q19 -6 46 -11t48 -5q22 0 37 3t24 12t13 24.5t4 40.5v475z" />
    <glyph glyph-name="Omacron" unicode="&#x14c;" horiz-adv-x="1044" 
d="M522 162q57 0 100 17.5t72 55.5t43.5 98t14.5 146q0 85 -14.5 145.5t-43.5 98t-72 55t-100 17.5q-56 0 -98.5 -17.5t-71.5 -55t-44 -98t-15 -145.5q0 -86 15 -146t44 -98t71.5 -55.5t98.5 -17.5zM522 -14q-95 0 -177 28t-142 88t-94.5 153t-34.5 224q0 130 34.5 223.5
t94.5 153.5t142 88.5t177 28.5t177 -28.5t142.5 -88.5t95 -153.5t34.5 -223.5q0 -131 -34.5 -224t-95 -153t-142.5 -88t-177 -28zM319 1065v123h406v-123h-406z" />
    <glyph glyph-name="omacron" unicode="&#x14d;" horiz-adv-x="795" 
d="M397 119q21 0 45.5 5t45.5 26.5t35 66t14 123.5t-14 123.5t-35 66t-45.5 26.5t-45.5 5t-45 -5t-45 -26.5t-35 -66t-14 -123.5t14 -123.5t35 -66t45 -26.5t45 -5zM397 -10q-64 0 -124.5 11.5t-107.5 48.5t-75.5 106t-28.5 184q0 110 26.5 178.5t72.5 106.5t107 51.5
t130 13.5q68 0 129 -14t107 -52.5t73 -107t27 -176.5q0 -114 -28.5 -183t-75.5 -106t-107.5 -49t-124.5 -12zM195 784v123h406v-123h-406z" />
    <glyph glyph-name="Obreve" unicode="&#x14e;" horiz-adv-x="1044" 
d="M522 162q57 0 100 17.5t72 55.5t43.5 98t14.5 146q0 85 -14.5 145.5t-43.5 98t-72 55t-100 17.5q-56 0 -98.5 -17.5t-71.5 -55t-44 -98t-15 -145.5q0 -86 15 -146t44 -98t71.5 -55.5t98.5 -17.5zM522 -14q-95 0 -177 28t-142 88t-94.5 153t-34.5 224q0 130 34.5 223.5
t94.5 153.5t142 88.5t177 28.5t177 -28.5t142.5 -88.5t95 -153.5t34.5 -223.5q0 -131 -34.5 -224t-95 -153t-142.5 -88t-177 -28zM745 1250q0 -52 -20 -89t-51.5 -60.5t-71.5 -34.5t-80 -11t-79.5 11t-71 34.5t-51 60.5t-19.5 89h121q0 -25 9.5 -42t24.5 -27.5t32.5 -15.5
t33.5 -5q20 0 38.5 5t33 15.5t23 27.5t8.5 42h120z" />
    <glyph glyph-name="obreve" unicode="&#x14f;" horiz-adv-x="795" 
d="M397 119q21 0 45.5 5t45.5 26.5t35 66t14 123.5t-14 123.5t-35 66t-45.5 26.5t-45.5 5t-45 -5t-45 -26.5t-35 -66t-14 -123.5t14 -123.5t35 -66t45 -26.5t45 -5zM397 -10q-64 0 -124.5 11.5t-107.5 48.5t-75.5 106t-28.5 184q0 110 26.5 178.5t72.5 106.5t107 51.5
t130 13.5q68 0 129 -14t107 -52.5t73 -107t27 -176.5q0 -114 -28.5 -183t-75.5 -106t-107.5 -49t-124.5 -12zM620 969q0 -52 -20 -89t-51.5 -60.5t-71.5 -34.5t-80 -11t-79.5 11t-71 34.5t-51 60.5t-19.5 89h121q0 -25 9.5 -42t24.5 -27.5t32.5 -15.5t33.5 -5q20 0 38.5 5
t33 15.5t23 27.5t8.5 42h120z" />
    <glyph glyph-name="Ohungarumlaut" unicode="&#x150;" horiz-adv-x="1044" 
d="M522 162q57 0 100 17.5t72 55.5t43.5 98t14.5 146q0 85 -14.5 145.5t-43.5 98t-72 55t-100 17.5q-56 0 -98.5 -17.5t-71.5 -55t-44 -98t-15 -145.5q0 -86 15 -146t44 -98t71.5 -55.5t98.5 -17.5zM522 -14q-95 0 -177 28t-142 88t-94.5 153t-34.5 224q0 130 34.5 223.5
t94.5 153.5t142 88.5t177 28.5t177 -28.5t142.5 -88.5t95 -153.5t34.5 -223.5q0 -131 -34.5 -224t-95 -153t-142.5 -88t-177 -28zM383 1063h-154l170 189h199zM684 1063h-154l170 189h199z" />
    <glyph glyph-name="ohungarumlaut" unicode="&#x151;" horiz-adv-x="795" 
d="M397 119q21 0 45.5 5t45.5 26.5t35 66t14 123.5t-14 123.5t-35 66t-45.5 26.5t-45.5 5t-45 -5t-45 -26.5t-35 -66t-14 -123.5t14 -123.5t35 -66t45 -26.5t45 -5zM397 -10q-64 0 -124.5 11.5t-107.5 48.5t-75.5 106t-28.5 184q0 110 26.5 178.5t72.5 106.5t107 51.5
t130 13.5q68 0 129 -14t107 -52.5t73 -107t27 -176.5q0 -114 -28.5 -183t-75.5 -106t-107.5 -49t-124.5 -12zM258 782h-154l170 189h199zM559 782h-154l170 189h199z" />
    <glyph glyph-name="OE" unicode="&#x152;" horiz-adv-x="1415" 
d="M522 162q57 0 100 17.5t72 55.5t43.5 98t14.5 146q0 85 -14.5 145.5t-43.5 98t-72 55t-100 17.5q-56 0 -98.5 -17.5t-71.5 -55t-44 -98t-15 -145.5q0 -86 15 -146t44 -98t71.5 -55.5t98.5 -17.5zM748 0v47q-95 -61 -226 -61q-95 0 -177 28t-142 88t-94.5 153t-34.5 224
q0 130 34.5 223.5t94.5 153.5t142 88.5t177 28.5q65 0 121.5 -15t104.5 -43v41h610l-31 -178h-364v-200h333l-28 -179h-305v-221h395l-31 -178h-579z" />
    <glyph glyph-name="oe" unicode="&#x153;" horiz-adv-x="1200" 
d="M397 119q21 0 45.5 5t45.5 26.5t35 66t14 123.5t-14 123.5t-35 66t-45.5 26.5t-45.5 5t-45 -5t-45 -26.5t-35 -66t-14 -123.5t14 -123.5t35 -66t45 -26.5t45 -5zM946 414q1 18 0.5 43.5t-10.5 49.5t-32 41t-62 17q-32 0 -53.5 -11.5t-35.5 -32t-20 -48t-6 -59.5h219z
M1098 18q-37 -11 -93 -19.5t-141 -8.5t-143 21.5t-96 62.5q-47 -47 -106.5 -65.5t-121.5 -18.5q-64 0 -124.5 11.5t-107.5 48.5t-75.5 106t-28.5 184q0 110 26.5 178.5t72.5 106.5t107 51.5t130 13.5q29 0 60.5 -4t62 -14t59 -27t52.5 -43q35 40 87.5 64t123.5 24
q87 0 145 -24.5t93 -66.5t50 -97.5t15 -116.5q0 -15 -2.5 -39t-7.5 -47h-408q-1 -29 3 -59t21.5 -54t52.5 -39.5t97 -15.5q84 0 138.5 12t88.5 27z" />
    <glyph glyph-name="Racute" unicode="&#x154;" horiz-adv-x="856" 
d="M428 487q63 0 97 40.5t34 105.5q0 66 -34.5 107.5t-96.5 41.5h-121v-295h121zM575 0l-153 313h-115v-313h-213v956h320q103 0 173 -27t112.5 -71.5t60.5 -103t18 -121.5q0 -102 -40.5 -174.5t-119.5 -110.5l193 -348h-236zM418 1063h-154l170 189h199z" />
    <glyph glyph-name="racute" unicode="&#x155;" horiz-adv-x="545" 
d="M84 0v680h192v-76q29 46 68 66t70 20q37 0 63 -8t43 -20l-33 -148q-18 11 -39.5 17t-56.5 6q-23 0 -42 -9.5t-34 -22.5t-25 -26t-14 -20v-459h-192zM283 782h-154l170 189h199z" />
    <glyph glyph-name="Rcommaaccent" unicode="&#x156;" horiz-adv-x="856" 
d="M428 487q63 0 97 40.5t34 105.5q0 66 -34.5 107.5t-96.5 41.5h-121v-295h121zM575 0l-153 313h-115v-313h-213v956h320q103 0 173 -27t112.5 -71.5t60.5 -103t18 -121.5q0 -102 -40.5 -174.5t-119.5 -110.5l193 -348h-236zM306 -375q10 6 25.5 16.5t30.5 23.5t25.5 27.5
t10.5 28.5q0 15 -9.5 26t-20.5 22.5t-20.5 25.5t-9.5 35q0 40 26.5 61t68.5 21q17 0 33.5 -7t30 -21t22 -34.5t8.5 -46.5q0 -87 -52 -147.5t-137 -95.5z" />
    <glyph glyph-name="rcommaaccent" unicode="&#x157;" horiz-adv-x="545" 
d="M84 0v680h192v-76q29 46 68 66t70 20q37 0 63 -8t43 -20l-33 -148q-18 11 -39.5 17t-56.5 6q-23 0 -42 -9.5t-34 -22.5t-25 -26t-14 -20v-459h-192zM68 -375q10 6 25.5 16.5t30.5 23.5t25.5 27.5t10.5 28.5q0 15 -9.5 26t-20.5 22.5t-20.5 25.5t-9.5 35q0 40 26.5 61
t68.5 21q17 0 33.5 -7t30 -21t22 -34.5t8.5 -46.5q0 -87 -52 -147.5t-137 -95.5z" />
    <glyph glyph-name="Rcaron" unicode="&#x158;" horiz-adv-x="856" 
d="M428 487q63 0 97 40.5t34 105.5q0 66 -34.5 107.5t-96.5 41.5h-121v-295h121zM575 0l-153 313h-115v-313h-213v956h320q103 0 173 -27t112.5 -71.5t60.5 -103t18 -121.5q0 -102 -40.5 -174.5t-119.5 -110.5l193 -348h-236zM330 1063l-174 189h164l88 -103l90 103h164
l-174 -189h-158z" />
    <glyph glyph-name="rcaron" unicode="&#x159;" horiz-adv-x="545" 
d="M84 0v680h192v-76q29 46 68 66t70 20q37 0 63 -8t43 -20l-33 -148q-18 11 -39.5 17t-56.5 6q-23 0 -42 -9.5t-34 -22.5t-25 -26t-14 -20v-459h-192zM225 782l-174 189h164l88 -103l90 103h164l-174 -189h-158z" />
    <glyph glyph-name="Sacute" unicode="&#x15a;" horiz-adv-x="727" 
d="M86 225q23 -10 52 -19.5t61.5 -17.5t68 -13t70.5 -5q13 0 36.5 2t47 12.5t40.5 31t17 58.5q0 32 -18.5 54.5t-48.5 40t-68.5 32.5t-78.5 33t-78.5 40t-68.5 53.5t-48.5 74.5t-18.5 103q0 71 25.5 122t71.5 83.5t109.5 47.5t139.5 15q33 0 67.5 -4.5t67.5 -11.5t62 -17
t51 -20l-35 -185q-45 20 -98 38t-121 18q-41 0 -67 -8t-40 -20.5t-19 -27.5t-5 -28q0 -30 31.5 -51t79 -42l102.5 -45t102.5 -60t79 -87.5t31.5 -126.5q0 -152 -88.5 -230.5t-255.5 -78.5q-35 0 -72 3t-74.5 9t-73.5 15.5t-67 23.5zM395 1063h-154l170 189h199z" />
    <glyph glyph-name="sacute" unicode="&#x15b;" horiz-adv-x="625" 
d="M88 166q14 -7 36 -14.5t46.5 -13.5t49.5 -9.5t44 -3.5q22 0 45 2.5t41 9.5t29.5 19.5t11.5 33.5q0 31 -23 50t-57.5 34.5t-75 31t-75 40t-57.5 62t-23 96.5q0 54 24.5 90t64 57.5t89 30t98.5 8.5q38 0 73.5 -4t64 -9.5t46.5 -11t21 -8.5l-31 -145q-6 4 -22 12t-38 15
t-47.5 12.5t-49.5 5.5q-54 0 -79.5 -12t-25.5 -41q0 -25 23 -41t58 -30l75 -30.5t75 -42t58 -64t23 -97.5q0 -48 -21.5 -87t-59.5 -66t-89 -41.5t-109 -14.5q-94 0 -152.5 9t-93.5 21zM344 782h-154l170 189h199z" />
    <glyph glyph-name="Scircumflex" unicode="&#x15c;" horiz-adv-x="727" 
d="M86 225q23 -10 52 -19.5t61.5 -17.5t68 -13t70.5 -5q13 0 36.5 2t47 12.5t40.5 31t17 58.5q0 32 -18.5 54.5t-48.5 40t-68.5 32.5t-78.5 33t-78.5 40t-68.5 53.5t-48.5 74.5t-18.5 103q0 71 25.5 122t71.5 83.5t109.5 47.5t139.5 15q33 0 67.5 -4.5t67.5 -11.5t62 -17
t51 -20l-35 -185q-45 20 -98 38t-121 18q-41 0 -67 -8t-40 -20.5t-19 -27.5t-5 -28q0 -30 31.5 -51t79 -42l102.5 -45t102.5 -60t79 -87.5t31.5 -126.5q0 -152 -88.5 -230.5t-255.5 -78.5q-35 0 -72 3t-74.5 9t-73.5 15.5t-67 23.5zM463 1063l-90 101l-88 -101h-164l174 189
h158l174 -189h-164z" />
    <glyph glyph-name="scircumflex" unicode="&#x15d;" horiz-adv-x="625" 
d="M88 166q14 -7 36 -14.5t46.5 -13.5t49.5 -9.5t44 -3.5q22 0 45 2.5t41 9.5t29.5 19.5t11.5 33.5q0 31 -23 50t-57.5 34.5t-75 31t-75 40t-57.5 62t-23 96.5q0 54 24.5 90t64 57.5t89 30t98.5 8.5q38 0 73.5 -4t64 -9.5t46.5 -11t21 -8.5l-31 -145q-6 4 -22 12t-38 15
t-47.5 12.5t-49.5 5.5q-54 0 -79.5 -12t-25.5 -41q0 -25 23 -41t58 -30l75 -30.5t75 -42t58 -64t23 -97.5q0 -48 -21.5 -87t-59.5 -66t-89 -41.5t-109 -14.5q-94 0 -152.5 9t-93.5 21zM422 782l-90 101l-88 -101h-164l174 189h158l174 -189h-164z" />
    <glyph glyph-name="Scedilla" unicode="&#x15e;" horiz-adv-x="727" 
d="M86 225q23 -10 52 -19.5t61.5 -17.5t68 -13t70.5 -5q13 0 36.5 2t47 12.5t40.5 31t17 58.5q0 32 -18.5 54.5t-48.5 40t-68.5 32.5t-78.5 33t-78.5 40t-68.5 53.5t-48.5 74.5t-18.5 103q0 71 25.5 122t71.5 83.5t109.5 47.5t139.5 15q33 0 67.5 -4.5t67.5 -11.5t62 -17
t51 -20l-35 -185q-45 20 -98 38t-121 18q-41 0 -67 -8t-40 -20.5t-19 -27.5t-5 -28q0 -30 31.5 -51t79 -42l102.5 -45t102.5 -60t79 -87.5t31.5 -126.5q0 -152 -88.5 -230.5t-255.5 -78.5q-35 0 -72 3t-74.5 9t-73.5 15.5t-67 23.5zM190 -309l127 221h180l-157 -221h-150z
" />
    <glyph glyph-name="scedilla" unicode="&#x15f;" horiz-adv-x="625" 
d="M88 166q14 -7 36 -14.5t46.5 -13.5t49.5 -9.5t44 -3.5q22 0 45 2.5t41 9.5t29.5 19.5t11.5 33.5q0 31 -23 50t-57.5 34.5t-75 31t-75 40t-57.5 62t-23 96.5q0 54 24.5 90t64 57.5t89 30t98.5 8.5q38 0 73.5 -4t64 -9.5t46.5 -11t21 -8.5l-31 -145q-6 4 -22 12t-38 15
t-47.5 12.5t-49.5 5.5q-54 0 -79.5 -12t-25.5 -41q0 -25 23 -41t58 -30l75 -30.5t75 -42t58 -64t23 -97.5q0 -48 -21.5 -87t-59.5 -66t-89 -41.5t-109 -14.5q-94 0 -152.5 9t-93.5 21zM119 -309l127 221h180l-157 -221h-150z" />
    <glyph glyph-name="Scaron" unicode="&#x160;" horiz-adv-x="727" 
d="M86 225q23 -10 52 -19.5t61.5 -17.5t68 -13t70.5 -5q13 0 36.5 2t47 12.5t40.5 31t17 58.5q0 32 -18.5 54.5t-48.5 40t-68.5 32.5t-78.5 33t-78.5 40t-68.5 53.5t-48.5 74.5t-18.5 103q0 71 25.5 122t71.5 83.5t109.5 47.5t139.5 15q33 0 67.5 -4.5t67.5 -11.5t62 -17
t51 -20l-35 -185q-45 20 -98 38t-121 18q-41 0 -67 -8t-40 -20.5t-19 -27.5t-5 -28q0 -30 31.5 -51t79 -42l102.5 -45t102.5 -60t79 -87.5t31.5 -126.5q0 -152 -88.5 -230.5t-255.5 -78.5q-35 0 -72 3t-74.5 9t-73.5 15.5t-67 23.5zM285 1065l-174 189h164l88 -103l90 103
h164l-174 -189h-158z" />
    <glyph glyph-name="scaron" unicode="&#x161;" horiz-adv-x="625" 
d="M88 166q14 -7 36 -14.5t46.5 -13.5t49.5 -9.5t44 -3.5q22 0 45 2.5t41 9.5t29.5 19.5t11.5 33.5q0 31 -23 50t-57.5 34.5t-75 31t-75 40t-57.5 62t-23 96.5q0 54 24.5 90t64 57.5t89 30t98.5 8.5q38 0 73.5 -4t64 -9.5t46.5 -11t21 -8.5l-31 -145q-6 4 -22 12t-38 15
t-47.5 12.5t-49.5 5.5q-54 0 -79.5 -12t-25.5 -41q0 -25 23 -41t58 -30l75 -30.5t75 -42t58 -64t23 -97.5q0 -48 -21.5 -87t-59.5 -66t-89 -41.5t-109 -14.5q-94 0 -152.5 9t-93.5 21zM233 782l-174 189h164l88 -103l90 103h164l-174 -189h-158z" />
    </font>
</defs>
</svg>
